# Created by FreeCAD <https://www.freecad.org>
v -57.512432 0.000000 0.498459
v -57.500000 0.000000 0.000000
v -57.500000 -5000.000000 0.000000
v -57.512432 -5000.000000 0.498459
v -57.549694 -5000.000000 0.995678
v -57.549694 0.000000 0.995678
v -57.611691 -5000.000000 1.490423
v -57.611691 0.000000 1.490423
v -57.698277 0.000000 1.981461
v -57.698277 -5000.000000 1.981461
v -57.809227 0.000000 2.467574
v -57.809227 -5000.000000 2.467574
v -57.944271 -5000.000000 2.947552
v -57.944271 0.000000 2.947552
v -58.103073 0.000000 3.420202
v -58.103073 -5000.000000 3.420202
v -58.285236 -5000.000000 3.884348
v -58.285236 0.000000 3.884348
v -58.490311 0.000000 4.338838
v -58.490311 -5000.000000 4.338838
v -58.717785 -5000.000000 4.782540
v -58.717785 0.000000 4.782540
v -58.967091 0.000000 5.214352
v -58.967091 -5000.000000 5.214352
v -59.237614 0.000000 5.633201
v -59.237614 -5000.000000 5.633201
v -59.528675 0.000000 6.038044
v -59.528675 -5000.000000 6.038044
v -59.839554 0.000000 6.427876
v -59.839554 -5000.000000 6.427876
v -60.169483 0.000000 6.801727
v -60.169483 -5000.000000 6.801727
v -60.517632 -5000.000000 7.158669
v -60.517632 0.000000 7.158669
v -60.883141 0.000000 7.497812
v -60.883141 -5000.000000 7.497812
v -61.265102 -5000.000000 7.818315
v -61.265102 0.000000 7.818315
v -61.662563 0.000000 8.119380
v -61.662563 -5000.000000 8.119380
v -62.074539 0.000000 8.400259
v -62.074539 -5000.000000 8.400259
v -62.500000 -5000.000000 8.660254
v -62.500000 0.000000 8.660254
v -62.937893 0.000000 8.898718
v -62.937893 -5000.000000 8.898718
v -63.387131 0.000000 9.115059
v -63.387131 -5000.000000 9.115059
v -63.846588 0.000000 9.308738
v -63.846588 -5000.000000 9.308738
v -64.315132 0.000000 9.479274
v -64.315132 -5000.000000 9.479274
v -64.791595 -5000.000000 9.626243
v -64.791595 0.000000 9.626243
v -65.274788 0.000000 9.749279
v -65.274788 -5000.000000 9.749279
v -65.763519 -5000.000000 9.848078
v -65.763519 0.000000 9.848078
v -66.256561 0.000000 9.922392
v -66.256561 -5000.000000 9.922392
v -66.752701 0.000000 9.972038
v -66.752701 -5000.000000 9.972038
v -67.250694 0.000000 9.996892
v -67.250694 -5000.000000 9.996892
v -67.749306 -5000.000000 9.996892
v -67.749306 0.000000 9.996892
v -68.247299 0.000000 9.972038
v -68.247299 -5000.000000 9.972038
v -68.743439 0.000000 9.922392
v -68.743439 -5000.000000 9.922392
v -69.236481 0.000000 9.848078
v -69.236481 -5000.000000 9.848078
v -69.725212 0.000000 9.749279
v -69.725212 -5000.000000 9.749279
v -70.208405 0.000000 9.626243
v -70.208405 -5000.000000 9.626243
v -70.684868 0.000000 9.479274
v -70.684868 -5000.000000 9.479274
v -71.153412 0.000000 9.308738
v -71.153412 -5000.000000 9.308738
v -71.612869 0.000000 9.115059
v -71.612869 -5000.000000 9.115059
v -72.062103 -5000.000000 8.898718
v -72.062103 0.000000 8.898718
v -72.500000 0.000000 8.660254
v -72.500000 -5000.000000 8.660254
v -72.925461 0.000000 8.400259
v -72.925461 -5000.000000 8.400259
v -73.337440 -5000.000000 8.119380
v -73.337440 0.000000 8.119380
v -73.734901 0.000000 7.818315
v -73.734901 -5000.000000 7.818315
v -74.116859 0.000000 7.497812
v -74.116859 -5000.000000 7.497812
v -74.482368 -5000.000000 7.158669
v -74.482368 0.000000 7.158669
v -74.830521 0.000000 6.801727
v -74.830521 -5000.000000 6.801727
v -75.160446 0.000000 6.427876
v -75.160446 -5000.000000 6.427876
v -75.471329 0.000000 6.038044
v -75.471329 -5000.000000 6.038044
v -75.762390 0.000000 5.633201
v -75.762390 -5000.000000 5.633201
v -76.032906 0.000000 5.214352
v -76.032906 -5000.000000 5.214352
v -76.282219 0.000000 4.782540
v -76.282219 -5000.000000 4.782540
v -76.509689 0.000000 4.338838
v -76.509689 -5000.000000 4.338838
v -76.714760 0.000000 3.884348
v -76.714760 -5000.000000 3.884348
v -76.896927 0.000000 3.420202
v -76.896927 -5000.000000 3.420202
v -77.055725 0.000000 2.947552
v -77.055725 -5000.000000 2.947552
v -77.190773 0.000000 2.467574
v -77.190773 -5000.000000 2.467574
v -77.301727 0.000000 1.981461
v -77.301727 -5000.000000 1.981461
v -77.388306 0.000000 1.490423
v -77.388306 -5000.000000 1.490423
v -77.450310 -5000.000000 0.995678
v -77.450310 0.000000 0.995678
v -77.487572 0.000000 0.498459
v -77.487572 -5000.000000 0.498459
v -77.500000 0.000000 0.000000
v 57.500000 0.000000 0.000000
v 77.487572 0.000000 0.498459
v 77.500000 0.000000 0.000000
v 77.500000 -5000.000000 0.000000
v 77.487572 -5000.000000 0.498459
v 77.450310 -5000.000000 0.995678
v 77.450310 0.000000 0.995678
v 77.388306 -5000.000000 1.490423
v 77.388306 0.000000 1.490423
v 77.301727 0.000000 1.981461
v 77.301727 -5000.000000 1.981461
v 77.190773 0.000000 2.467574
v 77.190773 -5000.000000 2.467574
v 77.055725 -5000.000000 2.947552
v 77.055725 0.000000 2.947552
v 76.896927 0.000000 3.420202
v 76.896927 -5000.000000 3.420202
v 76.714760 -5000.000000 3.884348
v 76.714760 0.000000 3.884348
v 76.509689 0.000000 4.338838
v 76.509689 -5000.000000 4.338838
v 76.282219 -5000.000000 4.782540
v 76.282219 0.000000 4.782540
v 76.032906 0.000000 5.214352
v 76.032906 -5000.000000 5.214352
v 75.762390 0.000000 5.633201
v 75.762390 -5000.000000 5.633201
v 75.471329 0.000000 6.038044
v 75.471329 -5000.000000 6.038044
v 75.160446 0.000000 6.427876
v 75.160446 -5000.000000 6.427876
v 74.830521 0.000000 6.801727
v 74.830521 -5000.000000 6.801727
v 74.482368 -5000.000000 7.158669
v 74.482368 0.000000 7.158669
v 74.116859 0.000000 7.497812
v 74.116859 -5000.000000 7.497812
v 73.734901 -5000.000000 7.818315
v 73.734901 0.000000 7.818315
v 73.337440 0.000000 8.119380
v 73.337440 -5000.000000 8.119380
v 72.925461 0.000000 8.400259
v 72.925461 -5000.000000 8.400259
v 72.500000 -5000.000000 8.660254
v 72.500000 0.000000 8.660254
v 72.062103 0.000000 8.898718
v 72.062103 -5000.000000 8.898718
v 71.612869 0.000000 9.115059
v 71.612869 -5000.000000 9.115059
v 71.153412 0.000000 9.308738
v 71.153412 -5000.000000 9.308738
v 70.684868 0.000000 9.479274
v 70.684868 -5000.000000 9.479274
v 70.208405 -5000.000000 9.626243
v 70.208405 0.000000 9.626243
v 69.725212 0.000000 9.749279
v 69.725212 -5000.000000 9.749279
v 69.236481 -5000.000000 9.848078
v 69.236481 0.000000 9.848078
v 68.743439 0.000000 9.922392
v 68.743439 -5000.000000 9.922392
v 68.247299 0.000000 9.972038
v 68.247299 -5000.000000 9.972038
v 67.749306 0.000000 9.996892
v 67.749306 -5000.000000 9.996892
v 67.250694 -5000.000000 9.996892
v 67.250694 0.000000 9.996892
v 66.752701 0.000000 9.972038
v 66.752701 -5000.000000 9.972038
v 66.256561 0.000000 9.922392
v 66.256561 -5000.000000 9.922392
v 65.763519 0.000000 9.848078
v 65.763519 -5000.000000 9.848078
v 65.274788 0.000000 9.749279
v 65.274788 -5000.000000 9.749279
v 64.791595 0.000000 9.626243
v 64.791595 -5000.000000 9.626243
v 64.315132 0.000000 9.479274
v 64.315132 -5000.000000 9.479274
v 63.846588 0.000000 9.308738
v 63.846588 -5000.000000 9.308738
v 63.387131 0.000000 9.115059
v 63.387131 -5000.000000 9.115059
v 62.937893 -5000.000000 8.898718
v 62.937893 0.000000 8.898718
v 62.500000 0.000000 8.660254
v 62.500000 -5000.000000 8.660254
v 62.074539 0.000000 8.400259
v 62.074539 -5000.000000 8.400259
v 61.662563 -5000.000000 8.119380
v 61.662563 0.000000 8.119380
v 61.265102 0.000000 7.818315
v 61.265102 -5000.000000 7.818315
v 60.883141 0.000000 7.497812
v 60.883141 -5000.000000 7.497812
v 60.517632 -5000.000000 7.158669
v 60.517632 0.000000 7.158669
v 60.169483 0.000000 6.801727
v 60.169483 -5000.000000 6.801727
v 59.839554 0.000000 6.427876
v 59.839554 -5000.000000 6.427876
v 59.528675 0.000000 6.038044
v 59.528675 -5000.000000 6.038044
v 59.237614 0.000000 5.633201
v 59.237614 -5000.000000 5.633201
v 58.967091 0.000000 5.214352
v 58.967091 -5000.000000 5.214352
v 58.717785 0.000000 4.782540
v 58.717785 -5000.000000 4.782540
v 58.490311 0.000000 4.338838
v 58.490311 -5000.000000 4.338838
v 58.285236 0.000000 3.884348
v 58.285236 -5000.000000 3.884348
v 58.103073 0.000000 3.420202
v 58.103073 -5000.000000 3.420202
v 57.944271 0.000000 2.947552
v 57.944271 -5000.000000 2.947552
v 57.809227 0.000000 2.467574
v 57.809227 -5000.000000 2.467574
v 57.698277 0.000000 1.981461
v 57.698277 -5000.000000 1.981461
v 57.611691 0.000000 1.490423
v 57.611691 -5000.000000 1.490423
v 57.549694 -5000.000000 0.995678
v 57.549694 0.000000 0.995678
v 57.512432 0.000000 0.498459
v 57.512432 -5000.000000 0.498459
v 95.000000 0.000000 0.000000
v 120.000000 0.000000 120.000000
v 120.000000 -5000.000000 120.000000
v 120.000000 0.000000 190.000000
v 167.698318 0.000000 190.000000
v 167.698318 -5000.000000 190.000000
v 160.000000 0.000000 208.459030
v 160.000000 -5000.000000 208.459030
v 155.652802 0.000000 210.298828
v 155.652802 -5000.000000 210.298828
v 151.221313 0.000000 211.925125
v 151.221313 -5000.000000 211.925125
v 146.716019 0.000000 213.334106
v 146.716019 -5000.000000 213.334106
v 142.147537 0.000000 214.522415
v 142.147537 -5000.000000 214.522415
v 137.526718 -5000.000000 215.487244
v 137.526718 0.000000 215.487244
v 132.864456 0.000000 216.226334
v 132.864456 -5000.000000 216.226334
v 128.171768 0.000000 216.737900
v 128.171768 -5000.000000 216.737900
v 123.459770 0.000000 217.020767
v 123.459770 -5000.000000 217.020767
v 118.739586 -5000.000000 217.074265
v 118.739586 0.000000 217.074265
v 114.022392 0.000000 216.898239
v 114.022392 -5000.000000 216.898239
v 109.319321 -5000.000000 216.493118
v 109.319321 0.000000 216.493118
v 104.641502 0.000000 215.859879
v 104.641502 -5000.000000 215.859879
v 100.000000 -5000.000000 215.000000
v 100.000000 0.000000 215.000000
v 100.000000 0.000000 120.000000
v 100.000000 -5000.000000 120.000000
v -100.000000 0.000000 120.000000
v -100.000000 -5000.000000 120.000000
v -99.875694 -5000.000000 115.015411
v -99.875694 0.000000 115.015411
v -99.503075 0.000000 110.043213
v -99.503075 -5000.000000 110.043213
v -98.883080 0.000000 105.095772
v -98.883080 -5000.000000 105.095772
v -98.017250 0.000000 100.185387
v -98.017250 -5000.000000 100.185387
v -96.907730 0.000000 95.324257
v -96.907730 -5000.000000 95.324257
v -95.557281 -5000.000000 90.524483
v -95.557281 0.000000 90.524483
v -93.969261 0.000000 85.797989
v -93.969261 -5000.000000 85.797989
v -92.147621 -5000.000000 81.156517
v -92.147621 0.000000 81.156517
v -90.096886 0.000000 76.611626
v -90.096886 -5000.000000 76.611626
v -87.822159 -5000.000000 72.174599
v -87.822159 0.000000 72.174599
v -85.329086 0.000000 67.856483
v -85.329086 -5000.000000 67.856483
v -82.623878 -5000.000000 63.667995
v -82.623878 0.000000 63.667995
v -79.713249 0.000000 59.619560
v -79.713249 -5000.000000 59.619560
v -76.604446 0.000000 55.721237
v -76.604446 -5000.000000 55.721237
v -73.305183 0.000000 51.982727
v -73.305183 -5000.000000 51.982727
v -69.823685 -5000.000000 48.413315
v -69.823685 0.000000 48.413315
v -66.168587 0.000000 45.021881
v -66.168587 -5000.000000 45.021881
v -62.348980 0.000000 41.816853
v -62.348980 -5000.000000 41.816853
v -58.374367 0.000000 38.806198
v -58.374367 -5000.000000 38.806198
v -54.254627 -5000.000000 35.997406
v -54.254627 0.000000 35.997406
v -50.000000 0.000000 33.397461
v -50.000000 -5000.000000 33.397461
v -45.621067 0.000000 31.012819
v -45.621067 -5000.000000 31.012819
v -41.128712 0.000000 28.849415
v -41.128712 -5000.000000 28.849415
v -36.534103 -5000.000000 26.912624
v -36.534103 0.000000 26.912624
v -31.848665 0.000000 25.207266
v -31.848665 -5000.000000 25.207266
v -27.084047 0.000000 23.737576
v -27.084047 -5000.000000 23.737576
v -22.252094 0.000000 22.507208
v -22.252094 -5000.000000 22.507208
v -17.364819 -5000.000000 21.519224
v -17.364819 0.000000 21.519224
v -12.434370 0.000000 20.776079
v -12.434370 -5000.000000 20.776079
v -7.473010 0.000000 20.279621
v -7.473010 -5000.000000 20.279621
v -2.493069 0.000000 20.031082
v -2.493069 -5000.000000 20.031082
v 2.493069 -5000.000000 20.031082
v 2.493069 0.000000 20.031082
v 7.473010 -5000.000000 20.279621
v 7.473010 0.000000 20.279621
v 12.434370 0.000000 20.776079
v 12.434370 -5000.000000 20.776079
v 17.364819 -5000.000000 21.519224
v 17.364819 0.000000 21.519224
v 22.252094 0.000000 22.507208
v 22.252094 -5000.000000 22.507208
v 27.084047 -5000.000000 23.737576
v 27.084047 0.000000 23.737576
v 31.848665 0.000000 25.207266
v 31.848665 -5000.000000 25.207266
v 36.534103 -5000.000000 26.912624
v 36.534103 0.000000 26.912624
v 41.128712 -5000.000000 28.849415
v 41.128712 0.000000 28.849415
v 45.621067 0.000000 31.012819
v 45.621067 -5000.000000 31.012819
v 50.000000 -5000.000000 33.397461
v 50.000000 0.000000 33.397461
v 54.254627 0.000000 35.997406
v 54.254627 -5000.000000 35.997406
v 58.374367 -5000.000000 38.806198
v 58.374367 0.000000 38.806198
v 62.348980 0.000000 41.816853
v 62.348980 -5000.000000 41.816853
v 66.168587 -5000.000000 45.021881
v 66.168587 0.000000 45.021881
v 69.823685 0.000000 48.413315
v 69.823685 -5000.000000 48.413315
v 73.305183 -5000.000000 51.982727
v 73.305183 0.000000 51.982727
v 76.604446 0.000000 55.721237
v 76.604446 -5000.000000 55.721237
v 79.713249 0.000000 59.619560
v 79.713249 -5000.000000 59.619560
v 82.623878 0.000000 63.667995
v 82.623878 -5000.000000 63.667995
v 85.329086 -5000.000000 67.856483
v 85.329086 0.000000 67.856483
v 87.822159 0.000000 72.174599
v 87.822159 -5000.000000 72.174599
v 90.096886 0.000000 76.611626
v 90.096886 -5000.000000 76.611626
v 92.147621 0.000000 81.156517
v 92.147621 -5000.000000 81.156517
v 93.969261 -5000.000000 85.797989
v 93.969261 0.000000 85.797989
v 95.557281 0.000000 90.524483
v 95.557281 -5000.000000 90.524483
v 96.907730 0.000000 95.324257
v 96.907730 -5000.000000 95.324257
v 98.017250 0.000000 100.185387
v 98.017250 -5000.000000 100.185387
v 98.883080 0.000000 105.095772
v 98.883080 -5000.000000 105.095772
v 99.503075 0.000000 110.043213
v 99.503075 -5000.000000 110.043213
v 99.875694 0.000000 115.015411
v 99.875694 -5000.000000 115.015411
v -100.000000 0.000000 215.000000
v -100.000000 -5000.000000 215.000000
v -104.641502 0.000000 215.859879
v -104.641502 -5000.000000 215.859879
v -109.319321 0.000000 216.493118
v -109.319321 -5000.000000 216.493118
v -114.022392 0.000000 216.898239
v -114.022392 -5000.000000 216.898239
v -118.739586 0.000000 217.074265
v -118.739586 -5000.000000 217.074265
v -123.459770 -5000.000000 217.020767
v -123.459770 0.000000 217.020767
v -128.171768 0.000000 216.737900
v -128.171768 -5000.000000 216.737900
v -132.864456 0.000000 216.226334
v -132.864456 -5000.000000 216.226334
v -137.526718 0.000000 215.487244
v -137.526718 -5000.000000 215.487244
v -142.147537 -5000.000000 214.522415
v -142.147537 0.000000 214.522415
v -146.716019 0.000000 213.334106
v -146.716019 -5000.000000 213.334106
v -151.221313 -5000.000000 211.925125
v -151.221313 0.000000 211.925125
v -155.652802 0.000000 210.298828
v -155.652802 -5000.000000 210.298828
v -160.000000 0.000000 208.459030
v -152.301682 0.000000 190.000000
v -120.000000 0.000000 190.000000
v -120.000000 0.000000 120.000000
v -95.000000 0.000000 0.000000
v -95.000000 -5000.000000 0.000000
v -77.500000 -5000.000000 0.000000
v -120.000000 -5000.000000 120.000000
v -152.301682 -5000.000000 190.000000
v -160.000000 -5000.000000 208.459030
v 57.500000 -5000.000000 0.000000
v -120.000000 -5000.000000 190.000000
v 95.000000 -5000.000000 0.000000
v 120.000000 -5000.000000 190.000000
vn -0.999689 0.000000 -0.024933
vn -0.999689 -0.000000 -0.024933
vn -0.997204 -0.000000 -0.074731
vn -0.992240 -0.000000 -0.124338
vn -0.997204 -0.000000 -0.074731
vn -0.992240 -0.000000 -0.124338
vn -0.984807 -0.000000 -0.173653
vn -0.984807 0.000000 -0.173653
vn -0.974929 -0.000000 -0.222518
vn -0.962625 -0.000000 -0.270839
vn -0.974929 0.000000 -0.222518
vn -0.962625 -0.000000 -0.270839
vn -0.947927 -0.000000 -0.318487
vn -0.930874 -0.000000 -0.365340
vn -0.947927 0.000000 -0.318487
vn -0.930874 -0.000000 -0.365340
vn -0.911505 -0.000000 -0.411288
vn -0.889871 -0.000000 -0.456213
vn -0.911505 0.000000 -0.411288
vn -0.889871 -0.000000 -0.456213
vn -0.866026 -0.000000 -0.499998
vn -0.866026 0.000000 -0.499998
vn -0.840024 -0.000000 -0.542549
vn -0.840024 0.000000 -0.542549
vn -0.811939 -0.000000 -0.583742
vn -0.811939 0.000000 -0.583742
vn -0.781833 -0.000000 -0.623487
vn -0.781833 0.000000 -0.623487
vn -0.749778 -0.000000 -0.661690
vn -0.715869 -0.000000 -0.698234
vn -0.749778 0.000000 -0.661690
vn -0.715869 -0.000000 -0.698234
vn -0.680173 0.000000 -0.733051
vn -0.680173 -0.000000 -0.733051
vn -0.642787 -0.000000 -0.766045
vn -0.642787 -0.000000 -0.766045
vn -0.603804 0.000000 -0.797132
vn -0.603804 -0.000000 -0.797132
vn -0.563318 0.000000 -0.826240
vn -0.563318 -0.000000 -0.826240
vn -0.521438 -0.000000 -0.853289
vn -0.521438 -0.000000 -0.853289
vn -0.478253 0.000000 -0.878222
vn -0.478253 -0.000000 -0.878222
vn -0.433883 0.000000 -0.900969
vn -0.433883 -0.000000 -0.900969
vn -0.388437 -0.000000 -0.921475
vn -0.388437 0.000000 -0.921475
vn -0.342020 -0.000000 -0.939693
vn -0.294754 -0.000000 -0.955573
vn -0.342020 0.000000 -0.939693
vn -0.294754 -0.000000 -0.955573
vn -0.246758 -0.000000 -0.969077
vn -0.198145 -0.000000 -0.980173
vn -0.246758 0.000000 -0.969077
vn -0.198145 -0.000000 -0.980173
vn -0.149042 -0.000000 -0.988831
vn -0.149042 0.000000 -0.988831
vn -0.099568 -0.000000 -0.995031
vn -0.099568 0.000000 -0.995031
vn -0.049846 -0.000000 -0.998757
vn 0.000000 -0.000000 -1.000000
vn -0.049846 0.000000 -0.998757
vn 0.000000 0.000000 -1.000000
vn 0.049846 0.000000 -0.998757
vn 0.049846 0.000000 -0.998757
vn 0.099568 0.000000 -0.995031
vn 0.099568 0.000000 -0.995031
vn 0.149042 0.000000 -0.988831
vn 0.149042 0.000000 -0.988831
vn 0.198145 0.000000 -0.980173
vn 0.198145 0.000000 -0.980173
vn 0.246758 0.000000 -0.969077
vn 0.246758 0.000000 -0.969077
vn 0.294754 0.000000 -0.955573
vn 0.294754 0.000000 -0.955573
vn 0.342020 0.000000 -0.939693
vn 0.342020 0.000000 -0.939693
vn 0.388437 0.000000 -0.921475
vn 0.433886 0.000000 -0.900968
vn 0.388437 0.000000 -0.921475
vn 0.433886 0.000000 -0.900968
vn 0.478250 0.000000 -0.878224
vn 0.478250 0.000000 -0.878224
vn 0.521438 0.000000 -0.853289
vn 0.521438 0.000000 -0.853289
vn 0.563315 0.000000 -0.826243
vn 0.563315 0.000000 -0.826243
vn 0.603804 0.000000 -0.797132
vn 0.603804 0.000000 -0.797132
vn 0.642790 0.000000 -0.766042
vn 0.642790 0.000000 -0.766042
vn 0.680173 0.000000 -0.733051
vn 0.680173 0.000000 -0.733051
vn 0.715865 0.000000 -0.698238
vn 0.715865 0.000000 -0.698238
vn 0.749781 0.000000 -0.661686
vn 0.749781 0.000000 -0.661686
vn 0.781830 0.000000 -0.623492
vn 0.781830 0.000000 -0.623492
vn 0.811939 0.000000 -0.583742
vn 0.811939 0.000000 -0.583742
vn 0.840031 0.000000 -0.542538
vn 0.840031 0.000000 -0.542538
vn 0.866020 0.000000 -0.500010
vn 0.866020 0.000000 -0.500010
vn 0.889874 0.000000 -0.456207
vn 0.889874 0.000000 -0.456207
vn 0.911508 0.000000 -0.411282
vn 0.911508 0.000000 -0.411282
vn 0.930872 0.000000 -0.365346
vn 0.930872 0.000000 -0.365346
vn 0.947930 0.000000 -0.318480
vn 0.947930 0.000000 -0.318480
vn 0.962623 0.000000 -0.270846
vn 0.962623 0.000000 -0.270846
vn 0.974927 0.000000 -0.222525
vn 0.974927 0.000000 -0.222525
vn 0.984809 0.000000 -0.173638
vn 0.992238 0.000000 -0.124353
vn 0.984809 0.000000 -0.173638
vn 0.992238 0.000000 -0.124353
vn 0.997204 0.000000 -0.074731
vn 0.997204 0.000000 -0.074731
vn 0.999689 -0.000000 -0.024926
vn 0.999689 0.000000 -0.024926
vn 0.000000 -0.000000 -1.000000
vn -0.000000 -0.000000 -1.000000
vn -0.999689 0.000000 -0.024926
vn -0.999689 -0.000000 -0.024926
vn -0.997204 -0.000000 -0.074731
vn -0.992238 -0.000000 -0.124353
vn -0.997204 -0.000000 -0.074731
vn -0.992238 -0.000000 -0.124353
vn -0.984809 -0.000000 -0.173638
vn -0.984809 0.000000 -0.173638
vn -0.974927 -0.000000 -0.222525
vn -0.962623 -0.000000 -0.270846
vn -0.974927 0.000000 -0.222525
vn -0.962623 -0.000000 -0.270846
vn -0.947930 -0.000000 -0.318480
vn -0.930872 -0.000000 -0.365346
vn -0.947930 0.000000 -0.318480
vn -0.930872 -0.000000 -0.365346
vn -0.911508 -0.000000 -0.411282
vn -0.889874 -0.000000 -0.456207
vn -0.911508 0.000000 -0.411282
vn -0.889874 -0.000000 -0.456207
vn -0.866020 -0.000000 -0.500010
vn -0.866020 0.000000 -0.500010
vn -0.840031 -0.000000 -0.542538
vn -0.840031 0.000000 -0.542538
vn -0.811939 -0.000000 -0.583742
vn -0.811939 0.000000 -0.583742
vn -0.781830 -0.000000 -0.623492
vn -0.781830 0.000000 -0.623492
vn -0.749781 -0.000000 -0.661686
vn -0.715865 -0.000000 -0.698238
vn -0.749781 0.000000 -0.661686
vn -0.715865 -0.000000 -0.698238
vn -0.680173 0.000000 -0.733051
vn -0.680173 -0.000000 -0.733051
vn -0.642790 -0.000000 -0.766042
vn -0.642790 -0.000000 -0.766042
vn -0.603804 0.000000 -0.797132
vn -0.603804 -0.000000 -0.797132
vn -0.563315 0.000000 -0.826243
vn -0.563315 -0.000000 -0.826243
vn -0.521438 -0.000000 -0.853289
vn -0.521438 -0.000000 -0.853289
vn -0.478250 0.000000 -0.878224
vn -0.478250 -0.000000 -0.878224
vn -0.433886 0.000000 -0.900968
vn -0.433886 -0.000000 -0.900968
vn -0.388437 -0.000000 -0.921475
vn -0.388437 0.000000 -0.921475
vn -0.342020 -0.000000 -0.939693
vn -0.294754 -0.000000 -0.955573
vn -0.342020 0.000000 -0.939693
vn -0.294754 -0.000000 -0.955573
vn -0.246758 -0.000000 -0.969077
vn -0.198145 -0.000000 -0.980173
vn -0.246758 0.000000 -0.969077
vn -0.198145 -0.000000 -0.980173
vn -0.149042 -0.000000 -0.988831
vn -0.149042 0.000000 -0.988831
vn -0.099568 -0.000000 -0.995031
vn -0.099568 0.000000 -0.995031
vn -0.049846 -0.000000 -0.998757
vn 0.000000 -0.000000 -1.000000
vn -0.049846 0.000000 -0.998757
vn 0.000000 0.000000 -1.000000
vn 0.049846 0.000000 -0.998757
vn 0.049846 0.000000 -0.998757
vn 0.099568 0.000000 -0.995031
vn 0.099568 0.000000 -0.995031
vn 0.149042 0.000000 -0.988831
vn 0.149042 0.000000 -0.988831
vn 0.198145 0.000000 -0.980173
vn 0.198145 0.000000 -0.980173
vn 0.246758 0.000000 -0.969077
vn 0.246758 0.000000 -0.969077
vn 0.294754 0.000000 -0.955573
vn 0.294754 0.000000 -0.955573
vn 0.342020 0.000000 -0.939693
vn 0.342020 0.000000 -0.939693
vn 0.388437 0.000000 -0.921475
vn 0.433883 0.000000 -0.900969
vn 0.388437 0.000000 -0.921475
vn 0.433883 0.000000 -0.900969
vn 0.478253 0.000000 -0.878222
vn 0.478253 0.000000 -0.878222
vn 0.521438 0.000000 -0.853289
vn 0.521438 0.000000 -0.853289
vn 0.563318 0.000000 -0.826240
vn 0.563318 0.000000 -0.826240
vn 0.603804 0.000000 -0.797132
vn 0.603804 0.000000 -0.797132
vn 0.642787 0.000000 -0.766045
vn 0.642787 0.000000 -0.766045
vn 0.680173 0.000000 -0.733051
vn 0.680173 0.000000 -0.733051
vn 0.715869 0.000000 -0.698234
vn 0.715869 0.000000 -0.698234
vn 0.749778 0.000000 -0.661690
vn 0.749778 0.000000 -0.661690
vn 0.781833 0.000000 -0.623487
vn 0.781833 0.000000 -0.623487
vn 0.811939 0.000000 -0.583742
vn 0.811939 0.000000 -0.583742
vn 0.840024 0.000000 -0.542549
vn 0.840024 0.000000 -0.542549
vn 0.866026 0.000000 -0.499998
vn 0.866026 0.000000 -0.499998
vn 0.889871 0.000000 -0.456213
vn 0.889871 0.000000 -0.456213
vn 0.911505 0.000000 -0.411288
vn 0.911505 0.000000 -0.411288
vn 0.930874 0.000000 -0.365340
vn 0.930874 0.000000 -0.365340
vn 0.947927 0.000000 -0.318487
vn 0.947927 0.000000 -0.318487
vn 0.962625 0.000000 -0.270839
vn 0.962625 0.000000 -0.270839
vn 0.974929 0.000000 -0.222518
vn 0.974929 0.000000 -0.222518
vn 0.984807 0.000000 -0.173653
vn 0.992240 0.000000 -0.124338
vn 0.984807 0.000000 -0.173653
vn 0.992240 0.000000 -0.124338
vn 0.997204 0.000000 -0.074731
vn 0.997204 0.000000 -0.074731
vn 0.999689 -0.000000 -0.024933
vn 0.999689 0.000000 -0.024933
vn 0.000000 -0.000000 -1.000000
vn -0.000000 -0.000000 -1.000000
vn 0.978980 -0.000000 -0.203954
vn 0.978980 0.000000 -0.203954
vn 1.000000 0.000000 -0.000000
vn 1.000000 0.000000 0.000000
vn 0.000000 0.000000 -1.000000
vn 0.000000 0.000000 -1.000000
vn 0.922952 0.000000 0.384916
vn 0.922952 0.000000 0.384916
vn 0.389748 0.000000 0.920922
vn 0.389748 0.000000 0.920922
vn 0.344519 0.000000 0.938779
vn 0.344519 0.000000 0.938779
vn 0.298483 0.000000 0.954415
vn 0.298483 0.000000 0.954415
vn 0.251734 0.000000 0.967797
vn 0.204392 -0.000000 0.978889
vn 0.251734 0.000000 0.967797
vn 0.204392 0.000000 0.978889
vn 0.156571 0.000000 0.987667
vn 0.156571 0.000000 0.987667
vn 0.108371 0.000000 0.994110
vn 0.108371 0.000000 0.994110
vn 0.059923 0.000000 0.998203
vn 0.011333 -0.000000 0.999936
vn 0.059923 0.000000 0.998203
vn 0.011333 0.000000 0.999936
vn -0.037290 0.000000 0.999305
vn -0.085822 0.000000 0.996310
vn -0.037290 0.000000 0.999305
vn -0.085822 0.000000 0.996310
vn -0.134147 0.000000 0.990961
vn -0.182159 0.000000 0.983269
vn -0.134147 0.000000 0.990961
vn -0.182159 0.000000 0.983269
vn -1.000000 -0.000000 0.000000
vn -1.000000 0.000000 0.000000
vn 0.999689 0.000000 0.024930
vn 0.999689 0.000000 0.024930
vn 0.997204 0.000000 0.074731
vn 0.997204 0.000000 0.074731
vn 0.992239 0.000000 0.124344
vn 0.992239 0.000000 0.124344
vn 0.984808 0.000000 0.173647
vn 0.984808 0.000000 0.173647
vn 0.974928 0.000000 0.222521
vn 0.962624 0.000000 0.270841
vn 0.974928 0.000000 0.222521
vn 0.962624 0.000000 0.270841
vn 0.947927 0.000000 0.318487
vn 0.930874 0.000000 0.365340
vn 0.947927 0.000000 0.318487
vn 0.930874 0.000000 0.365340
vn 0.911506 0.000000 0.411287
vn 0.889872 0.000000 0.456210
vn 0.911506 0.000000 0.411287
vn 0.889872 0.000000 0.456210
vn 0.866025 0.000000 0.500001
vn 0.840026 0.000000 0.542546
vn 0.866025 0.000000 0.500001
vn 0.840026 0.000000 0.542546
vn 0.811938 0.000000 0.583744
vn 0.811938 0.000000 0.583744
vn 0.781832 0.000000 0.623489
vn 0.781832 0.000000 0.623489
vn 0.749780 0.000000 0.661687
vn 0.715868 0.000000 0.698236
vn 0.749780 0.000000 0.661687
vn 0.715868 0.000000 0.698236
vn 0.680173 0.000000 0.733052
vn 0.680173 0.000000 0.733052
vn 0.642787 0.000000 0.766045
vn 0.642787 0.000000 0.766045
vn 0.603805 0.000000 0.797132
vn 0.603805 0.000000 0.797132
vn 0.563320 0.000000 0.826239
vn 0.563320 0.000000 0.826239
vn 0.521435 0.000000 0.853291
vn 0.521435 0.000000 0.853291
vn 0.478254 0.000000 0.878221
vn 0.478254 0.000000 0.878221
vn 0.433884 0.000000 0.900969
vn 0.433884 0.000000 0.900969
vn 0.388435 0.000000 0.921476
vn 0.388435 0.000000 0.921476
vn 0.342020 0.000000 0.939693
vn 0.342020 0.000000 0.939693
vn 0.294755 0.000000 0.955573
vn 0.294755 0.000000 0.955573
vn 0.246758 0.000000 0.969077
vn 0.198146 0.000000 0.980172
vn 0.246758 0.000000 0.969077
vn 0.198146 0.000000 0.980172
vn 0.149042 0.000000 0.988831
vn 0.149042 0.000000 0.988831
vn 0.099568 0.000000 0.995031
vn 0.099568 0.000000 0.995031
vn 0.049846 0.000000 0.998757
vn 0.000000 0.000000 1.000000
vn 0.049846 0.000000 0.998757
vn -0.049846 0.000000 0.998757
vn 0.000000 0.000000 1.000000
vn -0.049846 0.000000 0.998757
vn -0.099568 0.000000 0.995031
vn -0.149042 0.000000 0.988831
vn -0.099568 0.000000 0.995031
vn -0.149042 0.000000 0.988831
vn -0.198146 0.000000 0.980172
vn -0.246758 0.000000 0.969077
vn -0.198146 0.000000 0.980172
vn -0.246758 0.000000 0.969077
vn -0.294755 0.000000 0.955573
vn -0.342020 0.000000 0.939693
vn -0.294755 0.000000 0.955573
vn -0.388435 0.000000 0.921476
vn -0.342020 0.000000 0.939693
vn -0.388435 0.000000 0.921476
vn -0.433884 0.000000 0.900969
vn -0.478254 0.000000 0.878221
vn -0.433884 0.000000 0.900969
vn -0.478254 0.000000 0.878221
vn -0.521435 0.000000 0.853291
vn -0.521435 0.000000 0.853291
vn -0.563320 0.000000 0.826239
vn -0.563320 0.000000 0.826239
vn -0.603805 0.000000 0.797132
vn -0.603805 0.000000 0.797132
vn -0.642787 0.000000 0.766045
vn -0.642787 0.000000 0.766045
vn -0.680173 0.000000 0.733052
vn -0.680173 0.000000 0.733052
vn -0.715868 0.000000 0.698236
vn -0.715868 0.000000 0.698236
vn -0.749780 0.000000 0.661687
vn -0.749780 0.000000 0.661687
vn -0.781832 0.000000 0.623489
vn -0.781832 0.000000 0.623489
vn -0.811938 0.000000 0.583744
vn -0.811938 0.000000 0.583744
vn -0.840026 0.000000 0.542546
vn -0.840026 0.000000 0.542546
vn -0.866025 0.000000 0.500001
vn -0.866025 0.000000 0.500001
vn -0.889872 0.000000 0.456210
vn -0.889872 0.000000 0.456210
vn -0.911506 0.000000 0.411287
vn -0.911506 0.000000 0.411287
vn -0.930874 0.000000 0.365340
vn -0.930874 0.000000 0.365340
vn -0.947927 0.000000 0.318487
vn -0.947927 0.000000 0.318487
vn -0.962624 0.000000 0.270841
vn -0.962624 0.000000 0.270841
vn -0.974928 0.000000 0.222521
vn -0.974928 0.000000 0.222521
vn -0.984808 0.000000 0.173647
vn -0.984808 0.000000 0.173647
vn -0.992239 0.000000 0.124344
vn -0.992239 0.000000 0.124344
vn -0.997204 0.000000 0.074731
vn -0.999689 0.000000 0.024930
vn -0.997204 0.000000 0.074731
vn -0.999689 0.000000 0.024930
vn 1.000000 0.000000 -0.000000
vn 1.000000 0.000000 0.000000
vn 0.182159 0.000000 0.983269
vn 0.182159 0.000000 0.983269
vn 0.134147 0.000000 0.990961
vn 0.134147 0.000000 0.990961
vn 0.085822 0.000000 0.996310
vn 0.085822 0.000000 0.996310
vn 0.037290 0.000000 0.999305
vn -0.011333 0.000000 0.999936
vn 0.037290 0.000000 0.999305
vn -0.011333 0.000000 0.999936
vn -0.059923 0.000000 0.998203
vn -0.059923 0.000000 0.998203
vn -0.108371 0.000000 0.994110
vn -0.108371 0.000000 0.994110
vn -0.156571 0.000000 0.987667
vn -0.204392 0.000000 0.978889
vn -0.156571 0.000000 0.987667
vn -0.204392 0.000000 0.978889
vn -0.251734 0.000000 0.967797
vn -0.298483 0.000000 0.954415
vn -0.251734 0.000000 0.967797
vn -0.298483 0.000000 0.954415
vn -0.344519 0.000000 0.938779
vn -0.344519 0.000000 0.938779
vn -0.389748 0.000000 0.920922
vn -0.389748 0.000000 0.920922
vn -0.922952 0.000000 -0.384916
vn -0.922952 -0.000000 -0.384916
vn 0.000000 0.000000 -1.000000
vn 0.000000 0.000000 -1.000000
vn -1.000000 0.000000 0.000000
vn -1.000000 -0.000000 0.000000
vn -0.978980 0.000000 -0.203954
vn -0.978980 -0.000000 -0.203954
vn 0.000000 -0.000000 -1.000000
vn -0.000000 -0.000000 -1.000000
vn 0.000000 1.000000 -0.000000
vn 0.000000 1.000000 -0.000000
vn 0.000000 1.000000 -0.000000
vn 0.000000 1.000000 -0.000000
vn 0.000000 1.000000 -0.000000
vn 0.000000 1.000000 -0.000000
vn 0.000000 1.000000 -0.000000
vn 0.000000 1.000000 -0.000000
vn 0.000000 1.000000 -0.000000
vn 0.000000 1.000000 -0.000000
vn 0.000000 1.000000 -0.000000
vn 0.000000 1.000000 -0.000000
vn 0.000000 1.000000 -0.000000
vn 0.000000 1.000000 -0.000000
vn 0.000000 1.000000 -0.000000
vn 0.000000 1.000000 -0.000000
vn 0.000000 1.000000 -0.000000
vn 0.000000 1.000000 -0.000000
vn 0.000000 1.000000 -0.000000
vn 0.000000 1.000000 -0.000000
vn 0.000000 1.000000 -0.000000
vn 0.000000 1.000000 -0.000000
vn 0.000000 1.000000 -0.000000
vn 0.000000 1.000000 -0.000000
vn 0.000000 1.000000 -0.000000
vn 0.000000 1.000000 -0.000000
vn 0.000000 1.000000 -0.000000
vn 0.000000 1.000000 -0.000000
vn 0.000000 1.000000 -0.000000
vn 0.000000 1.000000 -0.000000
vn 0.000000 1.000000 -0.000000
vn 0.000000 1.000000 -0.000000
vn 0.000000 1.000000 -0.000000
vn 0.000000 1.000000 -0.000000
vn 0.000000 1.000000 -0.000000
vn 0.000000 1.000000 -0.000000
vn 0.000000 1.000000 -0.000000
vn 0.000000 1.000000 -0.000000
vn 0.000000 1.000000 -0.000000
vn 0.000000 1.000000 -0.000000
vn 0.000000 1.000000 -0.000000
vn 0.000000 1.000000 -0.000000
vn 0.000000 1.000000 -0.000000
vn 0.000000 1.000000 -0.000000
vn 0.000000 1.000000 -0.000000
vn 0.000000 1.000000 -0.000000
vn 0.000000 1.000000 -0.000000
vn 0.000000 1.000000 -0.000000
vn 0.000000 1.000000 -0.000000
vn 0.000000 1.000000 -0.000000
vn 0.000000 1.000000 -0.000000
vn 0.000000 1.000000 -0.000000
vn 0.000000 1.000000 -0.000000
vn 0.000000 1.000000 -0.000000
vn 0.000000 1.000000 -0.000000
vn 0.000000 1.000000 -0.000000
vn 0.000000 1.000000 -0.000000
vn 0.000000 1.000000 -0.000000
vn 0.000000 1.000000 -0.000000
vn 0.000000 1.000000 -0.000000
vn 0.000000 1.000000 -0.000000
vn 0.000000 1.000000 -0.000000
vn 0.000000 1.000000 -0.000000
vn 0.000000 1.000000 -0.000000
vn 0.000000 1.000000 -0.000000
vn 0.000000 1.000000 -0.000000
vn 0.000000 1.000000 -0.000000
vn 0.000000 1.000000 -0.000000
vn 0.000000 1.000000 -0.000000
vn 0.000000 1.000000 -0.000000
vn 0.000000 1.000000 -0.000000
vn 0.000000 1.000000 -0.000000
vn 0.000000 1.000000 -0.000000
vn 0.000000 1.000000 -0.000000
vn 0.000000 1.000000 -0.000000
vn 0.000000 1.000000 -0.000000
vn 0.000000 1.000000 -0.000000
vn 0.000000 1.000000 -0.000000
vn 0.000000 1.000000 -0.000000
vn 0.000000 1.000000 -0.000000
vn 0.000000 1.000000 -0.000000
vn 0.000000 1.000000 -0.000000
vn 0.000000 1.000000 -0.000000
vn 0.000000 1.000000 -0.000000
vn 0.000000 1.000000 -0.000000
vn 0.000000 1.000000 -0.000000
vn 0.000000 1.000000 -0.000000
vn 0.000000 1.000000 -0.000000
vn 0.000000 1.000000 -0.000000
vn 0.000000 1.000000 -0.000000
vn 0.000000 1.000000 -0.000000
vn 0.000000 1.000000 -0.000000
vn 0.000000 1.000000 -0.000000
vn 0.000000 1.000000 -0.000000
vn 0.000000 1.000000 -0.000000
vn 0.000000 1.000000 -0.000000
vn 0.000000 1.000000 -0.000000
vn 0.000000 1.000000 -0.000000
vn 0.000000 1.000000 -0.000000
vn 0.000000 1.000000 -0.000000
vn 0.000000 1.000000 -0.000000
vn 0.000000 1.000000 -0.000000
vn 0.000000 1.000000 -0.000000
vn 0.000000 1.000000 -0.000000
vn 0.000000 1.000000 -0.000000
vn 0.000000 1.000000 -0.000000
vn 0.000000 1.000000 -0.000000
vn 0.000000 1.000000 -0.000000
vn 0.000000 1.000000 -0.000000
vn 0.000000 1.000000 -0.000000
vn 0.000000 1.000000 -0.000000
vn 0.000000 1.000000 -0.000000
vn 0.000000 1.000000 -0.000000
vn 0.000000 1.000000 -0.000000
vn 0.000000 1.000000 -0.000000
vn 0.000000 1.000000 -0.000000
vn 0.000000 1.000000 -0.000000
vn 0.000000 1.000000 -0.000000
vn 0.000000 1.000000 -0.000000
vn 0.000000 1.000000 -0.000000
vn 0.000000 1.000000 -0.000000
vn 0.000000 1.000000 -0.000000
vn 0.000000 1.000000 -0.000000
vn 0.000000 1.000000 -0.000000
vn 0.000000 1.000000 -0.000000
vn 0.000000 1.000000 -0.000000
vn 0.000000 1.000000 -0.000000
vn 0.000000 1.000000 -0.000000
vn 0.000000 1.000000 -0.000000
vn 0.000000 1.000000 -0.000000
vn 0.000000 1.000000 -0.000000
vn 0.000000 1.000000 -0.000000
vn 0.000000 1.000000 -0.000000
vn 0.000000 1.000000 -0.000000
vn 0.000000 1.000000 -0.000000
vn 0.000000 1.000000 -0.000000
vn 0.000000 1.000000 -0.000000
vn 0.000000 1.000000 -0.000000
vn 0.000000 1.000000 -0.000000
vn 0.000000 1.000000 -0.000000
vn 0.000000 1.000000 -0.000000
vn 0.000000 1.000000 -0.000000
vn 0.000000 1.000000 -0.000000
vn 0.000000 1.000000 -0.000000
vn 0.000000 1.000000 -0.000000
vn 0.000000 1.000000 -0.000000
vn 0.000000 1.000000 -0.000000
vn 0.000000 1.000000 -0.000000
vn 0.000000 1.000000 -0.000000
vn 0.000000 1.000000 -0.000000
vn 0.000000 1.000000 -0.000000
vn 0.000000 1.000000 -0.000000
vn 0.000000 1.000000 -0.000000
vn 0.000000 1.000000 -0.000000
vn 0.000000 1.000000 -0.000000
vn 0.000000 1.000000 -0.000000
vn 0.000000 1.000000 -0.000000
vn 0.000000 1.000000 -0.000000
vn 0.000000 1.000000 -0.000000
vn 0.000000 1.000000 -0.000000
vn 0.000000 1.000000 -0.000000
vn 0.000000 1.000000 -0.000000
vn 0.000000 1.000000 -0.000000
vn 0.000000 1.000000 -0.000000
vn 0.000000 1.000000 -0.000000
vn 0.000000 1.000000 -0.000000
vn 0.000000 1.000000 -0.000000
vn 0.000000 1.000000 -0.000000
vn 0.000000 1.000000 -0.000000
vn 0.000000 1.000000 -0.000000
vn 0.000000 1.000000 -0.000000
vn 0.000000 1.000000 -0.000000
vn 0.000000 1.000000 -0.000000
vn 0.000000 1.000000 -0.000000
vn 0.000000 1.000000 -0.000000
vn 0.000000 1.000000 -0.000000
vn 0.000000 1.000000 -0.000000
vn 0.000000 1.000000 -0.000000
vn 0.000000 1.000000 -0.000000
vn 0.000000 1.000000 -0.000000
vn 0.000000 1.000000 -0.000000
vn 0.000000 1.000000 -0.000000
vn 0.000000 1.000000 -0.000000
vn 0.000000 1.000000 -0.000000
vn 0.000000 1.000000 -0.000000
vn 0.000000 1.000000 -0.000000
vn 0.000000 1.000000 -0.000000
vn 0.000000 1.000000 -0.000000
vn 0.000000 1.000000 -0.000000
vn 0.000000 1.000000 -0.000000
vn 0.000000 1.000000 -0.000000
vn 0.000000 1.000000 -0.000000
vn 0.000000 1.000000 -0.000000
vn 0.000000 1.000000 -0.000000
vn 0.000000 1.000000 -0.000000
vn 0.000000 1.000000 -0.000000
vn 0.000000 1.000000 -0.000000
vn 0.000000 1.000000 -0.000000
vn 0.000000 1.000000 -0.000000
vn 0.000000 1.000000 -0.000000
vn 0.000000 1.000000 -0.000000
vn 0.000000 1.000000 -0.000000
vn 0.000000 1.000000 -0.000000
vn 0.000000 1.000000 -0.000000
vn 0.000000 1.000000 -0.000000
vn 0.000000 1.000000 -0.000000
vn 0.000000 1.000000 -0.000000
vn 0.000000 1.000000 -0.000000
vn 0.000000 1.000000 -0.000000
vn 0.000000 1.000000 -0.000000
vn 0.000000 1.000000 -0.000000
vn 0.000000 1.000000 -0.000000
vn 0.000000 1.000000 -0.000000
vn 0.000000 1.000000 -0.000000
vn 0.000000 1.000000 -0.000000
vn 0.000000 1.000000 -0.000000
vn 0.000000 1.000000 -0.000000
vn 0.000000 1.000000 -0.000000
vn 0.000000 1.000000 -0.000000
vn 0.000000 1.000000 -0.000000
vn 0.000000 1.000000 -0.000000
vn 0.000000 1.000000 -0.000000
vn 0.000000 1.000000 -0.000000
vn 0.000000 1.000000 -0.000000
vn 0.000000 1.000000 -0.000000
vn 0.000000 1.000000 -0.000000
vn 0.000000 -1.000000 0.000000
vn -0.000000 -1.000000 0.000000
vn -0.000000 -1.000000 0.000000
vn -0.000000 -1.000000 0.000000
vn -0.000000 -1.000000 0.000000
vn -0.000000 -1.000000 0.000000
vn -0.000000 -1.000000 0.000000
vn -0.000000 -1.000000 0.000000
vn -0.000000 -1.000000 0.000000
vn -0.000000 -1.000000 0.000000
vn -0.000000 -1.000000 0.000000
vn -0.000000 -1.000000 0.000000
vn -0.000000 -1.000000 0.000000
vn -0.000000 -1.000000 0.000000
vn -0.000000 -1.000000 0.000000
vn -0.000000 -1.000000 0.000000
vn -0.000000 -1.000000 0.000000
vn -0.000000 -1.000000 0.000000
vn -0.000000 -1.000000 0.000000
vn -0.000000 -1.000000 0.000000
vn -0.000000 -1.000000 0.000000
vn -0.000000 -1.000000 0.000000
vn -0.000000 -1.000000 0.000000
vn -0.000000 -1.000000 0.000000
vn -0.000000 -1.000000 0.000000
vn -0.000000 -1.000000 0.000000
vn -0.000000 -1.000000 0.000000
vn 0.000000 -1.000000 0.000000
vn -0.000000 -1.000000 0.000000
vn -0.000000 -1.000000 0.000000
vn -0.000000 -1.000000 0.000000
vn 0.000000 -1.000000 0.000000
vn -0.000000 -1.000000 0.000000
vn -0.000000 -1.000000 0.000000
vn -0.000000 -1.000000 0.000000
vn 0.000000 -1.000000 0.000000
vn 0.000000 -1.000000 0.000000
vn 0.000000 -1.000000 0.000000
vn 0.000000 -1.000000 0.000000
vn -0.000000 -1.000000 0.000000
vn -0.000000 -1.000000 0.000000
vn -0.000000 -1.000000 0.000000
vn 0.000000 -1.000000 0.000000
vn 0.000000 -1.000000 0.000000
vn 0.000000 -1.000000 0.000000
vn 0.000000 -1.000000 0.000000
vn 0.000000 -1.000000 0.000000
vn -0.000000 -1.000000 0.000000
vn 0.000000 -1.000000 0.000000
vn 0.000000 -1.000000 0.000000
vn 0.000000 -1.000000 0.000000
vn 0.000000 -1.000000 0.000000
vn 0.000000 -1.000000 0.000000
vn 0.000000 -1.000000 0.000000
vn -0.000000 -1.000000 0.000000
vn 0.000000 -1.000000 0.000000
vn 0.000000 -1.000000 0.000000
vn 0.000000 -1.000000 0.000000
vn 0.000000 -1.000000 0.000000
vn 0.000000 -1.000000 0.000000
vn 0.000000 -1.000000 0.000000
vn -0.000000 -1.000000 0.000000
vn 0.000000 -1.000000 0.000000
vn 0.000000 -1.000000 0.000000
vn 0.000000 -1.000000 0.000000
vn 0.000000 -1.000000 0.000000
vn 0.000000 -1.000000 0.000000
vn -0.000000 -1.000000 0.000000
vn 0.000000 -1.000000 0.000000
vn 0.000000 -1.000000 0.000000
vn 0.000000 -1.000000 0.000000
vn 0.000000 -1.000000 0.000000
vn 0.000000 -1.000000 0.000000
vn 0.000000 -1.000000 0.000000
vn 0.000000 -1.000000 0.000000
vn 0.000000 -1.000000 0.000000
vn 0.000000 -1.000000 0.000000
vn 0.000000 -1.000000 0.000000
vn 0.000000 -1.000000 0.000000
vn 0.000000 -1.000000 0.000000
vn 0.000000 -1.000000 0.000000
vn 0.000000 -1.000000 0.000000
vn -0.000000 -1.000000 -0.000000
vn -0.000000 -1.000000 -0.000000
vn -0.000000 -1.000000 -0.000000
vn -0.000000 -1.000000 0.000000
vn 0.000000 -1.000000 0.000000
vn 0.000000 -1.000000 0.000000
vn 0.000000 -1.000000 0.000000
vn 0.000000 -1.000000 0.000000
vn 0.000000 -1.000000 0.000000
vn 0.000000 -1.000000 0.000000
vn 0.000000 -1.000000 0.000000
vn 0.000000 -1.000000 0.000000
vn 0.000000 -1.000000 0.000000
vn 0.000000 -1.000000 0.000000
vn 0.000000 -1.000000 0.000000
vn 0.000000 -1.000000 0.000000
vn 0.000000 -1.000000 0.000000
vn 0.000000 -1.000000 0.000000
vn 0.000000 -1.000000 0.000000
vn 0.000000 -1.000000 0.000000
vn 0.000000 -1.000000 0.000000
vn 0.000000 -1.000000 0.000000
vn 0.000000 -1.000000 0.000000
vn 0.000000 -1.000000 0.000000
vn 0.000000 -1.000000 0.000000
vn 0.000000 -1.000000 0.000000
vn 0.000000 -1.000000 0.000000
vn 0.000000 -1.000000 0.000000
vn 0.000000 -1.000000 0.000000
vn 0.000000 -1.000000 0.000000
vn 0.000000 -1.000000 0.000000
vn -0.000000 -1.000000 0.000000
vn -0.000000 -1.000000 0.000000
vn -0.000000 -1.000000 0.000000
vn 0.000000 -1.000000 0.000000
vn 0.000000 -1.000000 0.000000
vn 0.000000 -1.000000 0.000000
vn -0.000000 -1.000000 0.000000
vn -0.000000 -1.000000 0.000000
vn -0.000000 -1.000000 0.000000
vn -0.000000 -1.000000 0.000000
vn 0.000000 -1.000000 0.000000
vn 0.000000 -1.000000 0.000000
vn 0.000000 -1.000000 0.000000
vn 0.000000 -1.000000 0.000000
vn -0.000000 -1.000000 0.000000
vn -0.000000 -1.000000 0.000000
vn -0.000000 -1.000000 0.000000
vn -0.000000 -1.000000 0.000000
vn -0.000000 -1.000000 0.000000
vn 0.000000 -1.000000 0.000000
vn 0.000000 -1.000000 0.000000
vn 0.000000 -1.000000 0.000000
vn -0.000000 -1.000000 0.000000
vn -0.000000 -1.000000 0.000000
vn -0.000000 -1.000000 0.000000
vn -0.000000 -1.000000 0.000000
vn -0.000000 -1.000000 0.000000
vn 0.000000 -1.000000 0.000000
vn 0.000000 -1.000000 0.000000
vn -0.000000 -1.000000 0.000000
vn -0.000000 -1.000000 0.000000
vn -0.000000 -1.000000 0.000000
vn -0.000000 -1.000000 0.000000
vn 0.000000 -1.000000 0.000000
vn 0.000000 -1.000000 0.000000
vn 0.000000 -1.000000 0.000000
vn 0.000000 -1.000000 0.000000
vn 0.000000 -1.000000 0.000000
vn 0.000000 -1.000000 0.000000
vn 0.000000 -1.000000 0.000000
vn 0.000000 -1.000000 0.000000
vn 0.000000 -1.000000 0.000000
vn 0.000000 -1.000000 0.000000
vn 0.000000 -1.000000 0.000000
vn 0.000000 -1.000000 0.000000
vn 0.000000 -1.000000 0.000000
vn 0.000000 -1.000000 0.000000
vn 0.000000 -1.000000 0.000000
vn 0.000000 -1.000000 0.000000
vn 0.000000 -1.000000 0.000000
vn 0.000000 -1.000000 0.000000
vn 0.000000 -1.000000 0.000000
vn 0.000000 -1.000000 0.000000
vn 0.000000 -1.000000 0.000000
vn 0.000000 -1.000000 0.000000
vn 0.000000 -1.000000 0.000000
vn -0.000000 -1.000000 0.000000
vn -0.000000 -1.000000 0.000000
vn 0.000000 -1.000000 0.000000
vn 0.000000 -1.000000 0.000000
vn 0.000000 -1.000000 0.000000
vn 0.000000 -1.000000 0.000000
vn 0.000000 -1.000000 0.000000
vn 0.000000 -1.000000 0.000000
vn 0.000000 -1.000000 0.000000
vn 0.000000 -1.000000 0.000000
vn 0.000000 -1.000000 0.000000
vn 0.000000 -1.000000 0.000000
vn 0.000000 -1.000000 0.000000
vn 0.000000 -1.000000 0.000000
vn 0.000000 -1.000000 0.000000
vn 0.000000 -1.000000 0.000000
vn 0.000000 -1.000000 0.000000
vn 0.000000 -1.000000 0.000000
vn 0.000000 -1.000000 0.000000
vn 0.000000 -1.000000 0.000000
vn 0.000000 -1.000000 0.000000
vn 0.000000 -1.000000 0.000000
vn 0.000000 -1.000000 0.000000
vn 0.000000 -1.000000 0.000000
vn 0.000000 -1.000000 0.000000
vn 0.000000 -1.000000 0.000000
vn 0.000000 -1.000000 0.000000
vn 0.000000 -1.000000 0.000000
vn 0.000000 -1.000000 0.000000
vn 0.000000 -1.000000 0.000000
vn 0.000000 -1.000000 0.000000
vn 0.000000 -1.000000 0.000000
vn 0.000000 -1.000000 0.000000
vn 0.000000 -1.000000 0.000000
vn 0.000000 -1.000000 0.000000
vn 0.000000 -1.000000 0.000000
vn 0.000000 -1.000000 0.000000
vn 0.000000 -1.000000 0.000000
vn 0.000000 -1.000000 0.000000
vn 0.000000 -1.000000 0.000000
vn 0.000000 -1.000000 0.000000
vn 0.000000 -1.000000 0.000000
vn -0.000000 -1.000000 0.000000
vn 0.000000 -1.000000 0.000000
vn 0.000000 -1.000000 0.000000
vn 0.000000 -1.000000 0.000000
vn 0.000000 -1.000000 0.000000
vn 0.000000 -1.000000 0.000000
vn 0.000000 -1.000000 0.000000
vn 0.000000 -1.000000 0.000000
vn 0.000000 -1.000000 0.000000
vn 0.000000 -1.000000 0.000000
vn 0.000000 -1.000000 0.000000
vn 0.000000 -1.000000 0.000000
vn 0.000000 -1.000000 0.000000
vn 0.000000 -1.000000 0.000000
vn 0.000000 -1.000000 0.000000
f 1//1 2//1 3//1
f 1//2 3//2 4//2
f 1//3 4//3 5//3
f 6//4 5//4 7//4
f 6//5 1//5 5//5
f 8//6 6//6 7//6
f 9//7 7//7 10//7
f 9//8 8//8 7//8
f 11//9 10//9 12//9
f 11//10 12//10 13//10
f 11//11 9//11 10//11
f 14//12 11//12 13//12
f 15//13 13//13 16//13
f 15//14 16//14 17//14
f 15//15 14//15 13//15
f 18//16 15//16 17//16
f 19//17 17//17 20//17
f 19//18 20//18 21//18
f 19//19 18//19 17//19
f 22//20 19//20 21//20
f 23//21 21//21 24//21
f 23//22 22//22 21//22
f 25//23 24//23 26//23
f 25//24 23//24 24//24
f 27//25 26//25 28//25
f 27//26 25//26 26//26
f 29//27 28//27 30//27
f 29//28 27//28 28//28
f 31//29 30//29 32//29
f 31//30 32//30 33//30
f 31//31 29//31 30//31
f 34//32 31//32 33//32
f 35//33 34//33 33//33
f 35//34 33//34 36//34
f 35//35 36//35 37//35
f 38//36 35//36 37//36
f 39//37 38//37 37//37
f 39//38 37//38 40//38
f 41//39 39//39 40//39
f 41//40 40//40 42//40
f 41//41 42//41 43//41
f 44//42 41//42 43//42
f 45//43 44//43 43//43
f 45//44 43//44 46//44
f 47//45 45//45 46//45
f 47//46 46//46 48//46
f 49//47 48//47 50//47
f 49//48 47//48 48//48
f 51//49 50//49 52//49
f 51//50 52//50 53//50
f 51//51 49//51 50//51
f 54//52 51//52 53//52
f 55//53 53//53 56//53
f 55//54 56//54 57//54
f 55//55 54//55 53//55
f 58//56 55//56 57//56
f 59//57 57//57 60//57
f 59//58 58//58 57//58
f 61//59 60//59 62//59
f 61//60 59//60 60//60
f 63//61 62//61 64//61
f 63//62 64//62 65//62
f 63//63 61//63 62//63
f 66//64 63//64 65//64
f 67//65 65//65 68//65
f 67//66 66//66 65//66
f 69//67 68//67 70//67
f 69//68 67//68 68//68
f 71//69 70//69 72//69
f 71//70 69//70 70//70
f 73//71 72//71 74//71
f 73//72 71//72 72//72
f 75//73 74//73 76//73
f 75//74 73//74 74//74
f 77//75 76//75 78//75
f 77//76 75//76 76//76
f 79//77 78//77 80//77
f 79//78 77//78 78//78
f 81//79 80//79 82//79
f 81//80 82//80 83//80
f 81//81 79//81 80//81
f 84//82 81//82 83//82
f 85//83 83//83 86//83
f 85//84 84//84 83//84
f 87//85 85//85 86//85
f 87//86 86//86 88//86
f 87//87 88//87 89//87
f 90//88 87//88 89//88
f 91//89 90//89 89//89
f 91//90 89//90 92//90
f 93//91 91//91 92//91
f 93//92 92//92 94//92
f 93//93 94//93 95//93
f 96//94 93//94 95//94
f 97//95 96//95 95//95
f 97//96 95//96 98//96
f 99//97 97//97 98//97
f 99//98 98//98 100//98
f 101//99 99//99 100//99
f 101//100 100//100 102//100
f 103//101 101//101 102//101
f 103//102 102//102 104//102
f 105//103 103//103 104//103
f 105//104 104//104 106//104
f 107//105 105//105 106//105
f 107//106 106//106 108//106
f 109//107 107//107 108//107
f 109//108 108//108 110//108
f 111//109 109//109 110//109
f 111//110 110//110 112//110
f 113//111 111//111 112//111
f 113//112 112//112 114//112
f 115//113 114//113 116//113
f 115//114 113//114 114//114
f 117//115 116//115 118//115
f 117//116 115//116 116//116
f 119//117 118//117 120//117
f 119//118 117//118 118//118
f 121//119 120//119 122//119
f 121//120 122//120 123//120
f 121//121 119//121 120//121
f 124//122 121//122 123//122
f 125//123 123//123 126//123
f 125//124 124//124 123//124
f 127//125 126//125 449//125
f 127//126 125//126 126//126
f 2//127 128//127 3//127
f 3//128 128//128 453//128
f 129//129 130//129 131//129
f 129//130 131//130 132//130
f 129//131 132//131 133//131
f 134//132 133//132 135//132
f 134//133 129//133 133//133
f 136//134 134//134 135//134
f 137//135 135//135 138//135
f 137//136 136//136 135//136
f 139//137 138//137 140//137
f 139//138 140//138 141//138
f 139//139 137//139 138//139
f 142//140 139//140 141//140
f 143//141 141//141 144//141
f 143//142 144//142 145//142
f 143//143 142//143 141//143
f 146//144 143//144 145//144
f 147//145 145//145 148//145
f 147//146 148//146 149//146
f 147//147 146//147 145//147
f 150//148 147//148 149//148
f 151//149 149//149 152//149
f 151//150 150//150 149//150
f 153//151 152//151 154//151
f 153//152 151//152 152//152
f 155//153 154//153 156//153
f 155//154 153//154 154//154
f 157//155 156//155 158//155
f 157//156 155//156 156//156
f 159//157 158//157 160//157
f 159//158 160//158 161//158
f 159//159 157//159 158//159
f 162//160 159//160 161//160
f 163//161 162//161 161//161
f 163//162 161//162 164//162
f 163//163 164//163 165//163
f 166//164 163//164 165//164
f 167//165 166//165 165//165
f 167//166 165//166 168//166
f 169//167 167//167 168//167
f 169//168 168//168 170//168
f 169//169 170//169 171//169
f 172//170 169//170 171//170
f 173//171 172//171 171//171
f 173//172 171//172 174//172
f 175//173 173//173 174//173
f 175//174 174//174 176//174
f 177//175 176//175 178//175
f 177//176 175//176 176//176
f 179//177 178//177 180//177
f 179//178 180//178 181//178
f 179//179 177//179 178//179
f 182//180 179//180 181//180
f 183//181 181//181 184//181
f 183//182 184//182 185//182
f 183//183 182//183 181//183
f 186//184 183//184 185//184
f 187//185 185//185 188//185
f 187//186 186//186 185//186
f 189//187 188//187 190//187
f 189//188 187//188 188//188
f 191//189 190//189 192//189
f 191//190 192//190 193//190
f 191//191 189//191 190//191
f 194//192 191//192 193//192
f 195//193 193//193 196//193
f 195//194 194//194 193//194
f 197//195 196//195 198//195
f 197//196 195//196 196//196
f 199//197 198//197 200//197
f 199//198 197//198 198//198
f 201//199 200//199 202//199
f 201//200 199//200 200//200
f 203//201 202//201 204//201
f 203//202 201//202 202//202
f 205//203 204//203 206//203
f 205//204 203//204 204//204
f 207//205 206//205 208//205
f 207//206 205//206 206//206
f 209//207 208//207 210//207
f 209//208 210//208 211//208
f 209//209 207//209 208//209
f 212//210 209//210 211//210
f 213//211 211//211 214//211
f 213//212 212//212 211//212
f 215//213 213//213 214//213
f 215//214 214//214 216//214
f 215//215 216//215 217//215
f 218//216 215//216 217//216
f 219//217 218//217 217//217
f 219//218 217//218 220//218
f 221//219 219//219 220//219
f 221//220 220//220 222//220
f 221//221 222//221 223//221
f 224//222 221//222 223//222
f 225//223 224//223 223//223
f 225//224 223//224 226//224
f 227//225 225//225 226//225
f 227//226 226//226 228//226
f 229//227 227//227 228//227
f 229//228 228//228 230//228
f 231//229 229//229 230//229
f 231//230 230//230 232//230
f 233//231 231//231 232//231
f 233//232 232//232 234//232
f 235//233 233//233 234//233
f 235//234 234//234 236//234
f 237//235 235//235 236//235
f 237//236 236//236 238//236
f 239//237 237//237 238//237
f 239//238 238//238 240//238
f 241//239 239//239 240//239
f 241//240 240//240 242//240
f 243//241 242//241 244//241
f 243//242 241//242 242//242
f 245//243 244//243 246//243
f 245//244 243//244 244//244
f 247//245 246//245 248//245
f 247//246 245//246 246//246
f 249//247 248//247 250//247
f 249//248 250//248 251//248
f 249//249 247//249 248//249
f 252//250 249//250 251//250
f 253//251 251//251 254//251
f 253//252 252//252 251//252
f 128//253 254//253 453//253
f 128//254 253//254 254//254
f 130//255 255//255 131//255
f 131//256 255//256 455//256
f 255//257 256//257 455//257
f 455//258 256//258 257//258
f 256//259 258//259 257//259
f 257//260 258//260 456//260
f 258//261 259//261 456//261
f 456//262 259//262 260//262
f 259//263 261//263 260//263
f 260//264 261//264 262//264
f 261//265 263//265 262//265
f 262//266 263//266 264//266
f 264//267 265//267 266//267
f 263//268 265//268 264//268
f 266//269 267//269 268//269
f 265//270 267//270 266//270
f 268//271 269//271 270//271
f 270//272 269//272 271//272
f 267//273 269//273 268//273
f 269//274 272//274 271//274
f 271//275 273//275 274//275
f 272//276 273//276 271//276
f 274//277 275//277 276//277
f 273//278 275//278 274//278
f 276//279 277//279 278//279
f 278//280 277//280 279//280
f 275//281 277//281 276//281
f 277//282 280//282 279//282
f 279//283 281//283 282//283
f 282//284 281//284 283//284
f 280//285 281//285 279//285
f 281//286 284//286 283//286
f 283//287 285//287 286//287
f 286//288 285//288 287//288
f 284//289 285//289 283//289
f 285//290 288//290 287//290
f 288//291 289//291 287//291
f 287//292 289//292 290//292
f 291//293 292//293 293//293
f 294//294 291//294 293//294
f 295//295 293//295 296//295
f 295//296 294//296 293//296
f 297//297 296//297 298//297
f 297//298 295//298 296//298
f 299//299 298//299 300//299
f 299//300 297//300 298//300
f 301//301 300//301 302//301
f 301//302 302//302 303//302
f 301//303 299//303 300//303
f 304//304 301//304 303//304
f 305//305 303//305 306//305
f 305//306 306//306 307//306
f 305//307 304//307 303//307
f 308//308 305//308 307//308
f 309//309 307//309 310//309
f 309//310 310//310 311//310
f 309//311 308//311 307//311
f 312//312 309//312 311//312
f 313//313 311//313 314//313
f 313//314 314//314 315//314
f 313//315 312//315 311//315
f 316//316 313//316 315//316
f 317//317 315//317 318//317
f 317//318 316//318 315//318
f 319//319 318//319 320//319
f 319//320 317//320 318//320
f 321//321 320//321 322//321
f 321//322 322//322 323//322
f 321//323 319//323 320//323
f 324//324 321//324 323//324
f 325//325 323//325 326//325
f 325//326 324//326 323//326
f 327//327 325//327 326//327
f 327//328 326//328 328//328
f 329//329 327//329 328//329
f 329//330 328//330 330//330
f 329//331 330//331 331//331
f 332//332 329//332 331//332
f 333//333 332//333 331//333
f 333//334 331//334 334//334
f 335//335 333//335 334//335
f 335//336 334//336 336//336
f 337//337 336//337 338//337
f 337//338 335//338 336//338
f 337//339 338//339 339//339
f 340//340 337//340 339//340
f 341//341 340//341 339//341
f 341//342 339//342 342//342
f 343//343 342//343 344//343
f 343//344 341//344 342//344
f 345//345 344//345 346//345
f 345//346 346//346 347//346
f 345//347 343//347 344//347
f 348//348 345//348 347//348
f 349//349 347//349 350//349
f 349//350 348//350 347//350
f 351//351 350//351 352//351
f 351//352 349//352 350//352
f 353//353 352//353 354//353
f 353//354 354//354 355//354
f 353//355 351//355 352//355
f 356//356 355//356 357//356
f 356//357 353//357 355//357
f 358//358 356//358 357//358
f 359//359 357//359 360//359
f 359//360 360//360 361//360
f 359//361 358//361 357//361
f 362//362 359//362 361//362
f 363//363 361//363 364//363
f 363//364 364//364 365//364
f 363//365 362//365 361//365
f 366//366 363//366 365//366
f 367//367 365//367 368//367
f 367//368 368//368 369//368
f 367//369 366//369 365//369
f 370//370 369//370 371//370
f 370//371 367//371 369//371
f 372//372 370//372 371//372
f 373//373 371//373 374//373
f 373//374 374//374 375//374
f 373//375 372//375 371//375
f 376//376 373//376 375//376
f 377//377 376//377 375//377
f 377//378 375//378 378//378
f 377//379 378//379 379//379
f 380//380 377//380 379//380
f 381//381 380//381 379//381
f 381//382 379//382 382//382
f 381//383 382//383 383//383
f 384//384 381//384 383//384
f 385//385 384//385 383//385
f 385//386 383//386 386//386
f 385//387 386//387 387//387
f 388//388 385//388 387//388
f 389//389 388//389 387//389
f 389//390 387//390 390//390
f 391//391 389//391 390//391
f 391//392 390//392 392//392
f 393//393 391//393 392//393
f 393//394 392//394 394//394
f 393//395 394//395 395//395
f 396//396 393//396 395//396
f 397//397 396//397 395//397
f 397//398 395//398 398//398
f 399//399 397//399 398//399
f 399//400 398//400 400//400
f 401//401 399//401 400//401
f 401//402 400//402 402//402
f 401//403 402//403 403//403
f 404//404 401//404 403//404
f 405//405 403//405 406//405
f 405//406 404//406 403//406
f 407//407 406//407 408//407
f 407//408 405//408 406//408
f 409//409 408//409 410//409
f 409//410 407//410 408//410
f 411//411 410//411 412//411
f 411//412 409//412 410//412
f 413//413 412//413 414//413
f 413//414 411//414 412//414
f 415//415 414//415 416//415
f 415//416 416//416 290//416
f 415//417 413//417 414//417
f 289//418 415//418 290//418
f 291//419 417//419 418//419
f 291//420 418//420 292//420
f 417//421 419//421 418//421
f 418//422 419//422 420//422
f 420//423 421//423 422//423
f 419//424 421//424 420//424
f 422//425 423//425 424//425
f 421//426 423//426 422//426
f 424//427 425//427 426//427
f 426//428 425//428 427//428
f 423//429 425//429 424//429
f 425//430 428//430 427//430
f 427//431 429//431 430//431
f 428//432 429//432 427//432
f 430//433 431//433 432//433
f 429//434 431//434 430//434
f 432//435 433//435 434//435
f 434//436 433//436 435//436
f 431//437 433//437 432//437
f 433//438 436//438 435//438
f 435//439 437//439 438//439
f 438//440 437//440 439//440
f 436//441 437//441 435//441
f 437//442 440//442 439//442
f 439//443 441//443 442//443
f 440//444 441//444 439//444
f 442//445 443//445 452//445
f 441//446 443//446 442//446
f 443//447 444//447 451//447
f 443//448 451//448 452//448
f 444//449 445//449 454//449
f 444//450 454//450 451//450
f 445//451 446//451 450//451
f 445//452 450//452 454//452
f 446//453 447//453 448//453
f 446//454 448//454 450//454
f 447//455 127//455 449//455
f 447//456 449//456 448//456
f 125//457 127//457 447//457
f 124//458 125//458 447//458
f 121//459 124//459 447//459
f 119//460 121//460 447//460
f 117//461 119//461 447//461
f 115//462 117//462 447//462
f 113//463 115//463 447//463
f 111//464 113//464 447//464
f 109//465 111//465 447//465
f 107//466 109//466 447//466
f 105//467 107//467 447//467
f 103//468 105//468 447//468
f 101//469 103//469 447//469
f 99//470 101//470 447//470
f 97//471 99//471 447//471
f 96//472 97//472 447//472
f 93//473 96//473 447//473
f 324//474 85//474 87//474
f 324//475 87//475 90//475
f 324//476 90//476 91//476
f 321//477 91//477 93//477
f 321//478 324//478 91//478
f 321//479 93//479 447//479
f 325//480 77//480 79//480
f 325//481 79//481 81//481
f 325//482 81//482 84//482
f 325//483 84//483 85//483
f 325//484 85//484 324//484
f 319//485 321//485 447//485
f 327//486 73//486 75//486
f 327//487 75//487 77//487
f 327//488 77//488 325//488
f 327//489 69//489 71//489
f 327//490 71//490 73//490
f 317//491 319//491 447//491
f 329//492 69//492 327//492
f 329//493 59//493 61//493
f 329//494 61//494 63//494
f 329//495 63//495 66//495
f 329//496 66//496 67//496
f 329//497 67//497 69//497
f 316//498 317//498 447//498
f 332//499 59//499 329//499
f 332//500 51//500 54//500
f 332//501 54//501 55//501
f 332//502 55//502 58//502
f 332//503 58//503 59//503
f 313//504 316//504 447//504
f 333//505 41//505 44//505
f 333//506 44//506 45//506
f 333//507 45//507 47//507
f 333//508 47//508 49//508
f 333//509 49//509 51//509
f 333//510 51//510 332//510
f 312//511 313//511 447//511
f 335//512 41//512 333//512
f 335//513 31//513 34//513
f 335//514 34//514 35//514
f 335//515 35//515 38//515
f 335//516 38//516 39//516
f 335//517 39//517 41//517
f 309//518 312//518 447//518
f 337//519 23//519 25//519
f 337//520 25//520 27//520
f 337//521 27//521 29//521
f 337//522 29//522 31//522
f 337//523 31//523 335//523
f 308//524 309//524 447//524
f 340//525 14//525 15//525
f 340//526 15//526 18//526
f 340//527 18//527 19//527
f 340//528 19//528 22//528
f 340//529 22//529 23//529
f 340//530 23//530 337//530
f 341//531 14//531 340//531
f 341//532 6//532 8//532
f 341//533 8//533 9//533
f 341//534 9//534 11//534
f 341//535 11//535 14//535
f 343//536 6//536 341//536
f 343//537 2//537 1//537
f 343//538 1//538 6//538
f 446//539 301//539 304//539
f 446//540 304//540 305//540
f 446//541 305//541 308//541
f 446//542 308//542 447//542
f 345//543 2//543 343//543
f 299//544 301//544 446//544
f 348//545 2//545 345//545
f 297//546 299//546 446//546
f 349//547 2//547 348//547
f 295//548 297//548 446//548
f 351//549 2//549 349//549
f 294//550 295//550 446//550
f 353//551 2//551 351//551
f 291//552 294//552 446//552
f 441//553 444//553 443//553
f 128//554 2//554 353//554
f 128//555 353//555 356//555
f 128//556 356//556 358//556
f 128//557 358//557 359//557
f 128//558 359//558 362//558
f 128//559 362//559 363//559
f 128//560 363//560 366//560
f 253//561 128//561 366//561
f 252//562 253//562 366//562
f 252//563 366//563 367//563
f 249//564 252//564 367//564
f 247//565 249//565 367//565
f 245//566 247//566 367//566
f 440//567 444//567 441//567
f 243//568 245//568 367//568
f 370//569 243//569 367//569
f 370//570 237//570 239//570
f 370//571 239//571 241//571
f 370//572 241//572 243//572
f 235//573 237//573 370//573
f 233//574 235//574 370//574
f 437//575 444//575 440//575
f 372//576 225//576 227//576
f 372//577 227//577 229//577
f 372//578 229//578 231//578
f 372//579 231//579 233//579
f 372//580 233//580 370//580
f 445//581 291//581 446//581
f 436//582 444//582 437//582
f 373//583 225//583 372//583
f 373//584 215//584 218//584
f 373//585 218//585 219//585
f 373//586 219//586 221//586
f 373//587 221//587 224//587
f 373//588 224//588 225//588
f 433//589 445//589 444//589
f 433//590 444//590 436//590
f 431//591 445//591 433//591
f 376//592 205//592 207//592
f 376//593 207//593 209//593
f 376//594 209//594 212//594
f 376//595 212//595 213//595
f 376//596 213//596 215//596
f 376//597 215//597 373//597
f 429//598 445//598 431//598
f 377//599 197//599 199//599
f 377//600 199//600 201//600
f 377//601 201//601 203//601
f 377//602 203//602 205//602
f 377//603 205//603 376//603
f 428//604 445//604 429//604
f 255//605 130//605 129//605
f 255//606 129//606 134//606
f 255//607 134//607 136//607
f 255//608 136//608 137//608
f 255//609 137//609 139//609
f 255//610 139//610 142//610
f 255//611 142//611 143//611
f 255//612 143//612 146//612
f 255//613 146//613 147//613
f 255//614 147//614 150//614
f 255//615 150//615 151//615
f 255//616 151//616 153//616
f 255//617 153//617 155//617
f 255//618 155//618 157//618
f 255//619 157//619 159//619
f 255//620 159//620 162//620
f 255//621 162//621 163//621
f 380//622 197//622 377//622
f 380//623 187//623 189//623
f 380//624 189//624 191//624
f 380//625 191//625 194//625
f 380//626 194//626 195//626
f 380//627 195//627 197//627
f 425//628 445//628 428//628
f 423//629 445//629 425//629
f 381//630 187//630 380//630
f 381//631 179//631 182//631
f 381//632 182//632 183//632
f 381//633 183//633 186//633
f 381//634 186//634 187//634
f 421//635 445//635 423//635
f 384//636 172//636 173//636
f 384//637 173//637 175//637
f 384//638 175//638 177//638
f 384//639 177//639 179//639
f 384//640 179//640 381//640
f 419//641 445//641 421//641
f 417//642 445//642 419//642
f 417//643 291//643 445//643
f 385//644 166//644 167//644
f 385//645 167//645 169//645
f 385//646 169//646 172//646
f 385//647 172//647 384//647
f 388//648 166//648 385//648
f 388//649 163//649 166//649
f 388//650 255//650 163//650
f 389//651 255//651 388//651
f 391//652 255//652 389//652
f 393//653 255//653 391//653
f 396//654 255//654 393//654
f 397//655 255//655 396//655
f 399//656 255//656 397//656
f 401//657 255//657 399//657
f 256//658 255//658 401//658
f 256//659 401//659 404//659
f 256//660 404//660 405//660
f 256//661 405//661 407//661
f 256//662 407//662 409//662
f 256//663 409//663 411//663
f 256//664 411//664 413//664
f 256//665 413//665 415//665
f 256//666 415//666 289//666
f 258//667 256//667 289//667
f 288//668 258//668 289//668
f 285//669 258//669 288//669
f 284//670 258//670 285//670
f 281//671 258//671 284//671
f 280//672 258//672 281//672
f 277//673 258//673 280//673
f 275//674 258//674 277//674
f 273//675 258//675 275//675
f 272//676 258//676 273//676
f 269//677 258//677 272//677
f 267//678 258//678 269//678
f 265//679 258//679 267//679
f 265//680 259//680 258//680
f 263//681 259//681 265//681
f 261//682 259//682 263//682
f 449//683 126//683 448//683
f 126//684 123//684 448//684
f 123//685 122//685 448//685
f 122//686 120//686 448//686
f 120//687 118//687 448//687
f 118//688 116//688 448//688
f 116//689 114//689 448//689
f 114//690 112//690 448//690
f 112//691 110//691 448//691
f 110//692 108//692 448//692
f 108//693 106//693 448//693
f 106//694 104//694 448//694
f 104//695 102//695 448//695
f 102//696 100//696 448//696
f 100//697 98//697 448//697
f 98//698 95//698 448//698
f 95//699 94//699 448//699
f 86//700 323//700 88//700
f 88//701 323//701 89//701
f 89//702 323//702 92//702
f 92//703 322//703 94//703
f 323//704 322//704 92//704
f 94//705 322//705 448//705
f 78//706 326//706 80//706
f 80//707 326//707 82//707
f 82//708 326//708 83//708
f 83//709 326//709 86//709
f 86//710 326//710 323//710
f 322//711 320//711 448//711
f 74//712 328//712 76//712
f 76//713 328//713 78//713
f 78//714 328//714 326//714
f 70//715 328//715 72//715
f 72//716 328//716 74//716
f 320//717 318//717 448//717
f 70//718 330//718 328//718
f 60//719 330//719 62//719
f 62//720 330//720 64//720
f 64//721 330//721 65//721
f 65//722 330//722 68//722
f 68//723 330//723 70//723
f 318//724 315//724 448//724
f 60//725 331//725 330//725
f 52//726 331//726 53//726
f 53//727 331//727 56//727
f 56//728 331//728 57//728
f 57//729 331//729 60//729
f 315//730 314//730 448//730
f 42//731 334//731 43//731
f 43//732 334//732 46//732
f 46//733 334//733 48//733
f 48//734 334//734 50//734
f 50//735 334//735 52//735
f 52//736 334//736 331//736
f 314//737 311//737 448//737
f 42//738 336//738 334//738
f 32//739 336//739 33//739
f 33//740 336//740 36//740
f 36//741 336//741 37//741
f 37//742 336//742 40//742
f 40//743 336//743 42//743
f 311//744 310//744 448//744
f 32//745 338//745 336//745
f 24//746 338//746 26//746
f 26//747 338//747 28//747
f 28//748 338//748 30//748
f 30//749 338//749 32//749
f 310//750 307//750 448//750
f 13//751 339//751 16//751
f 16//752 339//752 17//752
f 17//753 339//753 20//753
f 20//754 339//754 21//754
f 21//755 339//755 24//755
f 24//756 339//756 338//756
f 13//757 342//757 339//757
f 5//758 342//758 7//758
f 7//759 342//759 10//759
f 10//760 342//760 12//760
f 12//761 342//761 13//761
f 5//762 344//762 342//762
f 3//763 344//763 4//763
f 4//764 344//764 5//764
f 302//765 450//765 303//765
f 303//766 450//766 306//766
f 306//767 450//767 307//767
f 307//768 450//768 448//768
f 3//769 346//769 344//769
f 302//770 300//770 450//770
f 3//771 347//771 346//771
f 300//772 298//772 450//772
f 3//773 350//773 347//773
f 298//774 296//774 450//774
f 3//775 352//775 350//775
f 296//776 293//776 450//776
f 3//777 354//777 352//777
f 293//778 292//778 450//778
f 451//779 442//779 452//779
f 3//780 453//780 354//780
f 354//781 453//781 355//781
f 355//782 453//782 357//782
f 357//783 453//783 360//783
f 360//784 453//784 361//784
f 361//785 453//785 364//785
f 364//786 453//786 365//786
f 453//787 254//787 365//787
f 254//788 251//788 365//788
f 365//789 251//789 368//789
f 251//790 250//790 368//790
f 250//791 248//791 368//791
f 248//792 246//792 368//792
f 451//793 439//793 442//793
f 246//794 244//794 368//794
f 244//795 369//795 368//795
f 238//796 369//796 240//796
f 240//797 369//797 242//797
f 242//798 369//798 244//798
f 238//799 236//799 369//799
f 236//800 234//800 369//800
f 451//801 438//801 439//801
f 226//802 371//802 228//802
f 228//803 371//803 230//803
f 230//804 371//804 232//804
f 232//805 371//805 234//805
f 234//806 371//806 369//806
f 292//807 454//807 450//807
f 451//808 435//808 438//808
f 226//809 374//809 371//809
f 216//810 374//810 217//810
f 217//811 374//811 220//811
f 220//812 374//812 222//812
f 222//813 374//813 223//813
f 223//814 374//814 226//814
f 454//815 434//815 451//815
f 451//816 434//816 435//816
f 454//817 432//817 434//817
f 206//818 375//818 208//818
f 208//819 375//819 210//819
f 210//820 375//820 211//820
f 211//821 375//821 214//821
f 214//822 375//822 216//822
f 216//823 375//823 374//823
f 454//824 430//824 432//824
f 198//825 378//825 200//825
f 200//826 378//826 202//826
f 202//827 378//827 204//827
f 204//828 378//828 206//828
f 206//829 378//829 375//829
f 454//830 427//830 430//830
f 131//831 455//831 132//831
f 132//832 455//832 133//832
f 133//833 455//833 135//833
f 135//834 455//834 138//834
f 138//835 455//835 140//835
f 140//836 455//836 141//836
f 141//837 455//837 144//837
f 144//838 455//838 145//838
f 145//839 455//839 148//839
f 148//840 455//840 149//840
f 149//841 455//841 152//841
f 152//842 455//842 154//842
f 154//843 455//843 156//843
f 156//844 455//844 158//844
f 158//845 455//845 160//845
f 160//846 455//846 161//846
f 161//847 455//847 164//847
f 198//848 379//848 378//848
f 188//849 379//849 190//849
f 190//850 379//850 192//850
f 192//851 379//851 193//851
f 193//852 379//852 196//852
f 196//853 379//853 198//853
f 454//854 426//854 427//854
f 454//855 424//855 426//855
f 188//856 382//856 379//856
f 180//857 382//857 181//857
f 181//858 382//858 184//858
f 184//859 382//859 185//859
f 185//860 382//860 188//860
f 454//861 422//861 424//861
f 171//862 383//862 174//862
f 174//863 383//863 176//863
f 176//864 383//864 178//864
f 178//865 383//865 180//865
f 180//866 383//866 382//866
f 454//867 420//867 422//867
f 454//868 418//868 420//868
f 292//869 418//869 454//869
f 165//870 386//870 168//870
f 168//871 386//871 170//871
f 170//872 386//872 171//872
f 171//873 386//873 383//873
f 165//874 387//874 386//874
f 164//875 387//875 165//875
f 455//876 387//876 164//876
f 455//877 390//877 387//877
f 455//878 392//878 390//878
f 455//879 394//879 392//879
f 455//880 395//880 394//880
f 455//881 398//881 395//881
f 455//882 400//882 398//882
f 455//883 402//883 400//883
f 455//884 257//884 402//884
f 402//885 257//885 403//885
f 403//886 257//886 406//886
f 406//887 257//887 408//887
f 408//888 257//888 410//888
f 410//889 257//889 412//889
f 412//890 257//890 414//890
f 414//891 257//891 416//891
f 416//892 257//892 290//892
f 257//893 456//893 290//893
f 456//894 287//894 290//894
f 456//895 286//895 287//895
f 456//896 283//896 286//896
f 456//897 282//897 283//897
f 456//898 279//898 282//898
f 456//899 278//899 279//899
f 456//900 276//900 278//900
f 456//901 274//901 276//901
f 456//902 271//902 274//902
f 456//903 270//903 271//903
f 456//904 268//904 270//904
f 456//905 266//905 268//905
f 260//906 266//906 456//906
f 260//907 264//907 266//907
f 260//908 262//908 264//908
