# Created by FreeCAD <https://www.freecad.org>
v 15.000000 0.000000 0.000000
v 14.981354 0.747688 0.000000
v 15.000000 0.000000 5100.000000
v 14.981354 0.747688 5100.000000
v 14.925462 1.493518 0.000000
v 14.925462 1.493518 5100.000000
v 14.832462 2.235634 5100.000000
v 14.832462 2.235634 0.000000
v 14.702587 2.972192 0.000000
v 14.702587 2.972192 5100.000000
v 14.536160 3.701361 0.000000
v 14.536160 3.701361 5100.000000
v 14.333592 4.421328 5100.000000
v 14.333592 4.421328 0.000000
v 14.095389 5.130302 0.000000
v 14.095389 5.130302 5100.000000
v 13.822144 5.826522 0.000000
v 13.822144 5.826522 5100.000000
v 13.514533 6.508256 5100.000000
v 13.514533 6.508256 0.000000
v 13.173324 7.173810 0.000000
v 13.173324 7.173810 5100.000000
v 12.799363 7.821528 0.000000
v 12.799363 7.821528 5100.000000
v 12.393581 8.449800 0.000000
v 12.393581 8.449800 5100.000000
v 11.956987 9.057066 0.000000
v 11.956987 9.057066 5100.000000
v 11.490666 9.641814 5100.000000
v 11.490666 9.641814 0.000000
v 10.995778 10.202591 0.000000
v 10.995778 10.202591 5100.000000
v 10.473553 10.738003 0.000000
v 10.473553 10.738003 5100.000000
v 9.925287 11.246718 5100.000000
v 9.925287 11.246718 0.000000
v 9.352347 11.727472 0.000000
v 9.352347 11.727472 5100.000000
v 8.756155 12.179070 0.000000
v 8.756155 12.179070 5100.000000
v 8.138194 12.600389 0.000000
v 8.138194 12.600389 5100.000000
v 7.500000 12.990381 0.000000
v 7.500000 12.990381 5100.000000
v 6.843160 13.348077 0.000000
v 6.843160 13.348077 5100.000000
v 6.169307 13.672587 0.000000
v 6.169307 13.672587 5100.000000
v 5.480115 13.963106 0.000000
v 5.480115 13.963106 5100.000000
v 4.777300 14.218910 0.000000
v 4.777300 14.218910 5100.000000
v 4.062607 14.439363 0.000000
v 4.062607 14.439363 5100.000000
v 3.337814 14.623919 0.000000
v 3.337814 14.623919 5100.000000
v 2.604723 14.772117 0.000000
v 2.604723 14.772117 5100.000000
v 1.865156 14.883588 0.000000
v 1.865156 14.883588 5100.000000
v 1.120951 14.958057 0.000000
v 1.120951 14.958057 5100.000000
v 0.373960 14.995337 0.000000
v 0.373960 14.995337 5100.000000
v -0.373960 14.995337 0.000000
v -0.373960 14.995337 5100.000000
v -1.120951 14.958057 0.000000
v -1.120951 14.958057 5100.000000
v -1.865156 14.883588 0.000000
v -1.865156 14.883588 5100.000000
v -2.604723 14.772117 0.000000
v -2.604723 14.772117 5100.000000
v -3.337814 14.623919 0.000000
v -3.337814 14.623919 5100.000000
v -4.062607 14.439363 0.000000
v -4.062607 14.439363 5100.000000
v -4.777300 14.218910 0.000000
v -4.777300 14.218910 5100.000000
v -5.480115 13.963106 0.000000
v -5.480115 13.963106 5100.000000
v -6.169307 13.672587 0.000000
v -6.169307 13.672587 5100.000000
v -6.843160 13.348077 0.000000
v -6.843160 13.348077 5100.000000
v -7.500000 12.990381 5100.000000
v -7.500000 12.990381 0.000000
v -8.138194 12.600389 0.000000
v -8.138194 12.600389 5100.000000
v -8.756155 12.179070 0.000000
v -8.756155 12.179070 5100.000000
v -9.352347 11.727472 0.000000
v -9.352347 11.727472 5100.000000
v -9.925287 11.246718 5100.000000
v -9.925287 11.246718 0.000000
v -10.473553 10.738003 5100.000000
v -10.473553 10.738003 0.000000
v -10.995778 10.202591 0.000000
v -10.995778 10.202591 5100.000000
v -11.490666 9.641814 5100.000000
v -11.490666 9.641814 0.000000
v -11.956987 9.057066 0.000000
v -11.956987 9.057066 5100.000000
v -12.393581 8.449800 0.000000
v -12.393581 8.449800 5100.000000
v -12.799363 7.821528 5100.000000
v -12.799363 7.821528 0.000000
v -13.173324 7.173810 0.000000
v -13.173324 7.173810 5100.000000
v -13.514533 6.508256 0.000000
v -13.514533 6.508256 5100.000000
v -13.822144 5.826522 0.000000
v -13.822144 5.826522 5100.000000
v -14.095389 5.130302 5100.000000
v -14.095389 5.130302 0.000000
v -14.333592 4.421328 0.000000
v -14.333592 4.421328 5100.000000
v -14.536160 3.701361 0.000000
v -14.536160 3.701361 5100.000000
v -14.702587 2.972192 0.000000
v -14.702587 2.972192 5100.000000
v -14.832462 2.235634 0.000000
v -14.832462 2.235634 5100.000000
v -14.925462 1.493518 5100.000000
v -14.925462 1.493518 0.000000
v -14.981354 0.747688 0.000000
v -14.981354 0.747688 5100.000000
v -15.000000 -0.000000 5100.000000
v -15.000000 -0.000000 0.000000
v -14.981354 -0.747688 0.000000
v -14.981354 -0.747688 5100.000000
v -14.925462 -1.493518 5100.000000
v -14.925462 -1.493518 0.000000
v -14.832462 -2.235634 5100.000000
v -14.832462 -2.235634 0.000000
v -14.702587 -2.972192 0.000000
v -14.702587 -2.972192 5100.000000
v -14.536160 -3.701361 0.000000
v -14.536160 -3.701361 5100.000000
v -14.333592 -4.421328 0.000000
v -14.333592 -4.421328 5100.000000
v -14.095389 -5.130302 0.000000
v -14.095389 -5.130302 5100.000000
v -13.822144 -5.826522 0.000000
v -13.822144 -5.826522 5100.000000
v -13.514533 -6.508256 5100.000000
v -13.514533 -6.508256 0.000000
v -13.173324 -7.173810 5100.000000
v -13.173324 -7.173810 0.000000
v -12.799363 -7.821528 0.000000
v -12.799363 -7.821528 5100.000000
v -12.393581 -8.449800 0.000000
v -12.393581 -8.449800 5100.000000
v -11.956987 -9.057066 5100.000000
v -11.956987 -9.057066 0.000000
v -11.490666 -9.641814 5100.000000
v -11.490666 -9.641814 0.000000
v -10.995778 -10.202591 0.000000
v -10.995778 -10.202591 5100.000000
v -10.473553 -10.738003 0.000000
v -10.473553 -10.738003 5100.000000
v -9.925287 -11.246718 5100.000000
v -9.925287 -11.246718 0.000000
v -9.352347 -11.727472 5100.000000
v -9.352347 -11.727472 0.000000
v -8.756155 -12.179070 0.000000
v -8.756155 -12.179070 5100.000000
v -8.138194 -12.600389 0.000000
v -8.138194 -12.600389 5100.000000
v -7.500000 -12.990381 5100.000000
v -7.500000 -12.990381 0.000000
v -6.843160 -13.348077 5100.000000
v -6.843160 -13.348077 0.000000
v -6.169307 -13.672587 0.000000
v -6.169307 -13.672587 5100.000000
v -5.480115 -13.963106 0.000000
v -5.480115 -13.963106 5100.000000
v -4.777300 -14.218910 0.000000
v -4.777300 -14.218910 5100.000000
v -4.062607 -14.439363 0.000000
v -4.062607 -14.439363 5100.000000
v -3.337814 -14.623919 0.000000
v -3.337814 -14.623919 5100.000000
v -2.604723 -14.772117 0.000000
v -2.604723 -14.772117 5100.000000
v -1.865156 -14.883588 0.000000
v -1.865156 -14.883588 5100.000000
v -1.120951 -14.958057 5100.000000
v -1.120951 -14.958057 0.000000
v -0.373960 -14.995337 0.000000
v -0.373960 -14.995337 5100.000000
v 0.373960 -14.995337 0.000000
v 0.373960 -14.995337 5100.000000
v 1.120951 -14.958057 0.000000
v 1.120951 -14.958057 5100.000000
v 1.865156 -14.883588 0.000000
v 1.865156 -14.883588 5100.000000
v 2.604723 -14.772117 0.000000
v 2.604723 -14.772117 5100.000000
v 3.337814 -14.623919 0.000000
v 3.337814 -14.623919 5100.000000
v 4.062607 -14.439363 0.000000
v 4.062607 -14.439363 5100.000000
v 4.777300 -14.218910 0.000000
v 4.777300 -14.218910 5100.000000
v 5.480115 -13.963106 0.000000
v 5.480115 -13.963106 5100.000000
v 6.169307 -13.672587 5100.000000
v 6.169307 -13.672587 0.000000
v 6.843160 -13.348077 0.000000
v 6.843160 -13.348077 5100.000000
v 7.500000 -12.990381 0.000000
v 7.500000 -12.990381 5100.000000
v 8.138194 -12.600389 0.000000
v 8.138194 -12.600389 5100.000000
v 8.756155 -12.179070 0.000000
v 8.756155 -12.179070 5100.000000
v 9.352347 -11.727472 0.000000
v 9.352347 -11.727472 5100.000000
v 9.925287 -11.246718 0.000000
v 9.925287 -11.246718 5100.000000
v 10.473553 -10.738003 0.000000
v 10.473553 -10.738003 5100.000000
v 10.995778 -10.202591 0.000000
v 10.995778 -10.202591 5100.000000
v 11.490666 -9.641814 0.000000
v 11.490666 -9.641814 5100.000000
v 11.956987 -9.057066 0.000000
v 11.956987 -9.057066 5100.000000
v 12.393581 -8.449800 5100.000000
v 12.393581 -8.449800 0.000000
v 12.799363 -7.821528 0.000000
v 12.799363 -7.821528 5100.000000
v 13.173324 -7.173810 5100.000000
v 13.173324 -7.173810 0.000000
v 13.514533 -6.508256 0.000000
v 13.514533 -6.508256 5100.000000
v 13.822144 -5.826522 5100.000000
v 13.822144 -5.826522 0.000000
v 14.095389 -5.130302 0.000000
v 14.095389 -5.130302 5100.000000
v 14.333592 -4.421328 0.000000
v 14.333592 -4.421328 5100.000000
v 14.536160 -3.701361 0.000000
v 14.536160 -3.701361 5100.000000
v 14.702587 -2.972192 0.000000
v 14.702587 -2.972192 5100.000000
v 14.832462 -2.235634 0.000000
v 14.832462 -2.235634 5100.000000
v 14.925462 -1.493518 0.000000
v 14.925462 -1.493518 5100.000000
v 14.981354 -0.747688 0.000000
v 14.981354 -0.747688 5100.000000
v 11.985083 0.598151 0.000000
v 12.000000 0.000000 0.000000
v 12.000000 0.000000 5100.000000
v 11.985083 0.598151 5100.000000
v 11.940370 1.194814 0.000000
v 11.940370 1.194814 5100.000000
v 11.865970 1.788507 5100.000000
v 11.865970 1.788507 0.000000
v 11.762070 2.377754 0.000000
v 11.762070 2.377754 5100.000000
v 11.628927 2.961089 0.000000
v 11.628927 2.961089 5100.000000
v 11.466874 3.537062 5100.000000
v 11.466874 3.537062 0.000000
v 11.276312 4.104242 0.000000
v 11.276312 4.104242 5100.000000
v 11.057714 4.661218 0.000000
v 11.057714 4.661218 5100.000000
v 10.811626 5.206605 5100.000000
v 10.811626 5.206605 0.000000
v 10.538659 5.739048 0.000000
v 10.538659 5.739048 5100.000000
v 10.239491 6.257223 0.000000
v 10.239491 6.257223 5100.000000
v 9.914865 6.759840 0.000000
v 9.914865 6.759840 5100.000000
v 9.565590 7.245653 0.000000
v 9.565590 7.245653 5100.000000
v 9.192533 7.713451 5100.000000
v 9.192533 7.713451 0.000000
v 8.796622 8.162073 0.000000
v 8.796622 8.162073 5100.000000
v 8.378841 8.590403 0.000000
v 8.378841 8.590403 5100.000000
v 7.940230 8.997375 5100.000000
v 7.940230 8.997375 0.000000
v 7.481878 9.381978 0.000000
v 7.481878 9.381978 5100.000000
v 7.004924 9.743256 0.000000
v 7.004924 9.743256 5100.000000
v 6.510555 10.080311 0.000000
v 6.510555 10.080311 5100.000000
v 6.000000 10.392304 0.000000
v 6.000000 10.392304 5100.000000
v 5.474528 10.678462 0.000000
v 5.474528 10.678462 5100.000000
v 4.935445 10.938070 0.000000
v 4.935445 10.938070 5100.000000
v 4.384092 11.170485 0.000000
v 4.384092 11.170485 5100.000000
v 3.821840 11.375128 0.000000
v 3.821840 11.375128 5100.000000
v 3.250086 11.551491 0.000000
v 3.250086 11.551491 5100.000000
v 2.670251 11.699135 0.000000
v 2.670251 11.699135 5100.000000
v 2.083778 11.817693 0.000000
v 2.083778 11.817693 5100.000000
v 1.492124 11.906871 0.000000
v 1.492124 11.906871 5100.000000
v 0.896761 11.966446 0.000000
v 0.896761 11.966446 5100.000000
v 0.299168 11.996270 0.000000
v 0.299168 11.996270 5100.000000
v -0.299168 11.996270 0.000000
v -0.299168 11.996270 5100.000000
v -0.896761 11.966446 0.000000
v -0.896761 11.966446 5100.000000
v -1.492124 11.906871 0.000000
v -1.492124 11.906871 5100.000000
v -2.083778 11.817693 0.000000
v -2.083778 11.817693 5100.000000
v -2.670251 11.699135 0.000000
v -2.670251 11.699135 5100.000000
v -3.250086 11.551491 0.000000
v -3.250086 11.551491 5100.000000
v -3.821840 11.375128 0.000000
v -3.821840 11.375128 5100.000000
v -4.384092 11.170485 0.000000
v -4.384092 11.170485 5100.000000
v -4.935445 10.938070 0.000000
v -4.935445 10.938070 5100.000000
v -5.474528 10.678462 0.000000
v -5.474528 10.678462 5100.000000
v -6.000000 10.392304 5100.000000
v -6.000000 10.392304 0.000000
v -6.510555 10.080311 0.000000
v -6.510555 10.080311 5100.000000
v -7.004924 9.743256 0.000000
v -7.004924 9.743256 5100.000000
v -7.481878 9.381978 0.000000
v -7.481878 9.381978 5100.000000
v -7.940230 8.997375 5100.000000
v -7.940230 8.997375 0.000000
v -8.378841 8.590403 5100.000000
v -8.378841 8.590403 0.000000
v -8.796622 8.162073 0.000000
v -8.796622 8.162073 5100.000000
v -9.192533 7.713451 5100.000000
v -9.192533 7.713451 0.000000
v -9.565590 7.245653 0.000000
v -9.565590 7.245653 5100.000000
v -9.914865 6.759840 0.000000
v -9.914865 6.759840 5100.000000
v -10.239491 6.257223 5100.000000
v -10.239491 6.257223 0.000000
v -10.538659 5.739048 0.000000
v -10.538659 5.739048 5100.000000
v -10.811626 5.206605 0.000000
v -10.811626 5.206605 5100.000000
v -11.057714 4.661218 0.000000
v -11.057714 4.661218 5100.000000
v -11.276312 4.104242 5100.000000
v -11.276312 4.104242 0.000000
v -11.466874 3.537062 0.000000
v -11.466874 3.537062 5100.000000
v -11.628927 2.961089 0.000000
v -11.628927 2.961089 5100.000000
v -11.762070 2.377754 0.000000
v -11.762070 2.377754 5100.000000
v -11.865970 1.788507 0.000000
v -11.865970 1.788507 5100.000000
v -11.940370 1.194814 5100.000000
v -11.940370 1.194814 0.000000
v -11.985083 0.598151 0.000000
v -11.985083 0.598151 5100.000000
v -12.000000 -0.000000 5100.000000
v -12.000000 -0.000000 0.000000
v -11.985083 -0.598151 0.000000
v -11.985083 -0.598151 5100.000000
v -11.940370 -1.194814 5100.000000
v -11.940370 -1.194814 0.000000
v -11.865970 -1.788507 5100.000000
v -11.865970 -1.788507 0.000000
v -11.762070 -2.377754 0.000000
v -11.762070 -2.377754 5100.000000
v -11.628927 -2.961089 0.000000
v -11.628927 -2.961089 5100.000000
v -11.466874 -3.537062 0.000000
v -11.466874 -3.537062 5100.000000
v -11.276312 -4.104242 0.000000
v -11.276312 -4.104242 5100.000000
v -11.057714 -4.661218 0.000000
v -11.057714 -4.661218 5100.000000
v -10.811626 -5.206605 5100.000000
v -10.811626 -5.206605 0.000000
v -10.538659 -5.739048 5100.000000
v -10.538659 -5.739048 0.000000
v -10.239491 -6.257223 0.000000
v -10.239491 -6.257223 5100.000000
v -9.914865 -6.759840 0.000000
v -9.914865 -6.759840 5100.000000
v -9.565590 -7.245653 5100.000000
v -9.565590 -7.245653 0.000000
v -9.192533 -7.713451 5100.000000
v -9.192533 -7.713451 0.000000
v -8.796622 -8.162073 0.000000
v -8.796622 -8.162073 5100.000000
v -8.378841 -8.590403 0.000000
v -8.378841 -8.590403 5100.000000
v -7.940230 -8.997375 5100.000000
v -7.940230 -8.997375 0.000000
v -7.481878 -9.381978 5100.000000
v -7.481878 -9.381978 0.000000
v -7.004924 -9.743256 0.000000
v -7.004924 -9.743256 5100.000000
v -6.510555 -10.080311 0.000000
v -6.510555 -10.080311 5100.000000
v -6.000000 -10.392304 5100.000000
v -6.000000 -10.392304 0.000000
v -5.474528 -10.678462 5100.000000
v -5.474528 -10.678462 0.000000
v -4.935445 -10.938070 0.000000
v -4.935445 -10.938070 5100.000000
v -4.384092 -11.170485 0.000000
v -4.384092 -11.170485 5100.000000
v -3.821840 -11.375128 0.000000
v -3.821840 -11.375128 5100.000000
v -3.250086 -11.551491 0.000000
v -3.250086 -11.551491 5100.000000
v -2.670251 -11.699135 0.000000
v -2.670251 -11.699135 5100.000000
v -2.083778 -11.817693 0.000000
v -2.083778 -11.817693 5100.000000
v -1.492124 -11.906871 0.000000
v -1.492124 -11.906871 5100.000000
v -0.896761 -11.966446 5100.000000
v -0.896761 -11.966446 0.000000
v -0.299168 -11.996270 0.000000
v -0.299168 -11.996270 5100.000000
v 0.299168 -11.996270 0.000000
v 0.299168 -11.996270 5100.000000
v 0.896761 -11.966446 0.000000
v 0.896761 -11.966446 5100.000000
v 1.492124 -11.906871 0.000000
v 1.492124 -11.906871 5100.000000
v 2.083778 -11.817693 0.000000
v 2.083778 -11.817693 5100.000000
v 2.670251 -11.699135 0.000000
v 2.670251 -11.699135 5100.000000
v 3.250086 -11.551491 0.000000
v 3.250086 -11.551491 5100.000000
v 3.821840 -11.375128 0.000000
v 3.821840 -11.375128 5100.000000
v 4.384092 -11.170485 0.000000
v 4.384092 -11.170485 5100.000000
v 4.935445 -10.938070 5100.000000
v 4.935445 -10.938070 0.000000
v 5.474528 -10.678462 0.000000
v 5.474528 -10.678462 5100.000000
v 6.000000 -10.392304 0.000000
v 6.000000 -10.392304 5100.000000
v 6.510555 -10.080311 0.000000
v 6.510555 -10.080311 5100.000000
v 7.004924 -9.743256 0.000000
v 7.004924 -9.743256 5100.000000
v 7.481878 -9.381978 0.000000
v 7.481878 -9.381978 5100.000000
v 7.940230 -8.997375 0.000000
v 7.940230 -8.997375 5100.000000
v 8.378841 -8.590403 0.000000
v 8.378841 -8.590403 5100.000000
v 8.796622 -8.162073 0.000000
v 8.796622 -8.162073 5100.000000
v 9.192533 -7.713451 0.000000
v 9.192533 -7.713451 5100.000000
v 9.565590 -7.245653 0.000000
v 9.565590 -7.245653 5100.000000
v 9.914865 -6.759840 5100.000000
v 9.914865 -6.759840 0.000000
v 10.239491 -6.257223 0.000000
v 10.239491 -6.257223 5100.000000
v 10.538659 -5.739048 5100.000000
v 10.538659 -5.739048 0.000000
v 10.811626 -5.206605 0.000000
v 10.811626 -5.206605 5100.000000
v 11.057714 -4.661218 5100.000000
v 11.057714 -4.661218 0.000000
v 11.276312 -4.104242 0.000000
v 11.276312 -4.104242 5100.000000
v 11.466874 -3.537062 0.000000
v 11.466874 -3.537062 5100.000000
v 11.628927 -2.961089 0.000000
v 11.628927 -2.961089 5100.000000
v 11.762070 -2.377754 0.000000
v 11.762070 -2.377754 5100.000000
v 11.865970 -1.788507 0.000000
v 11.865970 -1.788507 5100.000000
v 11.940370 -1.194814 0.000000
v 11.940370 -1.194814 5100.000000
v 11.985083 -0.598151 0.000000
v 11.985083 -0.598151 5100.000000
vn 0.999689 0.024931 -0.000000
vn 0.999689 0.024931 0.000000
vn 0.997204 0.074730 0.000000
vn 0.992239 0.124344 0.000000
vn 0.997204 0.074730 -0.000000
vn 0.992239 0.124344 0.000000
vn 0.984808 0.173648 0.000000
vn 0.984808 0.173648 -0.000000
vn 0.974928 0.222520 0.000000
vn 0.962624 0.270840 0.000000
vn 0.974928 0.222520 -0.000000
vn 0.962624 0.270840 0.000000
vn 0.947927 0.318487 0.000000
vn 0.947927 0.318487 -0.000000
vn 0.930874 0.365341 0.000000
vn 0.911506 0.411288 0.000000
vn 0.930874 0.365341 -0.000000
vn 0.911506 0.411288 0.000000
vn 0.889872 0.456211 0.000000
vn 0.889872 0.456211 -0.000000
vn 0.866025 0.500000 -0.000000
vn 0.866025 0.500000 0.000000
vn 0.840026 0.542547 -0.000000
vn 0.840026 0.542547 0.000000
vn 0.811938 0.583744 -0.000000
vn 0.811938 0.583744 0.000000
vn 0.781832 0.623490 0.000000
vn 0.781832 0.623490 0.000000
vn 0.749781 0.661686 0.000000
vn 0.749781 0.661686 -0.000000
vn 0.715867 0.698236 0.000000
vn 0.680172 0.733052 0.000000
vn 0.715867 0.698236 -0.000000
vn 0.680172 0.733052 0.000000
vn 0.642788 0.766044 0.000000
vn 0.642788 0.766044 -0.000000
vn 0.603804 0.797133 0.000000
vn 0.603804 0.797133 -0.000000
vn 0.563320 0.826239 0.000000
vn 0.563320 0.826239 -0.000000
vn 0.521436 0.853291 0.000000
vn 0.521436 0.853291 -0.000000
vn 0.478253 0.878222 0.000000
vn 0.478253 0.878222 -0.000000
vn 0.433884 0.900969 0.000000
vn 0.433884 0.900969 -0.000000
vn 0.388435 0.921476 0.000000
vn 0.388435 0.921476 -0.000000
vn 0.342020 0.939693 0.000000
vn 0.342020 0.939693 -0.000000
vn 0.294755 0.955573 0.000000
vn 0.294755 0.955573 -0.000000
vn 0.246758 0.969077 0.000000
vn 0.246758 0.969077 -0.000000
vn 0.198147 0.980172 0.000000
vn 0.198147 0.980172 -0.000000
vn 0.149041 0.988831 0.000000
vn 0.149041 0.988831 -0.000000
vn 0.099569 0.995031 0.000000
vn 0.099569 0.995031 -0.000000
vn 0.049845 0.998757 0.000000
vn 0.049845 0.998757 -0.000000
vn 0.000000 1.000000 0.000000
vn 0.000000 1.000000 -0.000000
vn -0.049845 0.998757 0.000000
vn -0.049845 0.998757 0.000000
vn -0.099569 0.995031 0.000000
vn -0.099569 0.995031 0.000000
vn -0.149041 0.988831 0.000000
vn -0.149041 0.988831 0.000000
vn -0.198147 0.980172 0.000000
vn -0.198147 0.980172 0.000000
vn -0.246758 0.969077 0.000000
vn -0.246758 0.969077 0.000000
vn -0.294755 0.955573 0.000000
vn -0.294755 0.955573 0.000000
vn -0.342020 0.939693 0.000000
vn -0.342020 0.939693 0.000000
vn -0.388435 0.921476 0.000000
vn -0.388435 0.921476 0.000000
vn -0.433884 0.900969 0.000000
vn -0.433884 0.900969 0.000000
vn -0.478253 0.878222 0.000000
vn -0.478253 0.878222 0.000000
vn -0.521436 0.853291 0.000000
vn -0.521436 0.853291 0.000000
vn -0.563320 0.826239 0.000000
vn -0.563320 0.826239 0.000000
vn -0.603804 0.797133 0.000000
vn -0.603804 0.797133 0.000000
vn -0.642788 0.766044 0.000000
vn -0.642788 0.766044 0.000000
vn -0.680172 0.733052 0.000000
vn -0.680172 0.733052 0.000000
vn -0.715867 0.698236 0.000000
vn -0.715867 0.698236 0.000000
vn -0.749781 0.661686 0.000000
vn -0.749781 0.661686 0.000000
vn -0.781832 0.623490 0.000000
vn -0.781832 0.623490 0.000000
vn -0.811938 0.583744 0.000000
vn -0.840026 0.542547 0.000000
vn -0.811938 0.583744 0.000000
vn -0.840026 0.542547 0.000000
vn -0.866025 0.500000 0.000000
vn -0.866025 0.500000 0.000000
vn -0.889872 0.456211 0.000000
vn -0.889872 0.456211 0.000000
vn -0.911506 0.411288 0.000000
vn -0.930874 0.365341 0.000000
vn -0.911506 0.411288 0.000000
vn -0.930874 0.365341 0.000000
vn -0.947927 0.318487 0.000000
vn -0.947927 0.318487 0.000000
vn -0.962624 0.270840 0.000000
vn -0.962624 0.270840 0.000000
vn -0.974928 0.222520 0.000000
vn -0.974928 0.222520 0.000000
vn -0.984808 0.173648 0.000000
vn -0.992239 0.124344 0.000000
vn -0.984808 0.173648 0.000000
vn -0.992239 0.124344 0.000000
vn -0.997204 0.074730 0.000000
vn -0.997204 0.074730 0.000000
vn -0.999689 0.024931 0.000000
vn -0.999689 0.024931 0.000000
vn -0.999689 -0.024931 0.000000
vn -0.999689 -0.024931 0.000000
vn -0.997204 -0.074730 -0.000000
vn -0.997204 -0.074730 0.000000
vn -0.992239 -0.124344 -0.000000
vn -0.992239 -0.124344 0.000000
vn -0.984808 -0.173648 0.000000
vn -0.984808 -0.173648 0.000000
vn -0.974928 -0.222520 0.000000
vn -0.974928 -0.222520 0.000000
vn -0.962624 -0.270840 0.000000
vn -0.962624 -0.270840 0.000000
vn -0.947927 -0.318487 0.000000
vn -0.947927 -0.318487 0.000000
vn -0.930874 -0.365341 0.000000
vn -0.930874 -0.365341 0.000000
vn -0.911506 -0.411288 -0.000000
vn -0.911506 -0.411288 0.000000
vn -0.889872 -0.456211 -0.000000
vn -0.889872 -0.456211 0.000000
vn -0.866025 -0.500000 0.000000
vn -0.866025 -0.500000 0.000000
vn -0.840026 -0.542547 0.000000
vn -0.840026 -0.542547 0.000000
vn -0.811938 -0.583744 -0.000000
vn -0.811938 -0.583744 0.000000
vn -0.781832 -0.623490 -0.000000
vn -0.781832 -0.623490 0.000000
vn -0.749781 -0.661686 0.000000
vn -0.749781 -0.661686 0.000000
vn -0.715867 -0.698236 0.000000
vn -0.715867 -0.698236 0.000000
vn -0.680172 -0.733052 -0.000000
vn -0.680172 -0.733052 0.000000
vn -0.642788 -0.766044 -0.000000
vn -0.642788 -0.766044 0.000000
vn -0.603804 -0.797133 0.000000
vn -0.603804 -0.797133 0.000000
vn -0.563320 -0.826239 0.000000
vn -0.563320 -0.826239 0.000000
vn -0.521436 -0.853291 -0.000000
vn -0.478253 -0.878222 -0.000000
vn -0.521436 -0.853291 0.000000
vn -0.478253 -0.878222 0.000000
vn -0.433884 -0.900969 0.000000
vn -0.433884 -0.900969 0.000000
vn -0.388435 -0.921476 0.000000
vn -0.388435 -0.921476 0.000000
vn -0.342020 -0.939693 0.000000
vn -0.342020 -0.939693 0.000000
vn -0.294755 -0.955573 0.000000
vn -0.294755 -0.955573 0.000000
vn -0.246758 -0.969077 0.000000
vn -0.246758 -0.969077 0.000000
vn -0.198147 -0.980172 0.000000
vn -0.198147 -0.980172 0.000000
vn -0.149041 -0.988831 0.000000
vn -0.149041 -0.988831 0.000000
vn -0.099569 -0.995031 -0.000000
vn -0.099569 -0.995031 0.000000
vn -0.049845 -0.998757 0.000000
vn -0.049845 -0.998757 0.000000
vn 0.000000 -1.000000 0.000000
vn 0.000000 -1.000000 0.000000
vn 0.049845 -0.998757 0.000000
vn 0.049845 -0.998757 0.000000
vn 0.099569 -0.995031 0.000000
vn 0.099569 -0.995031 0.000000
vn 0.149041 -0.988831 0.000000
vn 0.149041 -0.988831 0.000000
vn 0.198147 -0.980172 0.000000
vn 0.198147 -0.980172 0.000000
vn 0.246758 -0.969077 0.000000
vn 0.246758 -0.969077 0.000000
vn 0.294755 -0.955573 0.000000
vn 0.294755 -0.955573 0.000000
vn 0.342020 -0.939693 0.000000
vn 0.388435 -0.921476 0.000000
vn 0.342020 -0.939693 0.000000
vn 0.388435 -0.921476 0.000000
vn 0.433884 -0.900969 0.000000
vn 0.433884 -0.900969 0.000000
vn 0.478253 -0.878222 0.000000
vn 0.478253 -0.878222 0.000000
vn 0.521436 -0.853291 0.000000
vn 0.521436 -0.853291 0.000000
vn 0.563320 -0.826239 0.000000
vn 0.563320 -0.826239 0.000000
vn 0.603804 -0.797133 0.000000
vn 0.603804 -0.797133 0.000000
vn 0.642788 -0.766044 0.000000
vn 0.642788 -0.766044 0.000000
vn 0.680172 -0.733052 0.000000
vn 0.680172 -0.733052 0.000000
vn 0.715867 -0.698236 0.000000
vn 0.715867 -0.698236 0.000000
vn 0.749781 -0.661686 0.000000
vn 0.749781 -0.661686 0.000000
vn 0.781832 -0.623490 0.000000
vn 0.781832 -0.623490 0.000000
vn 0.811938 -0.583744 0.000000
vn 0.811938 -0.583744 0.000000
vn 0.840026 -0.542547 0.000000
vn 0.866025 -0.500000 0.000000
vn 0.840026 -0.542547 0.000000
vn 0.866025 -0.500000 0.000000
vn 0.889872 -0.456211 0.000000
vn 0.889872 -0.456211 0.000000
vn 0.911506 -0.411288 0.000000
vn 0.911506 -0.411288 0.000000
vn 0.930874 -0.365341 0.000000
vn 0.930874 -0.365341 0.000000
vn 0.947927 -0.318487 0.000000
vn 0.947927 -0.318487 0.000000
vn 0.962624 -0.270840 0.000000
vn 0.962624 -0.270840 0.000000
vn 0.974928 -0.222520 0.000000
vn 0.974928 -0.222520 0.000000
vn 0.984808 -0.173648 0.000000
vn 0.984808 -0.173648 0.000000
vn 0.992239 -0.124344 0.000000
vn 0.992239 -0.124344 0.000000
vn 0.997204 -0.074730 0.000000
vn 0.999689 -0.024931 0.000000
vn 0.997204 -0.074730 0.000000
vn 0.999689 -0.024931 0.000000
vn -0.999689 -0.024931 0.000000
vn -0.999689 -0.024931 0.000000
vn -0.997204 -0.074729 0.000000
vn -0.992239 -0.124345 0.000000
vn -0.997204 -0.074729 0.000000
vn -0.992239 -0.124345 0.000000
vn -0.984808 -0.173648 0.000000
vn -0.984808 -0.173648 0.000000
vn -0.974928 -0.222521 0.000000
vn -0.962625 -0.270839 0.000000
vn -0.974928 -0.222521 0.000000
vn -0.962625 -0.270839 0.000000
vn -0.947927 -0.318487 0.000000
vn -0.947927 -0.318487 0.000000
vn -0.930874 -0.365342 0.000000
vn -0.911506 -0.411287 0.000000
vn -0.930874 -0.365342 0.000000
vn -0.911506 -0.411287 0.000000
vn -0.889872 -0.456211 0.000000
vn -0.889872 -0.456211 0.000000
vn -0.866025 -0.500000 0.000000
vn -0.866025 -0.500000 0.000000
vn -0.840026 -0.542546 0.000000
vn -0.840026 -0.542546 0.000000
vn -0.811938 -0.583744 0.000000
vn -0.811938 -0.583744 0.000000
vn -0.781832 -0.623490 0.000000
vn -0.781832 -0.623490 0.000000
vn -0.749781 -0.661686 0.000000
vn -0.749781 -0.661686 0.000000
vn -0.715867 -0.698237 0.000000
vn -0.680173 -0.733052 0.000000
vn -0.715867 -0.698237 0.000000
vn -0.680173 -0.733052 0.000000
vn -0.642788 -0.766044 0.000000
vn -0.642788 -0.766044 0.000000
vn -0.603804 -0.797133 0.000000
vn -0.603804 -0.797133 0.000000
vn -0.563320 -0.826239 0.000000
vn -0.563320 -0.826239 0.000000
vn -0.521435 -0.853291 0.000000
vn -0.521435 -0.853291 0.000000
vn -0.478255 -0.878221 0.000000
vn -0.478255 -0.878221 0.000000
vn -0.433883 -0.900969 0.000000
vn -0.433883 -0.900969 0.000000
vn -0.388434 -0.921477 0.000000
vn -0.388434 -0.921477 0.000000
vn -0.342020 -0.939693 0.000000
vn -0.342020 -0.939693 0.000000
vn -0.294755 -0.955573 0.000000
vn -0.294755 -0.955573 0.000000
vn -0.246757 -0.969077 0.000000
vn -0.246757 -0.969077 0.000000
vn -0.198146 -0.980173 0.000000
vn -0.198146 -0.980173 0.000000
vn -0.149043 -0.988831 0.000000
vn -0.149043 -0.988831 0.000000
vn -0.099568 -0.995031 0.000000
vn -0.099568 -0.995031 0.000000
vn -0.049845 -0.998757 0.000000
vn -0.049845 -0.998757 0.000000
vn 0.000000 -1.000000 0.000000
vn 0.000000 -1.000000 0.000000
vn 0.049845 -0.998757 0.000000
vn 0.049845 -0.998757 0.000000
vn 0.099568 -0.995031 0.000000
vn 0.099568 -0.995031 0.000000
vn 0.149043 -0.988831 0.000000
vn 0.149043 -0.988831 0.000000
vn 0.198146 -0.980173 0.000000
vn 0.198146 -0.980173 0.000000
vn 0.246757 -0.969077 0.000000
vn 0.246757 -0.969077 0.000000
vn 0.294755 -0.955573 0.000000
vn 0.294755 -0.955573 0.000000
vn 0.342020 -0.939693 0.000000
vn 0.342020 -0.939693 0.000000
vn 0.388434 -0.921477 0.000000
vn 0.388434 -0.921477 0.000000
vn 0.433883 -0.900969 0.000000
vn 0.433883 -0.900969 0.000000
vn 0.478255 -0.878221 0.000000
vn 0.478255 -0.878221 0.000000
vn 0.521435 -0.853291 0.000000
vn 0.521435 -0.853291 0.000000
vn 0.563320 -0.826239 0.000000
vn 0.563320 -0.826239 0.000000
vn 0.603804 -0.797133 0.000000
vn 0.603804 -0.797133 0.000000
vn 0.642788 -0.766044 0.000000
vn 0.642788 -0.766044 0.000000
vn 0.680173 -0.733052 0.000000
vn 0.680173 -0.733052 0.000000
vn 0.715867 -0.698237 0.000000
vn 0.715867 -0.698237 0.000000
vn 0.749781 -0.661686 0.000000
vn 0.749781 -0.661686 0.000000
vn 0.781832 -0.623490 0.000000
vn 0.781832 -0.623490 0.000000
vn 0.811938 -0.583744 0.000000
vn 0.840026 -0.542546 0.000000
vn 0.811938 -0.583744 0.000000
vn 0.840026 -0.542546 0.000000
vn 0.866025 -0.500000 0.000000
vn 0.866025 -0.500000 0.000000
vn 0.889872 -0.456211 0.000000
vn 0.889872 -0.456211 0.000000
vn 0.911506 -0.411287 0.000000
vn 0.930874 -0.365342 0.000000
vn 0.911506 -0.411287 0.000000
vn 0.930874 -0.365342 0.000000
vn 0.947927 -0.318487 0.000000
vn 0.947927 -0.318487 0.000000
vn 0.962625 -0.270839 0.000000
vn 0.962625 -0.270839 0.000000
vn 0.974928 -0.222521 0.000000
vn 0.974928 -0.222521 0.000000
vn 0.984808 -0.173648 0.000000
vn 0.992239 -0.124345 0.000000
vn 0.984808 -0.173648 0.000000
vn 0.992239 -0.124345 0.000000
vn 0.997204 -0.074729 0.000000
vn 0.997204 -0.074729 0.000000
vn 0.999689 -0.024931 0.000000
vn 0.999689 -0.024931 0.000000
vn 0.999689 0.024931 0.000000
vn 0.999689 0.024931 -0.000000
vn 0.997204 0.074729 -0.000000
vn 0.997204 0.074729 -0.000000
vn 0.992239 0.124345 -0.000000
vn 0.992239 0.124345 -0.000000
vn 0.984808 0.173648 0.000000
vn 0.984808 0.173648 -0.000000
vn 0.974928 0.222521 0.000000
vn 0.974928 0.222521 -0.000000
vn 0.962625 0.270839 0.000000
vn 0.962625 0.270839 -0.000000
vn 0.947927 0.318487 0.000000
vn 0.947927 0.318487 -0.000000
vn 0.930874 0.365342 0.000000
vn 0.930874 0.365342 -0.000000
vn 0.911506 0.411287 -0.000000
vn 0.911506 0.411287 -0.000000
vn 0.889872 0.456211 -0.000000
vn 0.889872 0.456211 -0.000000
vn 0.866025 0.500000 0.000000
vn 0.866025 0.500000 -0.000000
vn 0.840026 0.542546 0.000000
vn 0.840026 0.542546 -0.000000
vn 0.811938 0.583744 -0.000000
vn 0.811938 0.583744 -0.000000
vn 0.781832 0.623490 -0.000000
vn 0.781832 0.623490 -0.000000
vn 0.749781 0.661686 0.000000
vn 0.749781 0.661686 -0.000000
vn 0.715867 0.698237 0.000000
vn 0.715867 0.698237 -0.000000
vn 0.680173 0.733052 -0.000000
vn 0.680173 0.733052 -0.000000
vn 0.642788 0.766044 -0.000000
vn 0.642788 0.766044 -0.000000
vn 0.603804 0.797133 0.000000
vn 0.603804 0.797133 -0.000000
vn 0.563320 0.826239 -0.000000
vn 0.563320 0.826239 0.000000
vn 0.521435 0.853291 -0.000000
vn 0.478255 0.878221 -0.000000
vn 0.521435 0.853291 -0.000000
vn 0.478255 0.878221 -0.000000
vn 0.433883 0.900969 -0.000000
vn 0.433883 0.900969 0.000000
vn 0.388434 0.921477 -0.000000
vn 0.388434 0.921477 0.000000
vn 0.342020 0.939693 0.000000
vn 0.342020 0.939693 -0.000000
vn 0.294755 0.955573 0.000000
vn 0.294755 0.955573 -0.000000
vn 0.246757 0.969077 0.000000
vn 0.246757 0.969077 -0.000000
vn 0.198146 0.980173 0.000000
vn 0.198146 0.980173 -0.000000
vn 0.149043 0.988831 0.000000
vn 0.149043 0.988831 -0.000000
vn 0.099568 0.995031 -0.000000
vn 0.099568 0.995031 -0.000000
vn 0.049845 0.998757 0.000000
vn 0.049845 0.998757 -0.000000
vn 0.000000 1.000000 0.000000
vn 0.000000 1.000000 -0.000000
vn -0.049845 0.998757 0.000000
vn -0.049845 0.998757 0.000000
vn -0.099568 0.995031 0.000000
vn -0.099568 0.995031 0.000000
vn -0.149043 0.988831 0.000000
vn -0.149043 0.988831 0.000000
vn -0.198146 0.980173 0.000000
vn -0.198146 0.980173 0.000000
vn -0.246757 0.969077 0.000000
vn -0.246757 0.969077 0.000000
vn -0.294755 0.955573 0.000000
vn -0.294755 0.955573 0.000000
vn -0.342020 0.939693 0.000000
vn -0.388434 0.921477 0.000000
vn -0.342020 0.939693 0.000000
vn -0.388434 0.921477 0.000000
vn -0.433883 0.900969 0.000000
vn -0.433883 0.900969 0.000000
vn -0.478255 0.878221 0.000000
vn -0.478255 0.878221 0.000000
vn -0.521435 0.853291 0.000000
vn -0.521435 0.853291 0.000000
vn -0.563320 0.826239 0.000000
vn -0.563320 0.826239 0.000000
vn -0.603804 0.797133 0.000000
vn -0.603804 0.797133 0.000000
vn -0.642788 0.766044 0.000000
vn -0.642788 0.766044 0.000000
vn -0.680173 0.733052 0.000000
vn -0.680173 0.733052 0.000000
vn -0.715867 0.698237 0.000000
vn -0.715867 0.698237 0.000000
vn -0.749781 0.661686 0.000000
vn -0.749781 0.661686 0.000000
vn -0.781832 0.623490 0.000000
vn -0.781832 0.623490 0.000000
vn -0.811938 0.583744 0.000000
vn -0.811938 0.583744 0.000000
vn -0.840026 0.542546 0.000000
vn -0.866025 0.500000 0.000000
vn -0.840026 0.542546 0.000000
vn -0.866025 0.500000 0.000000
vn -0.889872 0.456211 0.000000
vn -0.889872 0.456211 0.000000
vn -0.911506 0.411287 0.000000
vn -0.911506 0.411287 0.000000
vn -0.930874 0.365342 0.000000
vn -0.930874 0.365342 0.000000
vn -0.947927 0.318487 0.000000
vn -0.947927 0.318487 0.000000
vn -0.962625 0.270839 0.000000
vn -0.962625 0.270839 0.000000
vn -0.974928 0.222521 0.000000
vn -0.974928 0.222521 0.000000
vn -0.984808 0.173648 0.000000
vn -0.984808 0.173648 0.000000
vn -0.992239 0.124345 0.000000
vn -0.992239 0.124345 0.000000
vn -0.997204 0.074729 0.000000
vn -0.999689 0.024931 0.000000
vn -0.997204 0.074729 0.000000
vn -0.999689 0.024931 0.000000
vn 0.000000 0.000000 -1.000000
vn 0.000000 0.000000 -1.000000
vn 0.000000 0.000000 -1.000000
vn 0.000000 -0.000000 -1.000000
vn 0.000000 0.000000 -1.000000
vn 0.000000 0.000000 -1.000000
vn 0.000000 -0.000000 -1.000000
vn 0.000000 0.000000 -1.000000
vn 0.000000 0.000000 -1.000000
vn 0.000000 0.000000 -1.000000
vn 0.000000 0.000000 -1.000000
vn 0.000000 -0.000000 -1.000000
vn 0.000000 0.000000 -1.000000
vn 0.000000 0.000000 -1.000000
vn 0.000000 -0.000000 -1.000000
vn 0.000000 0.000000 -1.000000
vn 0.000000 0.000000 -1.000000
vn 0.000000 0.000000 -1.000000
vn 0.000000 0.000000 -1.000000
vn 0.000000 -0.000000 -1.000000
vn 0.000000 0.000000 -1.000000
vn 0.000000 0.000000 -1.000000
vn 0.000000 -0.000000 -1.000000
vn 0.000000 0.000000 -1.000000
vn 0.000000 0.000000 -1.000000
vn 0.000000 0.000000 -1.000000
vn 0.000000 0.000000 -1.000000
vn 0.000000 -0.000000 -1.000000
vn 0.000000 0.000000 -1.000000
vn 0.000000 0.000000 -1.000000
vn 0.000000 -0.000000 -1.000000
vn 0.000000 0.000000 -1.000000
vn 0.000000 0.000000 -1.000000
vn 0.000000 0.000000 -1.000000
vn 0.000000 0.000000 -1.000000
vn 0.000000 -0.000000 -1.000000
vn 0.000000 0.000000 -1.000000
vn 0.000000 0.000000 -1.000000
vn 0.000000 -0.000000 -1.000000
vn 0.000000 0.000000 -1.000000
vn 0.000000 0.000000 -1.000000
vn 0.000000 0.000000 -1.000000
vn 0.000000 -0.000000 -1.000000
vn 0.000000 0.000000 -1.000000
vn 0.000000 0.000000 -1.000000
vn 0.000000 0.000000 -1.000000
vn 0.000000 -0.000000 -1.000000
vn 0.000000 0.000000 -1.000000
vn 0.000000 0.000000 -1.000000
vn 0.000000 0.000000 -1.000000
vn 0.000000 -0.000000 -1.000000
vn 0.000000 0.000000 -1.000000
vn 0.000000 0.000000 -1.000000
vn 0.000000 0.000000 -1.000000
vn 0.000000 0.000000 -1.000000
vn 0.000000 0.000000 -1.000000
vn 0.000000 0.000000 -1.000000
vn 0.000000 0.000000 -1.000000
vn 0.000000 0.000000 -1.000000
vn 0.000000 -0.000000 -1.000000
vn 0.000000 0.000000 -1.000000
vn 0.000000 0.000000 -1.000000
vn 0.000000 -0.000000 -1.000000
vn 0.000000 0.000000 -1.000000
vn 0.000000 0.000000 -1.000000
vn 0.000000 -0.000000 -1.000000
vn 0.000000 -0.000000 -1.000000
vn 0.000000 0.000000 -1.000000
vn 0.000000 0.000000 -1.000000
vn 0.000000 0.000000 -1.000000
vn 0.000000 -0.000000 -1.000000
vn 0.000000 0.000000 -1.000000
vn 0.000000 0.000000 -1.000000
vn 0.000000 0.000000 -1.000000
vn 0.000000 0.000000 -1.000000
vn 0.000000 0.000000 -1.000000
vn 0.000000 0.000000 -1.000000
vn 0.000000 -0.000000 -1.000000
vn 0.000000 0.000000 -1.000000
vn 0.000000 0.000000 -1.000000
vn 0.000000 0.000000 -1.000000
vn 0.000000 -0.000000 -1.000000
vn 0.000000 -0.000000 -1.000000
vn 0.000000 0.000000 -1.000000
vn 0.000000 0.000000 -1.000000
vn 0.000000 0.000000 -1.000000
vn 0.000000 0.000000 -1.000000
vn 0.000000 0.000000 -1.000000
vn 0.000000 -0.000000 -1.000000
vn 0.000000 0.000000 -1.000000
vn 0.000000 0.000000 -1.000000
vn 0.000000 0.000000 -1.000000
vn 0.000000 0.000000 -1.000000
vn 0.000000 0.000000 -1.000000
vn 0.000000 -0.000000 -1.000000
vn 0.000000 0.000000 -1.000000
vn 0.000000 0.000000 -1.000000
vn 0.000000 -0.000000 -1.000000
vn 0.000000 -0.000000 -1.000000
vn 0.000000 0.000000 -1.000000
vn 0.000000 0.000000 -1.000000
vn 0.000000 0.000000 -1.000000
vn 0.000000 0.000000 -1.000000
vn 0.000000 0.000000 -1.000000
vn 0.000000 -0.000000 -1.000000
vn 0.000000 0.000000 -1.000000
vn 0.000000 0.000000 -1.000000
vn 0.000000 0.000000 -1.000000
vn 0.000000 0.000000 -1.000000
vn 0.000000 0.000000 -1.000000
vn 0.000000 0.000000 -1.000000
vn 0.000000 0.000000 -1.000000
vn 0.000000 -0.000000 -1.000000
vn 0.000000 0.000000 -1.000000
vn 0.000000 0.000000 -1.000000
vn 0.000000 0.000000 -1.000000
vn 0.000000 -0.000000 -1.000000
vn 0.000000 0.000000 -1.000000
vn 0.000000 0.000000 -1.000000
vn 0.000000 0.000000 -1.000000
vn 0.000000 -0.000000 -1.000000
vn 0.000000 0.000000 -1.000000
vn 0.000000 0.000000 -1.000000
vn 0.000000 0.000000 -1.000000
vn 0.000000 0.000000 -1.000000
vn 0.000000 0.000000 -1.000000
vn 0.000000 -0.000000 -1.000000
vn 0.000000 0.000000 -1.000000
vn 0.000000 0.000000 -1.000000
vn 0.000000 0.000000 -1.000000
vn 0.000000 0.000000 -1.000000
vn 0.000000 0.000000 -1.000000
vn 0.000000 0.000000 -1.000000
vn 0.000000 0.000000 -1.000000
vn 0.000000 0.000000 -1.000000
vn 0.000000 0.000000 -1.000000
vn 0.000000 -0.000000 -1.000000
vn 0.000000 0.000000 -1.000000
vn 0.000000 0.000000 -1.000000
vn 0.000000 -0.000000 -1.000000
vn 0.000000 0.000000 -1.000000
vn 0.000000 0.000000 -1.000000
vn 0.000000 0.000000 -1.000000
vn 0.000000 0.000000 -1.000000
vn 0.000000 0.000000 -1.000000
vn 0.000000 0.000000 -1.000000
vn 0.000000 0.000000 -1.000000
vn 0.000000 -0.000000 -1.000000
vn 0.000000 -0.000000 -1.000000
vn 0.000000 0.000000 -1.000000
vn 0.000000 0.000000 -1.000000
vn 0.000000 0.000000 -1.000000
vn 0.000000 0.000000 -1.000000
vn 0.000000 0.000000 -1.000000
vn 0.000000 -0.000000 -1.000000
vn 0.000000 -0.000000 -1.000000
vn 0.000000 0.000000 -1.000000
vn 0.000000 0.000000 -1.000000
vn 0.000000 0.000000 -1.000000
vn 0.000000 0.000000 -1.000000
vn 0.000000 0.000000 -1.000000
vn 0.000000 0.000000 -1.000000
vn 0.000000 0.000000 -1.000000
vn 0.000000 0.000000 -1.000000
vn 0.000000 -0.000000 -1.000000
vn 0.000000 0.000000 -1.000000
vn 0.000000 -0.000000 -1.000000
vn 0.000000 0.000000 -1.000000
vn 0.000000 0.000000 -1.000000
vn 0.000000 0.000000 -1.000000
vn 0.000000 -0.000000 -1.000000
vn 0.000000 -0.000000 -1.000000
vn 0.000000 0.000000 -1.000000
vn 0.000000 0.000000 -1.000000
vn 0.000000 0.000000 -1.000000
vn 0.000000 0.000000 -1.000000
vn 0.000000 0.000000 -1.000000
vn 0.000000 0.000000 -1.000000
vn 0.000000 0.000000 -1.000000
vn 0.000000 -0.000000 -1.000000
vn 0.000000 0.000000 -1.000000
vn 0.000000 0.000000 -1.000000
vn 0.000000 0.000000 -1.000000
vn 0.000000 -0.000000 -1.000000
vn 0.000000 -0.000000 -1.000000
vn 0.000000 0.000000 -1.000000
vn 0.000000 0.000000 -1.000000
vn 0.000000 0.000000 -1.000000
vn 0.000000 0.000000 -1.000000
vn 0.000000 0.000000 -1.000000
vn 0.000000 0.000000 -1.000000
vn 0.000000 0.000000 -1.000000
vn 0.000000 0.000000 -1.000000
vn 0.000000 0.000000 -1.000000
vn 0.000000 0.000000 -1.000000
vn 0.000000 0.000000 -1.000000
vn 0.000000 0.000000 -1.000000
vn 0.000000 0.000000 -1.000000
vn 0.000000 0.000000 -1.000000
vn 0.000000 0.000000 -1.000000
vn 0.000000 0.000000 -1.000000
vn 0.000000 -0.000000 -1.000000
vn 0.000000 0.000000 -1.000000
vn 0.000000 0.000000 -1.000000
vn 0.000000 0.000000 -1.000000
vn 0.000000 0.000000 -1.000000
vn 0.000000 -0.000000 -1.000000
vn 0.000000 0.000000 -1.000000
vn 0.000000 -0.000000 -1.000000
vn 0.000000 0.000000 -1.000000
vn 0.000000 0.000000 -1.000000
vn 0.000000 0.000000 -1.000000
vn 0.000000 -0.000000 -1.000000
vn 0.000000 0.000000 -1.000000
vn 0.000000 0.000000 -1.000000
vn 0.000000 0.000000 -1.000000
vn 0.000000 0.000000 -1.000000
vn 0.000000 -0.000000 -1.000000
vn 0.000000 0.000000 -1.000000
vn 0.000000 0.000000 -1.000000
vn 0.000000 0.000000 -1.000000
vn 0.000000 -0.000000 -1.000000
vn 0.000000 0.000000 -1.000000
vn 0.000000 0.000000 -1.000000
vn 0.000000 0.000000 -1.000000
vn 0.000000 -0.000000 -1.000000
vn 0.000000 0.000000 -1.000000
vn 0.000000 0.000000 -1.000000
vn 0.000000 -0.000000 -1.000000
vn 0.000000 0.000000 -1.000000
vn 0.000000 0.000000 -1.000000
vn 0.000000 0.000000 -1.000000
vn 0.000000 0.000000 -1.000000
vn 0.000000 -0.000000 -1.000000
vn 0.000000 0.000000 -1.000000
vn 0.000000 0.000000 -1.000000
vn 0.000000 0.000000 -1.000000
vn 0.000000 -0.000000 -1.000000
vn 0.000000 0.000000 -1.000000
vn 0.000000 0.000000 -1.000000
vn 0.000000 -0.000000 -1.000000
vn 0.000000 0.000000 -1.000000
vn 0.000000 0.000000 -1.000000
vn 0.000000 0.000000 -1.000000
vn 0.000000 0.000000 -1.000000
vn 0.000000 0.000000 -1.000000
vn 0.000000 0.000000 -1.000000
vn 0.000000 -0.000000 -1.000000
vn 0.000000 0.000000 -1.000000
vn 0.000000 0.000000 -1.000000
vn 0.000000 -0.000000 -1.000000
vn 0.000000 0.000000 -1.000000
vn 0.000000 0.000000 1.000000
vn 0.000000 0.000000 1.000000
vn 0.000000 0.000000 1.000000
vn 0.000000 0.000000 1.000000
vn 0.000000 0.000000 1.000000
vn 0.000000 0.000000 1.000000
vn 0.000000 0.000000 1.000000
vn 0.000000 0.000000 1.000000
vn 0.000000 0.000000 1.000000
vn 0.000000 0.000000 1.000000
vn 0.000000 0.000000 1.000000
vn 0.000000 0.000000 1.000000
vn 0.000000 0.000000 1.000000
vn 0.000000 0.000000 1.000000
vn 0.000000 0.000000 1.000000
vn 0.000000 0.000000 1.000000
vn 0.000000 0.000000 1.000000
vn 0.000000 0.000000 1.000000
vn 0.000000 0.000000 1.000000
vn 0.000000 0.000000 1.000000
vn 0.000000 0.000000 1.000000
vn 0.000000 0.000000 1.000000
vn 0.000000 0.000000 1.000000
vn 0.000000 0.000000 1.000000
vn 0.000000 0.000000 1.000000
vn 0.000000 0.000000 1.000000
vn 0.000000 0.000000 1.000000
vn 0.000000 0.000000 1.000000
vn 0.000000 0.000000 1.000000
vn 0.000000 0.000000 1.000000
vn 0.000000 0.000000 1.000000
vn 0.000000 0.000000 1.000000
vn 0.000000 0.000000 1.000000
vn 0.000000 0.000000 1.000000
vn 0.000000 0.000000 1.000000
vn 0.000000 0.000000 1.000000
vn 0.000000 0.000000 1.000000
vn 0.000000 0.000000 1.000000
vn 0.000000 0.000000 1.000000
vn 0.000000 0.000000 1.000000
vn 0.000000 0.000000 1.000000
vn 0.000000 0.000000 1.000000
vn 0.000000 0.000000 1.000000
vn 0.000000 0.000000 1.000000
vn 0.000000 0.000000 1.000000
vn 0.000000 0.000000 1.000000
vn 0.000000 0.000000 1.000000
vn 0.000000 0.000000 1.000000
vn 0.000000 0.000000 1.000000
vn 0.000000 0.000000 1.000000
vn 0.000000 0.000000 1.000000
vn 0.000000 0.000000 1.000000
vn 0.000000 0.000000 1.000000
vn 0.000000 0.000000 1.000000
vn 0.000000 0.000000 1.000000
vn 0.000000 0.000000 1.000000
vn 0.000000 0.000000 1.000000
vn 0.000000 0.000000 1.000000
vn 0.000000 0.000000 1.000000
vn 0.000000 0.000000 1.000000
vn 0.000000 0.000000 1.000000
vn 0.000000 0.000000 1.000000
vn 0.000000 0.000000 1.000000
vn 0.000000 0.000000 1.000000
vn 0.000000 0.000000 1.000000
vn 0.000000 0.000000 1.000000
vn 0.000000 0.000000 1.000000
vn 0.000000 0.000000 1.000000
vn 0.000000 0.000000 1.000000
vn 0.000000 0.000000 1.000000
vn 0.000000 0.000000 1.000000
vn 0.000000 0.000000 1.000000
vn 0.000000 0.000000 1.000000
vn 0.000000 0.000000 1.000000
vn 0.000000 0.000000 1.000000
vn 0.000000 0.000000 1.000000
vn 0.000000 0.000000 1.000000
vn 0.000000 0.000000 1.000000
vn 0.000000 0.000000 1.000000
vn 0.000000 0.000000 1.000000
vn 0.000000 0.000000 1.000000
vn 0.000000 0.000000 1.000000
vn 0.000000 0.000000 1.000000
vn 0.000000 0.000000 1.000000
vn 0.000000 0.000000 1.000000
vn 0.000000 0.000000 1.000000
vn 0.000000 0.000000 1.000000
vn 0.000000 0.000000 1.000000
vn 0.000000 0.000000 1.000000
vn 0.000000 0.000000 1.000000
vn 0.000000 0.000000 1.000000
vn 0.000000 0.000000 1.000000
vn 0.000000 0.000000 1.000000
vn 0.000000 0.000000 1.000000
vn 0.000000 0.000000 1.000000
vn 0.000000 0.000000 1.000000
vn 0.000000 0.000000 1.000000
vn 0.000000 0.000000 1.000000
vn 0.000000 0.000000 1.000000
vn 0.000000 0.000000 1.000000
vn 0.000000 0.000000 1.000000
vn 0.000000 0.000000 1.000000
vn 0.000000 0.000000 1.000000
vn 0.000000 0.000000 1.000000
vn 0.000000 0.000000 1.000000
vn 0.000000 0.000000 1.000000
vn 0.000000 0.000000 1.000000
vn 0.000000 0.000000 1.000000
vn 0.000000 0.000000 1.000000
vn 0.000000 0.000000 1.000000
vn 0.000000 0.000000 1.000000
vn 0.000000 0.000000 1.000000
vn 0.000000 0.000000 1.000000
vn 0.000000 0.000000 1.000000
vn 0.000000 0.000000 1.000000
vn 0.000000 0.000000 1.000000
vn 0.000000 0.000000 1.000000
vn 0.000000 0.000000 1.000000
vn 0.000000 0.000000 1.000000
vn 0.000000 0.000000 1.000000
vn 0.000000 0.000000 1.000000
vn 0.000000 0.000000 1.000000
vn 0.000000 0.000000 1.000000
vn 0.000000 0.000000 1.000000
vn 0.000000 0.000000 1.000000
vn 0.000000 0.000000 1.000000
vn 0.000000 0.000000 1.000000
vn 0.000000 0.000000 1.000000
vn 0.000000 0.000000 1.000000
vn 0.000000 0.000000 1.000000
vn 0.000000 0.000000 1.000000
vn 0.000000 0.000000 1.000000
vn 0.000000 0.000000 1.000000
vn 0.000000 0.000000 1.000000
vn 0.000000 0.000000 1.000000
vn 0.000000 0.000000 1.000000
vn 0.000000 0.000000 1.000000
vn 0.000000 0.000000 1.000000
vn 0.000000 0.000000 1.000000
vn 0.000000 0.000000 1.000000
vn 0.000000 0.000000 1.000000
vn 0.000000 0.000000 1.000000
vn 0.000000 0.000000 1.000000
vn 0.000000 0.000000 1.000000
vn 0.000000 0.000000 1.000000
vn 0.000000 0.000000 1.000000
vn 0.000000 0.000000 1.000000
vn 0.000000 0.000000 1.000000
vn 0.000000 0.000000 1.000000
vn 0.000000 0.000000 1.000000
vn 0.000000 0.000000 1.000000
vn 0.000000 0.000000 1.000000
vn 0.000000 0.000000 1.000000
vn 0.000000 0.000000 1.000000
vn 0.000000 0.000000 1.000000
vn 0.000000 0.000000 1.000000
vn 0.000000 0.000000 1.000000
vn 0.000000 0.000000 1.000000
vn 0.000000 0.000000 1.000000
vn 0.000000 0.000000 1.000000
vn 0.000000 0.000000 1.000000
vn 0.000000 0.000000 1.000000
vn 0.000000 0.000000 1.000000
vn 0.000000 0.000000 1.000000
vn 0.000000 0.000000 1.000000
vn 0.000000 0.000000 1.000000
vn 0.000000 0.000000 1.000000
vn 0.000000 0.000000 1.000000
vn 0.000000 0.000000 1.000000
vn 0.000000 0.000000 1.000000
vn 0.000000 0.000000 1.000000
vn 0.000000 0.000000 1.000000
vn 0.000000 0.000000 1.000000
vn 0.000000 0.000000 1.000000
vn 0.000000 0.000000 1.000000
vn 0.000000 0.000000 1.000000
vn 0.000000 0.000000 1.000000
vn 0.000000 0.000000 1.000000
vn 0.000000 0.000000 1.000000
vn 0.000000 0.000000 1.000000
vn 0.000000 0.000000 1.000000
vn 0.000000 0.000000 1.000000
vn 0.000000 0.000000 1.000000
vn 0.000000 0.000000 1.000000
vn 0.000000 0.000000 1.000000
vn 0.000000 0.000000 1.000000
vn 0.000000 0.000000 1.000000
vn 0.000000 0.000000 1.000000
vn 0.000000 0.000000 1.000000
vn 0.000000 0.000000 1.000000
vn 0.000000 0.000000 1.000000
vn 0.000000 0.000000 1.000000
vn 0.000000 0.000000 1.000000
vn 0.000000 0.000000 1.000000
vn 0.000000 0.000000 1.000000
vn 0.000000 0.000000 1.000000
vn 0.000000 0.000000 1.000000
vn 0.000000 0.000000 1.000000
vn 0.000000 0.000000 1.000000
vn 0.000000 0.000000 1.000000
vn 0.000000 0.000000 1.000000
vn 0.000000 0.000000 1.000000
vn 0.000000 0.000000 1.000000
vn 0.000000 0.000000 1.000000
vn 0.000000 0.000000 1.000000
vn 0.000000 0.000000 1.000000
vn 0.000000 0.000000 1.000000
vn 0.000000 0.000000 1.000000
vn 0.000000 0.000000 1.000000
vn 0.000000 0.000000 1.000000
vn 0.000000 0.000000 1.000000
vn 0.000000 0.000000 1.000000
vn 0.000000 0.000000 1.000000
vn 0.000000 0.000000 1.000000
vn 0.000000 0.000000 1.000000
vn 0.000000 0.000000 1.000000
vn 0.000000 0.000000 1.000000
vn 0.000000 0.000000 1.000000
vn 0.000000 0.000000 1.000000
vn 0.000000 0.000000 1.000000
vn 0.000000 0.000000 1.000000
vn 0.000000 0.000000 1.000000
vn 0.000000 0.000000 1.000000
vn 0.000000 0.000000 1.000000
vn 0.000000 0.000000 1.000000
vn 0.000000 0.000000 1.000000
vn 0.000000 0.000000 1.000000
vn 0.000000 0.000000 1.000000
vn 0.000000 0.000000 1.000000
vn 0.000000 0.000000 1.000000
vn 0.000000 0.000000 1.000000
vn 0.000000 0.000000 1.000000
vn 0.000000 0.000000 1.000000
vn 0.000000 0.000000 1.000000
vn 0.000000 0.000000 1.000000
vn 0.000000 0.000000 1.000000
vn 0.000000 0.000000 1.000000
vn 0.000000 0.000000 1.000000
vn 0.000000 0.000000 1.000000
vn 0.000000 0.000000 1.000000
vn 0.000000 0.000000 1.000000
vn 0.000000 0.000000 1.000000
vn 0.000000 0.000000 1.000000
vn 0.000000 0.000000 1.000000
vn 0.000000 0.000000 1.000000
vn 0.000000 0.000000 1.000000
vn 0.000000 0.000000 1.000000
vn 0.000000 0.000000 1.000000
vn 0.000000 0.000000 1.000000
vn 0.000000 0.000000 1.000000
vn 0.000000 0.000000 1.000000
vn 0.000000 0.000000 1.000000
f 1//1 2//1 3//1
f 3//2 2//2 4//2
f 4//3 5//3 6//3
f 6//4 5//4 7//4
f 2//5 5//5 4//5
f 5//6 8//6 7//6
f 7//7 9//7 10//7
f 8//8 9//8 7//8
f 10//9 11//9 12//9
f 12//10 11//10 13//10
f 9//11 11//11 10//11
f 11//12 14//12 13//12
f 13//13 15//13 16//13
f 14//14 15//14 13//14
f 16//15 17//15 18//15
f 18//16 17//16 19//16
f 15//17 17//17 16//17
f 17//18 20//18 19//18
f 19//19 21//19 22//19
f 20//20 21//20 19//20
f 21//21 23//21 22//21
f 22//22 23//22 24//22
f 23//23 25//23 24//23
f 24//24 25//24 26//24
f 25//25 27//25 26//25
f 26//26 27//26 28//26
f 28//27 27//27 29//27
f 27//28 30//28 29//28
f 29//29 31//29 32//29
f 30//30 31//30 29//30
f 32//31 33//31 34//31
f 34//32 33//32 35//32
f 31//33 33//33 32//33
f 33//34 36//34 35//34
f 35//35 37//35 38//35
f 36//36 37//36 35//36
f 38//37 39//37 40//37
f 37//38 39//38 38//38
f 40//39 41//39 42//39
f 39//40 41//40 40//40
f 42//41 43//41 44//41
f 41//42 43//42 42//42
f 44//43 45//43 46//43
f 43//44 45//44 44//44
f 46//45 47//45 48//45
f 45//46 47//46 46//46
f 48//47 49//47 50//47
f 47//48 49//48 48//48
f 50//49 51//49 52//49
f 49//50 51//50 50//50
f 52//51 53//51 54//51
f 51//52 53//52 52//52
f 54//53 55//53 56//53
f 53//54 55//54 54//54
f 56//55 57//55 58//55
f 55//56 57//56 56//56
f 58//57 59//57 60//57
f 57//58 59//58 58//58
f 60//59 61//59 62//59
f 59//60 61//60 60//60
f 62//61 63//61 64//61
f 61//62 63//62 62//62
f 64//63 65//63 66//63
f 63//64 65//64 64//64
f 66//65 67//65 68//65
f 65//66 67//66 66//66
f 68//67 69//67 70//67
f 67//68 69//68 68//68
f 70//69 71//69 72//69
f 69//70 71//70 70//70
f 72//71 73//71 74//71
f 71//72 73//72 72//72
f 73//73 75//73 74//73
f 74//74 75//74 76//74
f 75//75 77//75 76//75
f 76//76 77//76 78//76
f 77//77 79//77 78//77
f 78//78 79//78 80//78
f 79//79 81//79 80//79
f 80//80 81//80 82//80
f 81//81 83//81 82//81
f 82//82 83//82 84//82
f 84//83 83//83 85//83
f 83//84 86//84 85//84
f 86//85 87//85 85//85
f 85//86 87//86 88//86
f 87//87 89//87 88//87
f 88//88 89//88 90//88
f 89//89 91//89 90//89
f 90//90 91//90 92//90
f 92//91 91//91 93//91
f 91//92 94//92 93//92
f 93//93 94//93 95//93
f 94//94 96//94 95//94
f 95//95 97//95 98//95
f 96//96 97//96 95//96
f 98//97 97//97 99//97
f 97//98 100//98 99//98
f 100//99 101//99 99//99
f 99//100 101//100 102//100
f 102//101 103//101 104//101
f 104//102 103//102 105//102
f 101//103 103//103 102//103
f 103//104 106//104 105//104
f 105//105 107//105 108//105
f 106//106 107//106 105//106
f 108//107 109//107 110//107
f 107//108 109//108 108//108
f 110//109 111//109 112//109
f 112//110 111//110 113//110
f 109//111 111//111 110//111
f 111//112 114//112 113//112
f 113//113 115//113 116//113
f 114//114 115//114 113//114
f 116//115 117//115 118//115
f 115//116 117//116 116//116
f 118//117 119//117 120//117
f 117//118 119//118 118//118
f 120//119 121//119 122//119
f 122//120 121//120 123//120
f 119//121 121//121 120//121
f 121//122 124//122 123//122
f 124//123 125//123 123//123
f 123//124 125//124 126//124
f 126//125 125//125 127//125
f 125//126 128//126 127//126
f 128//127 129//127 127//127
f 127//128 129//128 130//128
f 130//129 129//129 131//129
f 129//130 132//130 131//130
f 131//131 132//131 133//131
f 132//132 134//132 133//132
f 134//133 135//133 133//133
f 133//134 135//134 136//134
f 135//135 137//135 136//135
f 136//136 137//136 138//136
f 137//137 139//137 138//137
f 138//138 139//138 140//138
f 139//139 141//139 140//139
f 140//140 141//140 142//140
f 141//141 143//141 142//141
f 142//142 143//142 144//142
f 144//143 143//143 145//143
f 143//144 146//144 145//144
f 145//145 146//145 147//145
f 146//146 148//146 147//146
f 148//147 149//147 147//147
f 147//148 149//148 150//148
f 149//149 151//149 150//149
f 150//150 151//150 152//150
f 152//151 151//151 153//151
f 151//152 154//152 153//152
f 153//153 154//153 155//153
f 154//154 156//154 155//154
f 156//155 157//155 155//155
f 155//156 157//156 158//156
f 157//157 159//157 158//157
f 158//158 159//158 160//158
f 160//159 159//159 161//159
f 159//160 162//160 161//160
f 161//161 162//161 163//161
f 162//162 164//162 163//162
f 164//163 165//163 163//163
f 163//164 165//164 166//164
f 166//165 167//165 168//165
f 165//166 167//166 166//166
f 168//167 167//167 169//167
f 169//168 170//168 171//168
f 167//169 170//169 169//169
f 170//170 172//170 171//170
f 171//171 173//171 174//171
f 172//172 173//172 171//172
f 174//173 175//173 176//173
f 173//174 175//174 174//174
f 175//175 177//175 176//175
f 176//176 177//176 178//176
f 177//177 179//177 178//177
f 178//178 179//178 180//178
f 179//179 181//179 180//179
f 180//180 181//180 182//180
f 181//181 183//181 182//181
f 182//182 183//182 184//182
f 183//183 185//183 184//183
f 184//184 185//184 186//184
f 186//185 185//185 187//185
f 185//186 188//186 187//186
f 188//187 189//187 187//187
f 187//188 189//188 190//188
f 189//189 191//189 190//189
f 190//190 191//190 192//190
f 191//191 193//191 192//191
f 192//192 193//192 194//192
f 193//193 195//193 194//193
f 194//194 195//194 196//194
f 195//195 197//195 196//195
f 196//196 197//196 198//196
f 197//197 199//197 198//197
f 198//198 199//198 200//198
f 200//199 201//199 202//199
f 199//200 201//200 200//200
f 202//201 203//201 204//201
f 201//202 203//202 202//202
f 204//203 205//203 206//203
f 206//204 205//204 207//204
f 203//205 205//205 204//205
f 205//206 208//206 207//206
f 207//207 209//207 210//207
f 208//208 209//208 207//208
f 210//209 211//209 212//209
f 209//210 211//210 210//210
f 212//211 213//211 214//211
f 211//212 213//212 212//212
f 214//213 215//213 216//213
f 213//214 215//214 214//214
f 216//215 217//215 218//215
f 215//216 217//216 216//216
f 218//217 219//217 220//217
f 217//218 219//218 218//218
f 220//219 221//219 222//219
f 219//220 221//220 220//220
f 222//221 223//221 224//221
f 221//222 223//222 222//222
f 223//223 225//223 224//223
f 224//224 225//224 226//224
f 225//225 227//225 226//225
f 226//226 227//226 228//226
f 228//227 227//227 229//227
f 227//228 230//228 229//228
f 229//229 231//229 232//229
f 232//230 231//230 233//230
f 230//231 231//231 229//231
f 231//232 234//232 233//232
f 233//233 235//233 236//233
f 234//234 235//234 233//234
f 236//235 235//235 237//235
f 235//236 238//236 237//236
f 237//237 239//237 240//237
f 238//238 239//238 237//238
f 240//239 241//239 242//239
f 239//240 241//240 240//240
f 242//241 243//241 244//241
f 241//242 243//242 242//242
f 244//243 245//243 246//243
f 243//244 245//244 244//244
f 246//245 247//245 248//245
f 245//246 247//246 246//246
f 248//247 249//247 250//247
f 247//248 249//248 248//248
f 250//249 251//249 252//249
f 252//250 251//250 3//250
f 249//251 251//251 250//251
f 251//252 1//252 3//252
f 253//253 254//253 255//253
f 253//254 255//254 256//254
f 257//255 256//255 258//255
f 257//256 258//256 259//256
f 257//257 253//257 256//257
f 260//258 257//258 259//258
f 261//259 259//259 262//259
f 261//260 260//260 259//260
f 263//261 262//261 264//261
f 263//262 264//262 265//262
f 263//263 261//263 262//263
f 266//264 263//264 265//264
f 267//265 265//265 268//265
f 267//266 266//266 265//266
f 269//267 268//267 270//267
f 269//268 270//268 271//268
f 269//269 267//269 268//269
f 272//270 269//270 271//270
f 273//271 271//271 274//271
f 273//272 272//272 271//272
f 275//273 273//273 274//273
f 275//274 274//274 276//274
f 277//275 275//275 276//275
f 277//276 276//276 278//276
f 279//277 277//277 278//277
f 279//278 278//278 280//278
f 279//279 280//279 281//279
f 282//280 279//280 281//280
f 283//281 281//281 284//281
f 283//282 282//282 281//282
f 285//283 284//283 286//283
f 285//284 286//284 287//284
f 285//285 283//285 284//285
f 288//286 285//286 287//286
f 289//287 287//287 290//287
f 289//288 288//288 287//288
f 291//289 290//289 292//289
f 291//290 289//290 290//290
f 293//291 292//291 294//291
f 293//292 291//292 292//292
f 295//293 294//293 296//293
f 295//294 293//294 294//294
f 297//295 296//295 298//295
f 297//296 295//296 296//296
f 299//297 298//297 300//297
f 299//298 297//298 298//298
f 301//299 300//299 302//299
f 301//300 299//300 300//300
f 303//301 302//301 304//301
f 303//302 301//302 302//302
f 305//303 304//303 306//303
f 305//304 303//304 304//304
f 307//305 306//305 308//305
f 307//306 305//306 306//306
f 309//307 308//307 310//307
f 309//308 307//308 308//308
f 311//309 310//309 312//309
f 311//310 309//310 310//310
f 313//311 312//311 314//311
f 313//312 311//312 312//312
f 315//313 314//313 316//313
f 315//314 313//314 314//314
f 317//315 316//315 318//315
f 317//316 315//316 316//316
f 319//317 318//317 320//317
f 319//318 317//318 318//318
f 321//319 320//319 322//319
f 321//320 319//320 320//320
f 323//321 322//321 324//321
f 323//322 321//322 322//322
f 325//323 324//323 326//323
f 325//324 323//324 324//324
f 327//325 325//325 326//325
f 327//326 326//326 328//326
f 329//327 327//327 328//327
f 329//328 328//328 330//328
f 331//329 329//329 330//329
f 331//330 330//330 332//330
f 333//331 331//331 332//331
f 333//332 332//332 334//332
f 335//333 333//333 334//333
f 335//334 334//334 336//334
f 335//335 336//335 337//335
f 338//336 335//336 337//336
f 339//337 338//337 337//337
f 339//338 337//338 340//338
f 341//339 339//339 340//339
f 341//340 340//340 342//340
f 343//341 341//341 342//341
f 343//342 342//342 344//342
f 343//343 344//343 345//343
f 346//344 343//344 345//344
f 346//345 345//345 347//345
f 348//346 346//346 347//346
f 349//347 347//347 350//347
f 349//348 348//348 347//348
f 349//349 350//349 351//349
f 352//350 349//350 351//350
f 353//351 352//351 351//351
f 353//352 351//352 354//352
f 355//353 354//353 356//353
f 355//354 356//354 357//354
f 355//355 353//355 354//355
f 358//356 355//356 357//356
f 359//357 357//357 360//357
f 359//358 358//358 357//358
f 361//359 360//359 362//359
f 361//360 359//360 360//360
f 363//361 362//361 364//361
f 363//362 364//362 365//362
f 363//363 361//363 362//363
f 366//364 363//364 365//364
f 367//365 365//365 368//365
f 367//366 366//366 365//366
f 369//367 368//367 370//367
f 369//368 367//368 368//368
f 371//369 370//369 372//369
f 371//370 369//370 370//370
f 373//371 372//371 374//371
f 373//372 374//372 375//372
f 373//373 371//373 372//373
f 376//374 373//374 375//374
f 377//375 376//375 375//375
f 377//376 375//376 378//376
f 377//377 378//377 379//377
f 380//378 377//378 379//378
f 381//379 380//379 379//379
f 381//380 379//380 382//380
f 381//381 382//381 383//381
f 384//382 381//382 383//382
f 384//383 383//383 385//383
f 386//384 384//384 385//384
f 387//385 386//385 385//385
f 387//386 385//386 388//386
f 389//387 387//387 388//387
f 389//388 388//388 390//388
f 391//389 389//389 390//389
f 391//390 390//390 392//390
f 393//391 391//391 392//391
f 393//392 392//392 394//392
f 395//393 393//393 394//393
f 395//394 394//394 396//394
f 395//395 396//395 397//395
f 398//396 395//396 397//396
f 398//397 397//397 399//397
f 400//398 398//398 399//398
f 401//399 400//399 399//399
f 401//400 399//400 402//400
f 403//401 401//401 402//401
f 403//402 402//402 404//402
f 403//403 404//403 405//403
f 406//404 403//404 405//404
f 406//405 405//405 407//405
f 408//406 406//406 407//406
f 409//407 408//407 407//407
f 409//408 407//408 410//408
f 411//409 409//409 410//409
f 411//410 410//410 412//410
f 411//411 412//411 413//411
f 414//412 411//412 413//412
f 414//413 413//413 415//413
f 416//414 414//414 415//414
f 417//415 416//415 415//415
f 417//416 415//416 418//416
f 419//417 418//417 420//417
f 419//418 417//418 418//418
f 419//419 420//419 421//419
f 422//420 421//420 423//420
f 422//421 419//421 421//421
f 424//422 422//422 423//422
f 425//423 423//423 426//423
f 425//424 424//424 423//424
f 427//425 426//425 428//425
f 427//426 425//426 426//426
f 429//427 427//427 428//427
f 429//428 428//428 430//428
f 431//429 429//429 430//429
f 431//430 430//430 432//430
f 433//431 431//431 432//431
f 433//432 432//432 434//432
f 435//433 433//433 434//433
f 435//434 434//434 436//434
f 437//435 435//435 436//435
f 437//436 436//436 438//436
f 437//437 438//437 439//437
f 440//438 437//438 439//438
f 441//439 440//439 439//439
f 441//440 439//440 442//440
f 443//441 441//441 442//441
f 443//442 442//442 444//442
f 445//443 443//443 444//443
f 445//444 444//444 446//444
f 447//445 445//445 446//445
f 447//446 446//446 448//446
f 449//447 447//447 448//447
f 449//448 448//448 450//448
f 451//449 449//449 450//449
f 451//450 450//450 452//450
f 453//451 452//451 454//451
f 453//452 451//452 452//452
f 455//453 454//453 456//453
f 455//454 453//454 454//454
f 457//455 456//455 458//455
f 457//456 458//456 459//456
f 457//457 455//457 456//457
f 460//458 457//458 459//458
f 461//459 459//459 462//459
f 461//460 460//460 459//460
f 463//461 462//461 464//461
f 463//462 461//462 462//462
f 465//463 464//463 466//463
f 465//464 463//464 464//464
f 467//465 466//465 468//465
f 467//466 465//466 466//466
f 469//467 468//467 470//467
f 469//468 467//468 468//468
f 471//469 470//469 472//469
f 471//470 469//470 470//470
f 473//471 472//471 474//471
f 473//472 471//472 472//472
f 475//473 474//473 476//473
f 475//474 473//474 474//474
f 477//475 475//475 476//475
f 477//476 476//476 478//476
f 479//477 477//477 478//477
f 479//478 478//478 480//478
f 479//479 480//479 481//479
f 482//480 479//480 481//480
f 483//481 481//481 484//481
f 483//482 484//482 485//482
f 483//483 482//483 481//483
f 486//484 483//484 485//484
f 487//485 485//485 488//485
f 487//486 486//486 485//486
f 487//487 488//487 489//487
f 490//488 487//488 489//488
f 491//489 489//489 492//489
f 491//490 490//490 489//490
f 493//491 492//491 494//491
f 493//492 491//492 492//492
f 495//493 494//493 496//493
f 495//494 493//494 494//494
f 497//495 496//495 498//495
f 497//496 495//496 496//496
f 499//497 498//497 500//497
f 499//498 497//498 498//498
f 501//499 500//499 502//499
f 501//500 499//500 500//500
f 503//501 502//501 504//501
f 503//502 504//502 255//502
f 503//503 501//503 502//503
f 254//504 503//504 255//504
f 157//505 411//505 159//505
f 159//506 411//506 162//506
f 157//507 409//507 411//507
f 411//508 414//508 162//508
f 157//509 408//509 409//509
f 156//510 408//510 157//510
f 414//511 416//511 162//511
f 162//512 416//512 164//512
f 164//513 416//513 165//513
f 156//514 406//514 408//514
f 154//515 406//515 156//515
f 416//516 417//516 165//516
f 154//517 403//517 406//517
f 151//518 403//518 154//518
f 417//519 419//519 165//519
f 165//520 419//520 167//520
f 167//521 419//521 170//521
f 151//522 401//522 403//522
f 149//523 401//523 151//523
f 419//524 422//524 170//524
f 149//525 400//525 401//525
f 148//526 400//526 149//526
f 422//527 424//527 170//527
f 170//528 424//528 172//528
f 148//529 398//529 400//529
f 143//530 398//530 146//530
f 146//531 398//531 148//531
f 424//532 425//532 172//532
f 172//533 425//533 173//533
f 143//534 395//534 398//534
f 425//535 427//535 173//535
f 173//536 427//536 175//536
f 143//537 393//537 395//537
f 141//538 393//538 143//538
f 175//539 429//539 177//539
f 427//540 429//540 175//540
f 141//541 391//541 393//541
f 139//542 391//542 141//542
f 429//543 431//543 177//543
f 177//544 431//544 179//544
f 139//545 389//545 391//545
f 137//546 389//546 139//546
f 431//547 433//547 179//547
f 179//548 433//548 181//548
f 137//549 387//549 389//549
f 135//550 387//550 137//550
f 433//551 435//551 181//551
f 181//552 435//552 183//552
f 134//553 386//553 135//553
f 135//554 386//554 387//554
f 435//555 437//555 183//555
f 183//556 437//556 185//556
f 185//557 437//557 188//557
f 132//558 384//558 134//558
f 134//559 384//559 386//559
f 437//560 440//560 188//560
f 128//561 381//561 129//561
f 132//562 381//562 384//562
f 129//563 381//563 132//563
f 440//564 441//564 188//564
f 188//565 441//565 189//565
f 128//566 380//566 381//566
f 441//567 443//567 189//567
f 189//568 443//568 191//568
f 128//569 377//569 380//569
f 124//570 377//570 125//570
f 125//571 377//571 128//571
f 443//572 445//572 191//572
f 191//573 445//573 193//573
f 124//574 376//574 377//574
f 121//575 376//575 124//575
f 193//576 447//576 195//576
f 445//577 447//577 193//577
f 121//578 373//578 376//578
f 447//579 449//579 195//579
f 195//580 449//580 197//580
f 121//581 371//581 373//581
f 119//582 371//582 121//582
f 449//583 451//583 197//583
f 197//584 451//584 199//584
f 119//585 369//585 371//585
f 115//586 369//586 117//586
f 117//587 369//587 119//587
f 451//588 453//588 199//588
f 199//589 453//589 201//589
f 115//590 367//590 369//590
f 201//591 455//591 203//591
f 453//592 455//592 201//592
f 114//593 366//593 115//593
f 115//594 366//594 367//594
f 203//595 457//595 205//595
f 205//596 457//596 208//596
f 455//597 457//597 203//597
f 114//598 363//598 366//598
f 111//599 363//599 114//599
f 457//600 460//600 208//600
f 111//601 361//601 363//601
f 107//602 361//602 109//602
f 109//603 361//603 111//603
f 208//604 461//604 209//604
f 460//605 461//605 208//605
f 107//606 359//606 361//606
f 209//607 463//607 211//607
f 461//608 463//608 209//608
f 106//609 358//609 107//609
f 107//610 358//610 359//610
f 106//611 103//611 358//611
f 211//612 465//612 213//612
f 463//613 465//613 211//613
f 465//614 215//614 213//614
f 103//615 355//615 358//615
f 465//616 467//616 215//616
f 101//617 353//617 103//617
f 103//618 353//618 355//618
f 215//619 469//619 217//619
f 467//620 469//620 215//620
f 100//621 352//621 101//621
f 101//622 352//622 353//622
f 217//623 471//623 219//623
f 469//624 471//624 217//624
f 97//625 349//625 100//625
f 100//626 349//626 352//626
f 219//627 473//627 221//627
f 471//628 473//628 219//628
f 97//629 348//629 349//629
f 97//630 96//630 348//630
f 475//631 223//631 473//631
f 473//632 223//632 221//632
f 96//633 94//633 348//633
f 348//634 94//634 346//634
f 475//635 477//635 223//635
f 477//636 225//636 223//636
f 94//637 91//637 346//637
f 346//638 91//638 343//638
f 91//639 341//639 343//639
f 477//640 227//640 225//640
f 479//641 227//641 477//641
f 91//642 89//642 341//642
f 479//643 230//643 227//643
f 482//644 230//644 479//644
f 482//645 483//645 230//645
f 89//646 87//646 341//646
f 341//647 87//647 339//647
f 483//648 231//648 230//648
f 87//649 86//649 339//649
f 339//650 86//650 338//650
f 483//651 234//651 231//651
f 486//652 234//652 483//652
f 487//653 234//653 486//653
f 86//654 83//654 338//654
f 338//655 83//655 335//655
f 487//656 235//656 234//656
f 83//657 81//657 335//657
f 335//658 81//658 333//658
f 490//659 238//659 487//659
f 491//660 238//660 490//660
f 487//661 238//661 235//661
f 331//662 79//662 329//662
f 333//663 79//663 331//663
f 81//664 79//664 333//664
f 491//665 239//665 238//665
f 329//666 77//666 327//666
f 79//667 77//667 329//667
f 491//668 241//668 239//668
f 493//669 241//669 491//669
f 77//670 75//670 327//670
f 495//671 243//671 493//671
f 493//672 243//672 241//672
f 327//673 73//673 325//673
f 75//674 73//674 327//674
f 497//675 245//675 495//675
f 499//676 245//676 497//676
f 495//677 245//677 243//677
f 325//678 71//678 323//678
f 73//679 71//679 325//679
f 499//680 247//680 245//680
f 71//681 69//681 323//681
f 323//682 69//682 321//682
f 499//683 249//683 247//683
f 501//684 249//684 499//684
f 69//685 67//685 321//685
f 321//686 67//686 319//686
f 501//687 251//687 249//687
f 503//688 251//688 501//688
f 254//689 251//689 503//689
f 67//690 65//690 319//690
f 317//691 65//691 315//691
f 319//692 65//692 317//692
f 254//693 1//693 251//693
f 65//694 63//694 315//694
f 315//695 63//695 313//695
f 253//696 2//696 254//696
f 257//697 2//697 253//697
f 254//698 2//698 1//698
f 313//699 61//699 311//699
f 63//700 61//700 313//700
f 257//701 5//701 2//701
f 61//702 59//702 311//702
f 260//703 8//703 257//703
f 257//704 8//704 5//704
f 311//705 57//705 309//705
f 59//706 57//706 311//706
f 261//707 9//707 260//707
f 263//708 9//708 261//708
f 260//709 9//709 8//709
f 309//710 55//710 307//710
f 57//711 55//711 309//711
f 263//712 11//712 9//712
f 55//713 53//713 307//713
f 307//714 53//714 305//714
f 263//715 14//715 11//715
f 266//716 14//716 263//716
f 53//717 51//717 305//717
f 305//718 51//718 303//718
f 267//719 15//719 266//719
f 269//720 15//720 267//720
f 266//721 15//721 14//721
f 51//722 49//722 303//722
f 301//723 49//723 299//723
f 303//724 49//724 301//724
f 269//725 17//725 15//725
f 49//726 47//726 299//726
f 299//727 47//727 297//727
f 272//728 20//728 269//728
f 269//729 20//729 17//729
f 47//730 45//730 297//730
f 272//731 21//731 20//731
f 273//732 21//732 272//732
f 45//733 43//733 297//733
f 297//734 43//734 295//734
f 275//735 23//735 273//735
f 277//736 23//736 275//736
f 273//737 23//737 21//737
f 43//738 41//738 295//738
f 293//739 41//739 291//739
f 295//740 41//740 293//740
f 277//741 25//741 23//741
f 41//742 39//742 291//742
f 279//743 27//743 277//743
f 277//744 27//744 25//744
f 39//745 37//745 291//745
f 291//746 37//746 289//746
f 279//747 30//747 27//747
f 282//748 30//748 279//748
f 283//749 30//749 282//749
f 288//750 36//750 285//750
f 289//751 36//751 288//751
f 37//752 36//752 289//752
f 283//753 31//753 30//753
f 285//754 33//754 283//754
f 36//755 33//755 285//755
f 283//756 33//756 31//756
f 412//757 158//757 160//757
f 412//758 160//758 161//758
f 410//759 158//759 412//759
f 413//760 412//760 161//760
f 407//761 158//761 410//761
f 407//762 155//762 158//762
f 415//763 413//763 161//763
f 415//764 161//764 163//764
f 415//765 163//765 166//765
f 405//766 155//766 407//766
f 405//767 153//767 155//767
f 418//768 415//768 166//768
f 404//769 153//769 405//769
f 404//770 152//770 153//770
f 420//771 418//771 166//771
f 420//772 166//772 168//772
f 420//773 168//773 169//773
f 402//774 152//774 404//774
f 402//775 150//775 152//775
f 421//776 420//776 169//776
f 399//777 150//777 402//777
f 399//778 147//778 150//778
f 423//779 421//779 169//779
f 423//780 169//780 171//780
f 397//781 147//781 399//781
f 397//782 144//782 145//782
f 397//783 145//783 147//783
f 426//784 423//784 171//784
f 426//785 171//785 174//785
f 396//786 144//786 397//786
f 428//787 426//787 174//787
f 428//788 174//788 176//788
f 394//789 144//789 396//789
f 394//790 142//790 144//790
f 430//791 176//791 178//791
f 430//792 428//792 176//792
f 392//793 142//793 394//793
f 392//794 140//794 142//794
f 432//795 430//795 178//795
f 432//796 178//796 180//796
f 390//797 140//797 392//797
f 390//798 138//798 140//798
f 434//799 432//799 180//799
f 434//800 180//800 182//800
f 388//801 138//801 390//801
f 388//802 136//802 138//802
f 436//803 434//803 182//803
f 436//804 182//804 184//804
f 385//805 133//805 136//805
f 385//806 136//806 388//806
f 438//807 436//807 184//807
f 438//808 184//808 186//808
f 438//809 186//809 187//809
f 383//810 131//810 133//810
f 383//811 133//811 385//811
f 439//812 438//812 187//812
f 382//813 127//813 130//813
f 382//814 131//814 383//814
f 382//815 130//815 131//815
f 442//816 439//816 187//816
f 442//817 187//817 190//817
f 379//818 127//818 382//818
f 444//819 442//819 190//819
f 444//820 190//820 192//820
f 378//821 127//821 379//821
f 378//822 123//822 126//822
f 378//823 126//823 127//823
f 446//824 444//824 192//824
f 446//825 192//825 194//825
f 375//826 123//826 378//826
f 375//827 122//827 123//827
f 448//828 194//828 196//828
f 448//829 446//829 194//829
f 374//830 122//830 375//830
f 450//831 448//831 196//831
f 450//832 196//832 198//832
f 372//833 122//833 374//833
f 372//834 120//834 122//834
f 452//835 450//835 198//835
f 452//836 198//836 200//836
f 370//837 120//837 372//837
f 370//838 116//838 118//838
f 370//839 118//839 120//839
f 454//840 452//840 200//840
f 454//841 200//841 202//841
f 368//842 116//842 370//842
f 456//843 202//843 204//843
f 456//844 454//844 202//844
f 365//845 113//845 116//845
f 365//846 116//846 368//846
f 458//847 204//847 206//847
f 458//848 206//848 207//848
f 458//849 456//849 204//849
f 364//850 113//850 365//850
f 364//851 112//851 113//851
f 459//852 458//852 207//852
f 362//853 112//853 364//853
f 362//854 108//854 110//854
f 362//855 110//855 112//855
f 462//856 207//856 210//856
f 462//857 459//857 207//857
f 360//858 108//858 362//858
f 464//859 210//859 212//859
f 464//860 462//860 210//860
f 357//861 105//861 108//861
f 357//862 108//862 360//862
f 104//863 105//863 357//863
f 466//864 212//864 214//864
f 466//865 464//865 212//865
f 216//866 466//866 214//866
f 356//867 104//867 357//867
f 468//868 466//868 216//868
f 354//869 102//869 104//869
f 354//870 104//870 356//870
f 470//871 216//871 218//871
f 470//872 468//872 216//872
f 351//873 99//873 102//873
f 351//874 102//874 354//874
f 472//875 218//875 220//875
f 472//876 470//876 218//876
f 350//877 98//877 99//877
f 350//878 99//878 351//878
f 474//879 220//879 222//879
f 474//880 472//880 220//880
f 347//881 98//881 350//881
f 95//882 98//882 347//882
f 224//883 476//883 474//883
f 224//884 474//884 222//884
f 93//885 95//885 347//885
f 93//886 347//886 345//886
f 478//887 476//887 224//887
f 226//888 478//888 224//888
f 92//889 93//889 345//889
f 92//890 345//890 344//890
f 342//891 92//891 344//891
f 228//892 478//892 226//892
f 228//893 480//893 478//893
f 90//894 92//894 342//894
f 229//895 480//895 228//895
f 229//896 481//896 480//896
f 484//897 481//897 229//897
f 88//898 90//898 342//898
f 88//899 342//899 340//899
f 232//900 484//900 229//900
f 85//901 88//901 340//901
f 85//902 340//902 337//902
f 233//903 484//903 232//903
f 233//904 485//904 484//904
f 233//905 488//905 485//905
f 84//906 85//906 337//906
f 84//907 337//907 336//907
f 236//908 488//908 233//908
f 82//909 84//909 336//909
f 82//910 336//910 334//910
f 237//911 489//911 488//911
f 237//912 492//912 489//912
f 237//913 488//913 236//913
f 80//914 332//914 330//914
f 80//915 334//915 332//915
f 80//916 82//916 334//916
f 240//917 492//917 237//917
f 78//918 330//918 328//918
f 78//919 80//919 330//919
f 242//920 492//920 240//920
f 242//921 494//921 492//921
f 76//922 78//922 328//922
f 244//923 496//923 494//923
f 244//924 494//924 242//924
f 74//925 328//925 326//925
f 74//926 76//926 328//926
f 246//927 498//927 496//927
f 246//928 500//928 498//928
f 246//929 496//929 244//929
f 72//930 326//930 324//930
f 72//931 74//931 326//931
f 248//932 500//932 246//932
f 70//933 72//933 324//933
f 70//934 324//934 322//934
f 250//935 500//935 248//935
f 250//936 502//936 500//936
f 68//937 70//937 322//937
f 68//938 322//938 320//938
f 252//939 502//939 250//939
f 252//940 504//940 502//940
f 252//941 255//941 504//941
f 66//942 68//942 320//942
f 66//943 318//943 316//943
f 66//944 320//944 318//944
f 3//945 255//945 252//945
f 64//946 66//946 316//946
f 64//947 316//947 314//947
f 4//948 256//948 255//948
f 4//949 258//949 256//949
f 4//950 255//950 3//950
f 62//951 314//951 312//951
f 62//952 64//952 314//952
f 6//953 258//953 4//953
f 60//954 62//954 312//954
f 7//955 259//955 258//955
f 7//956 258//956 6//956
f 58//957 312//957 310//957
f 58//958 60//958 312//958
f 10//959 262//959 259//959
f 10//960 264//960 262//960
f 10//961 259//961 7//961
f 56//962 310//962 308//962
f 56//963 58//963 310//963
f 12//964 264//964 10//964
f 54//965 56//965 308//965
f 54//966 308//966 306//966
f 13//967 264//967 12//967
f 13//968 265//968 264//968
f 52//969 54//969 306//969
f 52//970 306//970 304//970
f 16//971 268//971 265//971
f 16//972 270//972 268//972
f 16//973 265//973 13//973
f 50//974 52//974 304//974
f 50//975 302//975 300//975
f 50//976 304//976 302//976
f 18//977 270//977 16//977
f 48//978 50//978 300//978
f 48//979 300//979 298//979
f 19//980 271//980 270//980
f 19//981 270//981 18//981
f 46//982 48//982 298//982
f 22//983 271//983 19//983
f 22//984 274//984 271//984
f 44//985 46//985 298//985
f 44//986 298//986 296//986
f 24//987 276//987 274//987
f 24//988 278//988 276//988
f 24//989 274//989 22//989
f 42//990 44//990 296//990
f 42//991 294//991 292//991
f 42//992 296//992 294//992
f 26//993 278//993 24//993
f 40//994 42//994 292//994
f 28//995 280//995 278//995
f 28//996 278//996 26//996
f 38//997 40//997 292//997
f 38//998 292//998 290//998
f 29//999 280//999 28//999
f 29//1000 281//1000 280//1000
f 29//1001 284//1001 281//1001
f 35//1002 287//1002 286//1002
f 35//1003 290//1003 287//1003
f 35//1004 38//1004 290//1004
f 32//1005 284//1005 29//1005
f 34//1006 286//1006 284//1006
f 34//1007 35//1007 286//1007
f 34//1008 284//1008 32//1008
