# FreeCAD v1.0 build0 Arch module
# https://www.freecad.org
mtllib wall_1_m-Body.mtl
o Body
usemtl color_727980
v 0.0 0.0 400.0
v 0.0 -20.0 400.0
v 0.0 0.0 0.0
v 0.0 -20.0 0.0
v 1000.0 0.0 0.0
v 1000.0 -20.0 0.0
v 1000.0 0.0 400.0
v 1000.0 -20.0 400.0
v 510.0 0.0 190.0
v 510.0 -20.0 190.0
v 510.0 0.0 20.0
v 510.0 -20.0 20.0
v 980.0 0.0 20.0
v 980.0 -20.0 20.0
v 980.0 0.0 190.0
v 980.0 -20.0 190.0
v 510.0 0.0 380.0
v 510.0 -20.0 380.0
v 510.0 0.0 210.0
v 510.0 -20.0 210.0
v 980.0 0.0 210.0
v 980.0 -20.0 210.0
v 980.0 0.0 380.0
v 980.0 -20.0 380.0
v 20.0 0.0 190.0
v 20.0 -20.0 190.0
v 20.0 0.0 20.0
v 20.0 -20.0 20.0
v 490.0 0.0 20.0
v 490.0 -20.0 20.0
v 490.0 0.0 190.0
v 490.0 -20.0 190.0
v 20.0 0.0 380.0
v 20.0 -20.0 380.0
v 20.0 0.0 210.0
v 20.0 -20.0 210.0
v 490.0 0.0 210.0
v 490.0 -20.0 210.0
v 490.0 0.0 380.0
v 490.0 -20.0 380.0
f 4 3 1 2
f 6 5 3 4
f 8 7 5 6
f 2 1 7 8
f 9 10 12 11
f 11 12 14 13
f 13 14 16 15
f 15 16 10 9
f 17 18 20 19
f 19 20 22 21
f 21 22 24 23
f 23 24 18 17
f 25 26 28 27
f 27 28 30 29
f 29 30 32 31
f 31 32 26 25
f 33 34 36 35
f 35 36 38 37
f 37 38 40 39
f 39 40 34 33
f 25 27 3
f 1 25 3
f 1 35 25
f 33 35 1
f 29 3 27
f 37 31 25
f 37 25 35
f 9 29 31
f 9 11 29
f 19 9 31
f 19 31 37
f 39 33 1
f 39 19 37
f 17 19 39
f 13 5 11
f 15 5 13
f 21 15 9
f 21 9 19
f 7 21 23
f 7 23 17
f 1 7 17
f 1 17 39
f 7 5 15
f 7 15 21
f 5 3 29
f 5 29 11
f 28 26 4
f 26 2 4
f 36 2 26
f 36 34 2
f 4 30 28
f 32 38 26
f 26 38 36
f 30 10 32
f 12 10 30
f 10 20 32
f 32 20 38
f 34 40 2
f 20 40 38
f 20 18 40
f 6 14 12
f 6 16 14
f 16 22 10
f 10 22 20
f 22 8 24
f 24 8 18
f 8 2 18
f 18 2 40
f 6 8 16
f 16 8 22
f 4 6 30
f 30 6 12
