ISO-10303-21;
HEADER;
FILE_DESCRIPTION(('FreeCAD Model'),'2;1');
FILE_NAME('Open CASCADE Shape Model','2000-01-01T00:00:00',('Author'),(
    ''),'Open CASCADE STEP processor 7.8','FreeCAD','Unknown');
FILE_SCHEMA(('AUTOMOTIVE_DESIGN { 1 0 10303 214 1 1 1 1 }'));
ENDSEC;
DATA;
#1 = APPLICATION_PROTOCOL_DEFINITION('international standard',
  'automotive_design',2000,#2);
#2 = APPLICATION_CONTEXT(
  'core data for automotive mechanical design processes');
#3 = SHAPE_DEFINITION_REPRESENTATION(#4,#10);
#4 = PRODUCT_DEFINITION_SHAPE('','',#5);
#5 = PRODUCT_DEFINITION('design','',#6,#9);
#6 = PRODUCT_DEFINITION_FORMATION('','',#7);
#7 = PRODUCT('camera_bracket_d405','camera_bracket_d405','',(#8));
#8 = PRODUCT_CONTEXT('',#2,'mechanical');
#9 = PRODUCT_DEFINITION_CONTEXT('part definition',#2,'design');
#10 = ADVANCED_BREP_SHAPE_REPRESENTATION('',(#11,#15),#675);
#11 = AXIS2_PLACEMENT_3D('',#12,#13,#14);
#12 = CARTESIAN_POINT('',(0.,0.,0.));
#13 = DIRECTION('',(0.,0.,1.));
#14 = DIRECTION('',(1.,0.,-0.));
#15 = MANIFOLD_SOLID_BREP('',#16);
#16 = CLOSED_SHELL('',(#17,#59,#124,#209,#241,#299,#332,#363,#410,#428,
    #453,#478,#503,#528,#553,#578,#590,#612,#643,#655));
#17 = ADVANCED_FACE('',(#18),#54,.T.);
#18 = FACE_BOUND('',#19,.T.);
#19 = EDGE_LOOP('',(#20,#31,#39,#48));
#20 = ORIENTED_EDGE('',*,*,#21,.T.);
#21 = EDGE_CURVE('',#22,#24,#26,.T.);
#22 = VERTEX_POINT('',#23);
#23 = CARTESIAN_POINT('',(-11.5,57.344434518509,-23.61918351155));
#24 = VERTEX_POINT('',#25);
#25 = CARTESIAN_POINT('',(-13.5,55.477273665514,-22.90244761246));
#26 = CIRCLE('',#27,2.);
#27 = AXIS2_PLACEMENT_3D('',#28,#29,#30);
#28 = CARTESIAN_POINT('',(-11.5,55.477273665514,-22.90244761246));
#29 = DIRECTION('',(-5.551115123126E-17,0.358367949545,0.933580426497));
#30 = DIRECTION('',(-0.707106781187,0.660141050359,-0.253404407283));
#31 = ORIENTED_EDGE('',*,*,#32,.T.);
#32 = EDGE_CURVE('',#24,#33,#35,.T.);
#33 = VERTEX_POINT('',#34);
#34 = CARTESIAN_POINT('',(-13.5,56.55237751415,-20.10170633297));
#35 = LINE('',#36,#37);
#36 = CARTESIAN_POINT('',(-13.5,56.518074133448,-20.19106969492));
#37 = VECTOR('',#38,1.);
#38 = DIRECTION('',(0.,0.358367949545,0.933580426497));
#39 = ORIENTED_EDGE('',*,*,#40,.T.);
#40 = EDGE_CURVE('',#33,#41,#43,.T.);
#41 = VERTEX_POINT('',#42);
#42 = CARTESIAN_POINT('',(-11.5,58.419538367144,-20.81844223206));
#43 = CIRCLE('',#44,2.);
#44 = AXIS2_PLACEMENT_3D('',#45,#46,#47);
#45 = CARTESIAN_POINT('',(-11.5,56.55237751415,-20.10170633297));
#46 = DIRECTION('',(5.551115123126E-17,-0.358367949545,-0.933580426497)
  );
#47 = DIRECTION('',(-0.707106781187,0.660141050359,-0.253404407283));
#48 = ORIENTED_EDGE('',*,*,#49,.T.);
#49 = EDGE_CURVE('',#41,#22,#50,.T.);
#50 = LINE('',#51,#52);
#51 = CARTESIAN_POINT('',(-11.5,58.385234986442,-20.90780559401));
#52 = VECTOR('',#53,1.);
#53 = DIRECTION('',(0.,-0.358367949545,-0.933580426497));
#54 = CYLINDRICAL_SURFACE('',#55,2.);
#55 = AXIS2_PLACEMENT_3D('',#56,#57,#58);
#56 = CARTESIAN_POINT('',(-11.5,56.518074133448,-20.19106969492));
#57 = DIRECTION('',(0.,-0.358367949545,-0.933580426497));
#58 = DIRECTION('',(-0.707106781187,0.660141050359,-0.253404407283));
#59 = ADVANCED_FACE('',(#60),#119,.T.);
#60 = FACE_BOUND('',#61,.T.);
#61 = EDGE_LOOP('',(#62,#63,#71,#80,#88,#96,#104,#113));
#62 = ORIENTED_EDGE('',*,*,#32,.F.);
#63 = ORIENTED_EDGE('',*,*,#64,.T.);
#64 = EDGE_CURVE('',#24,#65,#67,.T.);
#65 = VERTEX_POINT('',#66);
#66 = CARTESIAN_POINT('',(-13.5,1.066528201819,-2.016119309485));
#67 = LINE('',#68,#69);
#68 = CARTESIAN_POINT('',(-13.5,-1.5,-1.030921437902));
#69 = VECTOR('',#70,1.);
#70 = DIRECTION('',(0.,-0.933580426497,0.358367949545));
#71 = ORIENTED_EDGE('',*,*,#72,.F.);
#72 = EDGE_CURVE('',#73,#65,#75,.T.);
#73 = VERTEX_POINT('',#74);
#74 = CARTESIAN_POINT('',(-13.5,-1.5,1.718202396504));
#75 = CIRCLE('',#76,4.);
#76 = AXIS2_PLACEMENT_3D('',#77,#78,#79);
#77 = CARTESIAN_POINT('',(-13.5,2.5,1.718202396504));
#78 = DIRECTION('',(1.,0.,0.));
#79 = DIRECTION('',(0.,-0.824126188622,-0.566406236925));
#80 = ORIENTED_EDGE('',*,*,#81,.T.);
#81 = EDGE_CURVE('',#73,#82,#84,.T.);
#82 = VERTEX_POINT('',#83);
#83 = CARTESIAN_POINT('',(-13.5,-1.5,9.));
#84 = LINE('',#85,#86);
#85 = CARTESIAN_POINT('',(-13.5,-1.5,11.));
#86 = VECTOR('',#87,1.);
#87 = DIRECTION('',(0.,-2.537721930509E-16,1.));
#88 = ORIENTED_EDGE('',*,*,#89,.F.);
#89 = EDGE_CURVE('',#90,#82,#92,.T.);
#90 = VERTEX_POINT('',#91);
#91 = CARTESIAN_POINT('',(-13.5,1.5,9.));
#92 = LINE('',#93,#94);
#93 = CARTESIAN_POINT('',(-13.5,14.979884591786,9.));
#94 = VECTOR('',#95,1.);
#95 = DIRECTION('',(0.,-1.,0.));
#96 = ORIENTED_EDGE('',*,*,#97,.T.);
#97 = EDGE_CURVE('',#90,#98,#100,.T.);
#98 = VERTEX_POINT('',#99);
#99 = CARTESIAN_POINT('',(-13.5,1.5,2.405483355106));
#100 = LINE('',#101,#102);
#101 = CARTESIAN_POINT('',(-13.5,1.5,1.030921437902));
#102 = VECTOR('',#103,1.);
#103 = DIRECTION('',(0.,1.392083302521E-16,-1.));
#104 = ORIENTED_EDGE('',*,*,#105,.F.);
#105 = EDGE_CURVE('',#106,#98,#108,.T.);
#106 = VERTEX_POINT('',#107);
#107 = CARTESIAN_POINT('',(-13.5,2.783264100909,0.538322502111));
#108 = CIRCLE('',#109,2.);
#109 = AXIS2_PLACEMENT_3D('',#110,#111,#112);
#110 = CARTESIAN_POINT('',(-13.5,3.5,2.405483355106));
#111 = DIRECTION('',(-1.,0.,0.));
#112 = DIRECTION('',(-0.,-0.824126188622,-0.566406236925));
#113 = ORIENTED_EDGE('',*,*,#114,.T.);
#114 = EDGE_CURVE('',#106,#33,#115,.T.);
#115 = LINE('',#116,#117);
#116 = CARTESIAN_POINT('',(-13.5,58.419538367144,-20.81844223206));
#117 = VECTOR('',#118,1.);
#118 = DIRECTION('',(0.,0.933580426497,-0.358367949545));
#119 = PLANE('',#120);
#120 = AXIS2_PLACEMENT_3D('',#121,#122,#123);
#121 = CARTESIAN_POINT('',(-13.5,28.459769183572,-6.309591755777));
#122 = DIRECTION('',(-1.,0.,0.));
#123 = DIRECTION('',(0.,0.,1.));
#124 = ADVANCED_FACE('',(#125,#160,#171,#182,#193),#204,.T.);
#125 = FACE_BOUND('',#126,.T.);
#126 = EDGE_LOOP('',(#127,#128,#136,#145,#153,#159));
#127 = ORIENTED_EDGE('',*,*,#21,.F.);
#128 = ORIENTED_EDGE('',*,*,#129,.T.);
#129 = EDGE_CURVE('',#22,#130,#132,.T.);
#130 = VERTEX_POINT('',#131);
#131 = CARTESIAN_POINT('',(11.5,57.344434518509,-23.61918351155));
#132 = LINE('',#133,#134);
#133 = CARTESIAN_POINT('',(0.,57.344434518509,-23.61918351155));
#134 = VECTOR('',#135,1.);
#135 = DIRECTION('',(1.,0.,0.));
#136 = ORIENTED_EDGE('',*,*,#137,.F.);
#137 = EDGE_CURVE('',#138,#130,#140,.T.);
#138 = VERTEX_POINT('',#139);
#139 = CARTESIAN_POINT('',(13.5,55.477273665514,-22.90244761246));
#140 = CIRCLE('',#141,2.);
#141 = AXIS2_PLACEMENT_3D('',#142,#143,#144);
#142 = CARTESIAN_POINT('',(11.5,55.477273665514,-22.90244761246));
#143 = DIRECTION('',(5.551115123126E-17,0.358367949545,0.933580426497));
#144 = DIRECTION('',(0.707106781187,0.660141050359,-0.253404407283));
#145 = ORIENTED_EDGE('',*,*,#146,.F.);
#146 = EDGE_CURVE('',#147,#138,#149,.T.);
#147 = VERTEX_POINT('',#148);
#148 = CARTESIAN_POINT('',(13.5,1.066528201819,-2.016119309485));
#149 = LINE('',#150,#151);
#150 = CARTESIAN_POINT('',(13.5,-1.5,-1.030921437902));
#151 = VECTOR('',#152,1.);
#152 = DIRECTION('',(0.,0.933580426497,-0.358367949545));
#153 = ORIENTED_EDGE('',*,*,#154,.F.);
#154 = EDGE_CURVE('',#65,#147,#155,.T.);
#155 = LINE('',#156,#157);
#156 = CARTESIAN_POINT('',(0.,1.066528201819,-2.016119309485));
#157 = VECTOR('',#158,1.);
#158 = DIRECTION('',(1.,0.,0.));
#159 = ORIENTED_EDGE('',*,*,#64,.F.);
#160 = FACE_BOUND('',#161,.T.);
#161 = EDGE_LOOP('',(#162));
#162 = ORIENTED_EDGE('',*,*,#163,.T.);
#163 = EDGE_CURVE('',#164,#164,#166,.T.);
#164 = VERTEX_POINT('',#165);
#165 = CARTESIAN_POINT('',(8.5,43.807518334299,-18.42284824314));
#166 = CIRCLE('',#167,1.5);
#167 = AXIS2_PLACEMENT_3D('',#168,#169,#170);
#168 = CARTESIAN_POINT('',(10.,43.807518334299,-18.42284824314));
#169 = DIRECTION('',(0.,0.358367949545,0.933580426497));
#170 = DIRECTION('',(1.,0.,-0.));
#171 = FACE_BOUND('',#172,.T.);
#172 = EDGE_LOOP('',(#173));
#173 = ORIENTED_EDGE('',*,*,#174,.T.);
#174 = EDGE_CURVE('',#175,#175,#177,.T.);
#175 = VERTEX_POINT('',#176);
#176 = CARTESIAN_POINT('',(-1.5,34.471714069327,-14.83916874769));
#177 = CIRCLE('',#178,1.5);
#178 = AXIS2_PLACEMENT_3D('',#179,#180,#181);
#179 = CARTESIAN_POINT('',(0.,34.471714069327,-14.83916874769));
#180 = DIRECTION('',(0.,0.358367949545,0.933580426497));
#181 = DIRECTION('',(1.,0.,-0.));
#182 = FACE_BOUND('',#183,.T.);
#183 = EDGE_LOOP('',(#184));
#184 = ORIENTED_EDGE('',*,*,#185,.T.);
#185 = EDGE_CURVE('',#186,#186,#188,.T.);
#186 = VERTEX_POINT('',#187);
#187 = CARTESIAN_POINT('',(-11.5,43.807518334299,-18.42284824314));
#188 = CIRCLE('',#189,1.5);
#189 = AXIS2_PLACEMENT_3D('',#190,#191,#192);
#190 = CARTESIAN_POINT('',(-10.,43.807518334299,-18.42284824314));
#191 = DIRECTION('',(0.,0.358367949545,0.933580426497));
#192 = DIRECTION('',(1.,0.,-0.));
#193 = FACE_BOUND('',#194,.T.);
#194 = EDGE_LOOP('',(#195));
#195 = ORIENTED_EDGE('',*,*,#196,.T.);
#196 = EDGE_CURVE('',#197,#197,#199,.T.);
#197 = VERTEX_POINT('',#198);
#198 = CARTESIAN_POINT('',(-1.5,53.143322599271,-22.0065277386));
#199 = CIRCLE('',#200,1.5);
#200 = AXIS2_PLACEMENT_3D('',#201,#202,#203);
#201 = CARTESIAN_POINT('',(-2.22044604925E-15,53.143322599271,
    -22.0065277386));
#202 = DIRECTION('',(0.,0.358367949545,0.933580426497));
#203 = DIRECTION('',(1.,0.,-0.));
#204 = PLANE('',#205);
#205 = AXIS2_PLACEMENT_3D('',#206,#207,#208);
#206 = CARTESIAN_POINT('',(0.,-1.5,-1.030921437902));
#207 = DIRECTION('',(0.,-0.358367949545,-0.933580426497));
#208 = DIRECTION('',(0.,0.933580426497,-0.358367949545));
#209 = ADVANCED_FACE('',(#210),#236,.T.);
#210 = FACE_BOUND('',#211,.T.);
#211 = EDGE_LOOP('',(#212,#223,#229,#230));
#212 = ORIENTED_EDGE('',*,*,#213,.T.);
#213 = EDGE_CURVE('',#214,#216,#218,.T.);
#214 = VERTEX_POINT('',#215);
#215 = CARTESIAN_POINT('',(11.5,58.419538367144,-20.81844223206));
#216 = VERTEX_POINT('',#217);
#217 = CARTESIAN_POINT('',(13.5,56.55237751415,-20.10170633297));
#218 = CIRCLE('',#219,2.);
#219 = AXIS2_PLACEMENT_3D('',#220,#221,#222);
#220 = CARTESIAN_POINT('',(11.5,56.55237751415,-20.10170633297));
#221 = DIRECTION('',(-5.551115123126E-17,-0.358367949545,-0.933580426497
    ));
#222 = DIRECTION('',(0.707106781187,0.660141050359,-0.253404407283));
#223 = ORIENTED_EDGE('',*,*,#224,.T.);
#224 = EDGE_CURVE('',#216,#138,#225,.T.);
#225 = LINE('',#226,#227);
#226 = CARTESIAN_POINT('',(13.5,56.518074133448,-20.19106969492));
#227 = VECTOR('',#228,1.);
#228 = DIRECTION('',(0.,-0.358367949545,-0.933580426497));
#229 = ORIENTED_EDGE('',*,*,#137,.T.);
#230 = ORIENTED_EDGE('',*,*,#231,.T.);
#231 = EDGE_CURVE('',#130,#214,#232,.T.);
#232 = LINE('',#233,#234);
#233 = CARTESIAN_POINT('',(11.5,58.385234986442,-20.90780559401));
#234 = VECTOR('',#235,1.);
#235 = DIRECTION('',(0.,0.358367949545,0.933580426497));
#236 = CYLINDRICAL_SURFACE('',#237,2.);
#237 = AXIS2_PLACEMENT_3D('',#238,#239,#240);
#238 = CARTESIAN_POINT('',(11.5,56.518074133448,-20.19106969492));
#239 = DIRECTION('',(0.,0.358367949545,0.933580426497));
#240 = DIRECTION('',(0.707106781187,0.660141050359,-0.253404407283));
#241 = ADVANCED_FACE('',(#242),#294,.T.);
#242 = FACE_BOUND('',#243,.T.);
#243 = EDGE_LOOP('',(#244,#245,#253,#262,#270,#278,#286,#293));
#244 = ORIENTED_EDGE('',*,*,#224,.F.);
#245 = ORIENTED_EDGE('',*,*,#246,.T.);
#246 = EDGE_CURVE('',#216,#247,#249,.T.);
#247 = VERTEX_POINT('',#248);
#248 = CARTESIAN_POINT('',(13.5,2.783264100909,0.538322502111));
#249 = LINE('',#250,#251);
#250 = CARTESIAN_POINT('',(13.5,58.419538367144,-20.81844223206));
#251 = VECTOR('',#252,1.);
#252 = DIRECTION('',(0.,-0.933580426497,0.358367949545));
#253 = ORIENTED_EDGE('',*,*,#254,.F.);
#254 = EDGE_CURVE('',#255,#247,#257,.T.);
#255 = VERTEX_POINT('',#256);
#256 = CARTESIAN_POINT('',(13.5,1.5,2.405483355106));
#257 = CIRCLE('',#258,2.);
#258 = AXIS2_PLACEMENT_3D('',#259,#260,#261);
#259 = CARTESIAN_POINT('',(13.5,3.5,2.405483355106));
#260 = DIRECTION('',(1.,0.,0.));
#261 = DIRECTION('',(0.,-0.824126188622,-0.566406236925));
#262 = ORIENTED_EDGE('',*,*,#263,.T.);
#263 = EDGE_CURVE('',#255,#264,#266,.T.);
#264 = VERTEX_POINT('',#265);
#265 = CARTESIAN_POINT('',(13.5,1.5,9.));
#266 = LINE('',#267,#268);
#267 = CARTESIAN_POINT('',(13.5,1.5,1.030921437902));
#268 = VECTOR('',#269,1.);
#269 = DIRECTION('',(0.,-1.392083302521E-16,1.));
#270 = ORIENTED_EDGE('',*,*,#271,.F.);
#271 = EDGE_CURVE('',#272,#264,#274,.T.);
#272 = VERTEX_POINT('',#273);
#273 = CARTESIAN_POINT('',(13.5,-1.5,9.));
#274 = LINE('',#275,#276);
#275 = CARTESIAN_POINT('',(13.5,14.979884591786,9.));
#276 = VECTOR('',#277,1.);
#277 = DIRECTION('',(0.,1.,0.));
#278 = ORIENTED_EDGE('',*,*,#279,.T.);
#279 = EDGE_CURVE('',#272,#280,#282,.T.);
#280 = VERTEX_POINT('',#281);
#281 = CARTESIAN_POINT('',(13.5,-1.5,1.718202396504));
#282 = LINE('',#283,#284);
#283 = CARTESIAN_POINT('',(13.5,-1.5,11.));
#284 = VECTOR('',#285,1.);
#285 = DIRECTION('',(0.,2.537721930509E-16,-1.));
#286 = ORIENTED_EDGE('',*,*,#287,.F.);
#287 = EDGE_CURVE('',#147,#280,#288,.T.);
#288 = CIRCLE('',#289,4.);
#289 = AXIS2_PLACEMENT_3D('',#290,#291,#292);
#290 = CARTESIAN_POINT('',(13.5,2.5,1.718202396504));
#291 = DIRECTION('',(-1.,0.,0.));
#292 = DIRECTION('',(-0.,-0.824126188622,-0.566406236925));
#293 = ORIENTED_EDGE('',*,*,#146,.T.);
#294 = PLANE('',#295);
#295 = AXIS2_PLACEMENT_3D('',#296,#297,#298);
#296 = CARTESIAN_POINT('',(13.5,28.459769183572,-6.309591755777));
#297 = DIRECTION('',(1.,0.,0.));
#298 = DIRECTION('',(0.,0.,-1.));
#299 = ADVANCED_FACE('',(#300),#327,.T.);
#300 = FACE_BOUND('',#301,.T.);
#301 = EDGE_LOOP('',(#302,#311,#312,#321));
#302 = ORIENTED_EDGE('',*,*,#303,.T.);
#303 = EDGE_CURVE('',#304,#90,#306,.T.);
#304 = VERTEX_POINT('',#305);
#305 = CARTESIAN_POINT('',(-11.5,1.5,11.));
#306 = CIRCLE('',#307,2.);
#307 = AXIS2_PLACEMENT_3D('',#308,#309,#310);
#308 = CARTESIAN_POINT('',(-11.5,1.5,9.));
#309 = DIRECTION('',(0.,-1.,-1.392083302521E-16));
#310 = DIRECTION('',(-0.707106781187,-9.843515431891E-17,0.707106781187)
  );
#311 = ORIENTED_EDGE('',*,*,#89,.T.);
#312 = ORIENTED_EDGE('',*,*,#313,.T.);
#313 = EDGE_CURVE('',#82,#314,#316,.T.);
#314 = VERTEX_POINT('',#315);
#315 = CARTESIAN_POINT('',(-11.5,-1.5,11.));
#316 = CIRCLE('',#317,2.);
#317 = AXIS2_PLACEMENT_3D('',#318,#319,#320);
#318 = CARTESIAN_POINT('',(-11.5,-1.5,9.));
#319 = DIRECTION('',(0.,1.,2.537721930509E-16));
#320 = DIRECTION('',(-0.707106781187,-1.794440385828E-16,0.707106781187)
  );
#321 = ORIENTED_EDGE('',*,*,#322,.T.);
#322 = EDGE_CURVE('',#314,#304,#323,.T.);
#323 = LINE('',#324,#325);
#324 = CARTESIAN_POINT('',(-11.5,14.979884591786,11.));
#325 = VECTOR('',#326,1.);
#326 = DIRECTION('',(0.,1.,0.));
#327 = CYLINDRICAL_SURFACE('',#328,2.);
#328 = AXIS2_PLACEMENT_3D('',#329,#330,#331);
#329 = CARTESIAN_POINT('',(-11.5,14.979884591786,9.));
#330 = DIRECTION('',(0.,1.,0.));
#331 = DIRECTION('',(-0.707106781187,0.,0.707106781187));
#332 = ADVANCED_FACE('',(#333),#358,.T.);
#333 = FACE_BOUND('',#334,.T.);
#334 = EDGE_LOOP('',(#335,#336,#344,#352));
#335 = ORIENTED_EDGE('',*,*,#322,.F.);
#336 = ORIENTED_EDGE('',*,*,#337,.T.);
#337 = EDGE_CURVE('',#314,#338,#340,.T.);
#338 = VERTEX_POINT('',#339);
#339 = CARTESIAN_POINT('',(11.5,-1.5,11.));
#340 = LINE('',#341,#342);
#341 = CARTESIAN_POINT('',(0.,-1.5,11.));
#342 = VECTOR('',#343,1.);
#343 = DIRECTION('',(1.,0.,0.));
#344 = ORIENTED_EDGE('',*,*,#345,.F.);
#345 = EDGE_CURVE('',#346,#338,#348,.T.);
#346 = VERTEX_POINT('',#347);
#347 = CARTESIAN_POINT('',(11.5,1.5,11.));
#348 = LINE('',#349,#350);
#349 = CARTESIAN_POINT('',(11.5,14.979884591786,11.));
#350 = VECTOR('',#351,1.);
#351 = DIRECTION('',(0.,-1.,0.));
#352 = ORIENTED_EDGE('',*,*,#353,.F.);
#353 = EDGE_CURVE('',#304,#346,#354,.T.);
#354 = LINE('',#355,#356);
#355 = CARTESIAN_POINT('',(0.,1.5,11.));
#356 = VECTOR('',#357,1.);
#357 = DIRECTION('',(1.,0.,0.));
#358 = PLANE('',#359);
#359 = AXIS2_PLACEMENT_3D('',#360,#361,#362);
#360 = CARTESIAN_POINT('',(0.,1.5,11.));
#361 = DIRECTION('',(0.,0.,1.));
#362 = DIRECTION('',(0.,-1.,0.));
#363 = ADVANCED_FACE('',(#364,#383,#394),#405,.T.);
#364 = FACE_BOUND('',#365,.T.);
#365 = EDGE_LOOP('',(#366,#367,#368,#374,#375,#382));
#366 = ORIENTED_EDGE('',*,*,#313,.F.);
#367 = ORIENTED_EDGE('',*,*,#81,.F.);
#368 = ORIENTED_EDGE('',*,*,#369,.F.);
#369 = EDGE_CURVE('',#280,#73,#370,.T.);
#370 = LINE('',#371,#372);
#371 = CARTESIAN_POINT('',(0.,-1.5,1.718202396504));
#372 = VECTOR('',#373,1.);
#373 = DIRECTION('',(-1.,0.,0.));
#374 = ORIENTED_EDGE('',*,*,#279,.F.);
#375 = ORIENTED_EDGE('',*,*,#376,.F.);
#376 = EDGE_CURVE('',#338,#272,#377,.T.);
#377 = CIRCLE('',#378,2.);
#378 = AXIS2_PLACEMENT_3D('',#379,#380,#381);
#379 = CARTESIAN_POINT('',(11.5,-1.5,9.));
#380 = DIRECTION('',(0.,1.,2.537721930509E-16));
#381 = DIRECTION('',(0.707106781187,-1.794440385828E-16,0.707106781187)
  );
#382 = ORIENTED_EDGE('',*,*,#337,.F.);
#383 = FACE_BOUND('',#384,.T.);
#384 = EDGE_LOOP('',(#385));
#385 = ORIENTED_EDGE('',*,*,#386,.T.);
#386 = EDGE_CURVE('',#387,#387,#389,.T.);
#387 = VERTEX_POINT('',#388);
#388 = CARTESIAN_POINT('',(-10.5,-1.5,6.5));
#389 = CIRCLE('',#390,1.5);
#390 = AXIS2_PLACEMENT_3D('',#391,#392,#393);
#391 = CARTESIAN_POINT('',(-9.,-1.5,6.5));
#392 = DIRECTION('',(0.,1.,2.537721930509E-16));
#393 = DIRECTION('',(1.,0.,-0.));
#394 = FACE_BOUND('',#395,.T.);
#395 = EDGE_LOOP('',(#396));
#396 = ORIENTED_EDGE('',*,*,#397,.T.);
#397 = EDGE_CURVE('',#398,#398,#400,.T.);
#398 = VERTEX_POINT('',#399);
#399 = CARTESIAN_POINT('',(7.5,-1.5,6.5));
#400 = CIRCLE('',#401,1.5);
#401 = AXIS2_PLACEMENT_3D('',#402,#403,#404);
#402 = CARTESIAN_POINT('',(9.,-1.5,6.5));
#403 = DIRECTION('',(0.,1.,2.537721930509E-16));
#404 = DIRECTION('',(1.,0.,-0.));
#405 = PLANE('',#406);
#406 = AXIS2_PLACEMENT_3D('',#407,#408,#409);
#407 = CARTESIAN_POINT('',(0.,-1.5,11.));
#408 = DIRECTION('',(0.,-1.,-2.537721930509E-16));
#409 = DIRECTION('',(0.,2.537721930509E-16,-1.));
#410 = ADVANCED_FACE('',(#411),#423,.T.);
#411 = FACE_BOUND('',#412,.T.);
#412 = EDGE_LOOP('',(#413,#414,#415,#422));
#413 = ORIENTED_EDGE('',*,*,#376,.T.);
#414 = ORIENTED_EDGE('',*,*,#271,.T.);
#415 = ORIENTED_EDGE('',*,*,#416,.T.);
#416 = EDGE_CURVE('',#264,#346,#417,.T.);
#417 = CIRCLE('',#418,2.);
#418 = AXIS2_PLACEMENT_3D('',#419,#420,#421);
#419 = CARTESIAN_POINT('',(11.5,1.5,9.));
#420 = DIRECTION('',(0.,-1.,-1.392083302521E-16));
#421 = DIRECTION('',(0.707106781187,-9.843515431891E-17,0.707106781187)
  );
#422 = ORIENTED_EDGE('',*,*,#345,.T.);
#423 = CYLINDRICAL_SURFACE('',#424,2.);
#424 = AXIS2_PLACEMENT_3D('',#425,#426,#427);
#425 = CARTESIAN_POINT('',(11.5,14.979884591786,9.));
#426 = DIRECTION('',(0.,-1.,0.));
#427 = DIRECTION('',(0.707106781187,0.,0.707106781187));
#428 = ADVANCED_FACE('',(#429),#448,.F.);
#429 = FACE_BOUND('',#430,.F.);
#430 = EDGE_LOOP('',(#431,#439,#446,#447));
#431 = ORIENTED_EDGE('',*,*,#432,.T.);
#432 = EDGE_CURVE('',#164,#433,#435,.T.);
#433 = VERTEX_POINT('',#434);
#434 = CARTESIAN_POINT('',(8.5,44.882622182935,-15.62210696365));
#435 = LINE('',#436,#437);
#436 = CARTESIAN_POINT('',(8.5,18.262277658106,-84.97047538366));
#437 = VECTOR('',#438,1.);
#438 = DIRECTION('',(0.,0.358367949545,0.933580426497));
#439 = ORIENTED_EDGE('',*,*,#440,.T.);
#440 = EDGE_CURVE('',#433,#433,#441,.T.);
#441 = CIRCLE('',#442,1.5);
#442 = AXIS2_PLACEMENT_3D('',#443,#444,#445);
#443 = CARTESIAN_POINT('',(10.,44.882622182935,-15.62210696365));
#444 = DIRECTION('',(0.,-0.358367949545,-0.933580426497));
#445 = DIRECTION('',(1.,0.,0.));
#446 = ORIENTED_EDGE('',*,*,#432,.F.);
#447 = ORIENTED_EDGE('',*,*,#163,.T.);
#448 = CYLINDRICAL_SURFACE('',#449,1.5);
#449 = AXIS2_PLACEMENT_3D('',#450,#451,#452);
#450 = CARTESIAN_POINT('',(10.,18.262277658106,-84.97047538366));
#451 = DIRECTION('',(0.,0.358367949545,0.933580426497));
#452 = DIRECTION('',(1.,0.,-0.));
#453 = ADVANCED_FACE('',(#454),#473,.F.);
#454 = FACE_BOUND('',#455,.F.);
#455 = EDGE_LOOP('',(#456,#464,#471,#472));
#456 = ORIENTED_EDGE('',*,*,#457,.T.);
#457 = EDGE_CURVE('',#175,#458,#460,.T.);
#458 = VERTEX_POINT('',#459);
#459 = CARTESIAN_POINT('',(-1.5,35.546817917963,-12.0384274682));
#460 = LINE('',#461,#462);
#461 = CARTESIAN_POINT('',(-1.5,8.926473393134,-81.38679588821));
#462 = VECTOR('',#463,1.);
#463 = DIRECTION('',(0.,0.358367949545,0.933580426497));
#464 = ORIENTED_EDGE('',*,*,#465,.T.);
#465 = EDGE_CURVE('',#458,#458,#466,.T.);
#466 = CIRCLE('',#467,1.5);
#467 = AXIS2_PLACEMENT_3D('',#468,#469,#470);
#468 = CARTESIAN_POINT('',(0.,35.546817917963,-12.0384274682));
#469 = DIRECTION('',(0.,-0.358367949545,-0.933580426497));
#470 = DIRECTION('',(1.,0.,0.));
#471 = ORIENTED_EDGE('',*,*,#457,.F.);
#472 = ORIENTED_EDGE('',*,*,#174,.T.);
#473 = CYLINDRICAL_SURFACE('',#474,1.5);
#474 = AXIS2_PLACEMENT_3D('',#475,#476,#477);
#475 = CARTESIAN_POINT('',(0.,8.926473393134,-81.38679588821));
#476 = DIRECTION('',(0.,0.358367949545,0.933580426497));
#477 = DIRECTION('',(1.,0.,-0.));
#478 = ADVANCED_FACE('',(#479),#498,.F.);
#479 = FACE_BOUND('',#480,.F.);
#480 = EDGE_LOOP('',(#481,#489,#496,#497));
#481 = ORIENTED_EDGE('',*,*,#482,.T.);
#482 = EDGE_CURVE('',#186,#483,#485,.T.);
#483 = VERTEX_POINT('',#484);
#484 = CARTESIAN_POINT('',(-11.5,44.882622182935,-15.62210696365));
#485 = LINE('',#486,#487);
#486 = CARTESIAN_POINT('',(-11.5,18.262277658106,-84.97047538366));
#487 = VECTOR('',#488,1.);
#488 = DIRECTION('',(0.,0.358367949545,0.933580426497));
#489 = ORIENTED_EDGE('',*,*,#490,.T.);
#490 = EDGE_CURVE('',#483,#483,#491,.T.);
#491 = CIRCLE('',#492,1.5);
#492 = AXIS2_PLACEMENT_3D('',#493,#494,#495);
#493 = CARTESIAN_POINT('',(-10.,44.882622182935,-15.62210696365));
#494 = DIRECTION('',(0.,-0.358367949545,-0.933580426497));
#495 = DIRECTION('',(1.,0.,0.));
#496 = ORIENTED_EDGE('',*,*,#482,.F.);
#497 = ORIENTED_EDGE('',*,*,#185,.T.);
#498 = CYLINDRICAL_SURFACE('',#499,1.5);
#499 = AXIS2_PLACEMENT_3D('',#500,#501,#502);
#500 = CARTESIAN_POINT('',(-10.,18.262277658106,-84.97047538366));
#501 = DIRECTION('',(0.,0.358367949545,0.933580426497));
#502 = DIRECTION('',(1.,0.,-0.));
#503 = ADVANCED_FACE('',(#504),#523,.F.);
#504 = FACE_BOUND('',#505,.F.);
#505 = EDGE_LOOP('',(#506,#514,#521,#522));
#506 = ORIENTED_EDGE('',*,*,#507,.T.);
#507 = EDGE_CURVE('',#197,#508,#510,.T.);
#508 = VERTEX_POINT('',#509);
#509 = CARTESIAN_POINT('',(-1.5,54.218426447907,-19.2057864591));
#510 = LINE('',#511,#512);
#511 = CARTESIAN_POINT('',(-1.5,27.598081923078,-88.55415487912));
#512 = VECTOR('',#513,1.);
#513 = DIRECTION('',(0.,0.358367949545,0.933580426497));
#514 = ORIENTED_EDGE('',*,*,#515,.T.);
#515 = EDGE_CURVE('',#508,#508,#516,.T.);
#516 = CIRCLE('',#517,1.5);
#517 = AXIS2_PLACEMENT_3D('',#518,#519,#520);
#518 = CARTESIAN_POINT('',(-2.22044604925E-15,54.218426447907,
    -19.2057864591));
#519 = DIRECTION('',(0.,-0.358367949545,-0.933580426497));
#520 = DIRECTION('',(1.,0.,0.));
#521 = ORIENTED_EDGE('',*,*,#507,.F.);
#522 = ORIENTED_EDGE('',*,*,#196,.T.);
#523 = CYLINDRICAL_SURFACE('',#524,1.5);
#524 = AXIS2_PLACEMENT_3D('',#525,#526,#527);
#525 = CARTESIAN_POINT('',(-2.22044604925E-15,27.598081923078,
    -88.55415487912));
#526 = DIRECTION('',(0.,0.358367949545,0.933580426497));
#527 = DIRECTION('',(1.,0.,-0.));
#528 = ADVANCED_FACE('',(#529),#548,.F.);
#529 = FACE_BOUND('',#530,.F.);
#530 = EDGE_LOOP('',(#531,#539,#546,#547));
#531 = ORIENTED_EDGE('',*,*,#532,.T.);
#532 = EDGE_CURVE('',#387,#533,#535,.T.);
#533 = VERTEX_POINT('',#534);
#534 = CARTESIAN_POINT('',(-10.5,1.5,6.5));
#535 = LINE('',#536,#537);
#536 = CARTESIAN_POINT('',(-10.5,-72.78215764999,6.5));
#537 = VECTOR('',#538,1.);
#538 = DIRECTION('',(0.,1.,1.392083302521E-16));
#539 = ORIENTED_EDGE('',*,*,#540,.T.);
#540 = EDGE_CURVE('',#533,#533,#541,.T.);
#541 = CIRCLE('',#542,1.5);
#542 = AXIS2_PLACEMENT_3D('',#543,#544,#545);
#543 = CARTESIAN_POINT('',(-9.,1.5,6.5));
#544 = DIRECTION('',(0.,-1.,-1.392083302521E-16));
#545 = DIRECTION('',(1.,0.,0.));
#546 = ORIENTED_EDGE('',*,*,#532,.F.);
#547 = ORIENTED_EDGE('',*,*,#386,.T.);
#548 = CYLINDRICAL_SURFACE('',#549,1.5);
#549 = AXIS2_PLACEMENT_3D('',#550,#551,#552);
#550 = CARTESIAN_POINT('',(-9.,-72.78215764999,6.5));
#551 = DIRECTION('',(0.,1.,1.392083302521E-16));
#552 = DIRECTION('',(1.,0.,-0.));
#553 = ADVANCED_FACE('',(#554),#573,.F.);
#554 = FACE_BOUND('',#555,.F.);
#555 = EDGE_LOOP('',(#556,#564,#571,#572));
#556 = ORIENTED_EDGE('',*,*,#557,.T.);
#557 = EDGE_CURVE('',#398,#558,#560,.T.);
#558 = VERTEX_POINT('',#559);
#559 = CARTESIAN_POINT('',(7.5,1.5,6.5));
#560 = LINE('',#561,#562);
#561 = CARTESIAN_POINT('',(7.5,-72.78215764999,6.5));
#562 = VECTOR('',#563,1.);
#563 = DIRECTION('',(0.,1.,1.392083302521E-16));
#564 = ORIENTED_EDGE('',*,*,#565,.T.);
#565 = EDGE_CURVE('',#558,#558,#566,.T.);
#566 = CIRCLE('',#567,1.5);
#567 = AXIS2_PLACEMENT_3D('',#568,#569,#570);
#568 = CARTESIAN_POINT('',(9.,1.5,6.5));
#569 = DIRECTION('',(0.,-1.,-1.392083302521E-16));
#570 = DIRECTION('',(1.,0.,0.));
#571 = ORIENTED_EDGE('',*,*,#557,.F.);
#572 = ORIENTED_EDGE('',*,*,#397,.T.);
#573 = CYLINDRICAL_SURFACE('',#574,1.5);
#574 = AXIS2_PLACEMENT_3D('',#575,#576,#577);
#575 = CARTESIAN_POINT('',(9.,-72.78215764999,6.5));
#576 = DIRECTION('',(0.,1.,1.392083302521E-16));
#577 = DIRECTION('',(1.,0.,-0.));
#578 = ADVANCED_FACE('',(#579),#585,.T.);
#579 = FACE_BOUND('',#580,.T.);
#580 = EDGE_LOOP('',(#581,#582,#583,#584));
#581 = ORIENTED_EDGE('',*,*,#287,.T.);
#582 = ORIENTED_EDGE('',*,*,#369,.T.);
#583 = ORIENTED_EDGE('',*,*,#72,.T.);
#584 = ORIENTED_EDGE('',*,*,#154,.T.);
#585 = CYLINDRICAL_SURFACE('',#586,4.);
#586 = AXIS2_PLACEMENT_3D('',#587,#588,#589);
#587 = CARTESIAN_POINT('',(0.,2.5,1.718202396504));
#588 = DIRECTION('',(1.,0.,0.));
#589 = DIRECTION('',(0.,-0.824126188622,-0.566406236925));
#590 = ADVANCED_FACE('',(#591),#607,.F.);
#591 = FACE_BOUND('',#592,.F.);
#592 = EDGE_LOOP('',(#593,#599,#600,#606));
#593 = ORIENTED_EDGE('',*,*,#594,.F.);
#594 = EDGE_CURVE('',#98,#255,#595,.T.);
#595 = LINE('',#596,#597);
#596 = CARTESIAN_POINT('',(0.,1.5,2.405483355106));
#597 = VECTOR('',#598,1.);
#598 = DIRECTION('',(1.,0.,0.));
#599 = ORIENTED_EDGE('',*,*,#105,.F.);
#600 = ORIENTED_EDGE('',*,*,#601,.F.);
#601 = EDGE_CURVE('',#247,#106,#602,.T.);
#602 = LINE('',#603,#604);
#603 = CARTESIAN_POINT('',(0.,2.783264100909,0.538322502111));
#604 = VECTOR('',#605,1.);
#605 = DIRECTION('',(-1.,0.,0.));
#606 = ORIENTED_EDGE('',*,*,#254,.F.);
#607 = CYLINDRICAL_SURFACE('',#608,2.);
#608 = AXIS2_PLACEMENT_3D('',#609,#610,#611);
#609 = CARTESIAN_POINT('',(0.,3.5,2.405483355106));
#610 = DIRECTION('',(-1.,0.,0.));
#611 = DIRECTION('',(-0.,-0.824126188622,-0.566406236925));
#612 = ADVANCED_FACE('',(#613,#626,#629,#632,#635),#638,.T.);
#613 = FACE_BOUND('',#614,.T.);
#614 = EDGE_LOOP('',(#615,#616,#617,#618,#619,#620));
#615 = ORIENTED_EDGE('',*,*,#40,.F.);
#616 = ORIENTED_EDGE('',*,*,#114,.F.);
#617 = ORIENTED_EDGE('',*,*,#601,.F.);
#618 = ORIENTED_EDGE('',*,*,#246,.F.);
#619 = ORIENTED_EDGE('',*,*,#213,.F.);
#620 = ORIENTED_EDGE('',*,*,#621,.F.);
#621 = EDGE_CURVE('',#41,#214,#622,.T.);
#622 = LINE('',#623,#624);
#623 = CARTESIAN_POINT('',(0.,58.419538367144,-20.81844223206));
#624 = VECTOR('',#625,1.);
#625 = DIRECTION('',(1.,0.,0.));
#626 = FACE_BOUND('',#627,.T.);
#627 = EDGE_LOOP('',(#628));
#628 = ORIENTED_EDGE('',*,*,#440,.T.);
#629 = FACE_BOUND('',#630,.T.);
#630 = EDGE_LOOP('',(#631));
#631 = ORIENTED_EDGE('',*,*,#465,.T.);
#632 = FACE_BOUND('',#633,.T.);
#633 = EDGE_LOOP('',(#634));
#634 = ORIENTED_EDGE('',*,*,#490,.T.);
#635 = FACE_BOUND('',#636,.T.);
#636 = EDGE_LOOP('',(#637));
#637 = ORIENTED_EDGE('',*,*,#515,.T.);
#638 = PLANE('',#639);
#639 = AXIS2_PLACEMENT_3D('',#640,#641,#642);
#640 = CARTESIAN_POINT('',(0.,58.419538367144,-20.81844223206));
#641 = DIRECTION('',(0.,0.358367949545,0.933580426497));
#642 = DIRECTION('',(0.,-0.933580426497,0.358367949545));
#643 = ADVANCED_FACE('',(#644),#650,.T.);
#644 = FACE_BOUND('',#645,.T.);
#645 = EDGE_LOOP('',(#646,#647,#648,#649));
#646 = ORIENTED_EDGE('',*,*,#49,.F.);
#647 = ORIENTED_EDGE('',*,*,#621,.T.);
#648 = ORIENTED_EDGE('',*,*,#231,.F.);
#649 = ORIENTED_EDGE('',*,*,#129,.F.);
#650 = PLANE('',#651);
#651 = AXIS2_PLACEMENT_3D('',#652,#653,#654);
#652 = CARTESIAN_POINT('',(0.,57.344434518509,-23.61918351155));
#653 = DIRECTION('',(0.,0.933580426497,-0.358367949545));
#654 = DIRECTION('',(0.,0.358367949545,0.933580426497));
#655 = ADVANCED_FACE('',(#656,#664,#667),#670,.T.);
#656 = FACE_BOUND('',#657,.T.);
#657 = EDGE_LOOP('',(#658,#659,#660,#661,#662,#663));
#658 = ORIENTED_EDGE('',*,*,#303,.F.);
#659 = ORIENTED_EDGE('',*,*,#353,.T.);
#660 = ORIENTED_EDGE('',*,*,#416,.F.);
#661 = ORIENTED_EDGE('',*,*,#263,.F.);
#662 = ORIENTED_EDGE('',*,*,#594,.F.);
#663 = ORIENTED_EDGE('',*,*,#97,.F.);
#664 = FACE_BOUND('',#665,.T.);
#665 = EDGE_LOOP('',(#666));
#666 = ORIENTED_EDGE('',*,*,#540,.T.);
#667 = FACE_BOUND('',#668,.T.);
#668 = EDGE_LOOP('',(#669));
#669 = ORIENTED_EDGE('',*,*,#565,.T.);
#670 = PLANE('',#671);
#671 = AXIS2_PLACEMENT_3D('',#672,#673,#674);
#672 = CARTESIAN_POINT('',(0.,1.5,1.030921437902));
#673 = DIRECTION('',(0.,1.,1.392083302521E-16));
#674 = DIRECTION('',(0.,-1.392083302521E-16,1.));
#675 = ( GEOMETRIC_REPRESENTATION_CONTEXT(3)
GLOBAL_UNCERTAINTY_ASSIGNED_CONTEXT((#679)) GLOBAL_UNIT_ASSIGNED_CONTEXT
((#676,#677,#678)) REPRESENTATION_CONTEXT('Context #1',
  '3D Context with UNIT and UNCERTAINTY') );
#676 = ( LENGTH_UNIT() NAMED_UNIT(*) SI_UNIT(.MILLI.,.METRE.) );
#677 = ( NAMED_UNIT(*) PLANE_ANGLE_UNIT() SI_UNIT($,.RADIAN.) );
#678 = ( NAMED_UNIT(*) SI_UNIT($,.STERADIAN.) SOLID_ANGLE_UNIT() );
#679 = UNCERTAINTY_MEASURE_WITH_UNIT(LENGTH_MEASURE(1.E-07),#676,
  'distance_accuracy_value','confusion accuracy');
#680 = PRODUCT_RELATED_PRODUCT_CATEGORY('part',$,(#7));
ENDSEC;
END-ISO-10303-21;
